<svg width="360" height="42" viewBox="0 0 360 42" fill="none" xmlns="http://www.w3.org/2000/svg">
<g clip-path="url(#clip0_59_332)">
<path d="M251.327 19.0371V41.9641H247.529L229.832 25.6517V42H224.369V19.0192L230.298 19.0371L245.863 32.9654V19.0371H251.327Z" fill="white"/>
<path d="M266.928 19.1805H270.26V39.4904H281.276V41.9642H266.928V19.1805Z" fill="white"/>
<path d="M295.785 19.1805H292.453V41.9642H295.785V19.1805Z" fill="white"/>
<path d="M311.762 41.9642V19.1805H315.399L323.656 30.7068C325.573 33.3777 327.059 35.7798 328.295 38.1101L328.367 38.0743C328.063 35.0448 327.991 32.2663 327.991 28.717V19.1805H331.126V41.9642H327.758L319.572 30.4021C317.763 27.8745 316.043 25.2753 314.754 22.8015L314.646 22.8374C314.825 25.7055 314.915 28.4481 314.915 32.2305V41.9642H311.78H311.762Z" fill="white"/>
<path d="M358.854 31.2804H348.823V39.4904H360V41.9642H345.491V19.1805H359.427V21.6543H348.823V28.8425H358.854V31.2804Z" fill="white"/>
<path d="M198.073 41.9641H133.249V24.6479H0V19.1805H138.712V36.4968H192.61V19.0371H198.073V41.9641Z" fill="white"/>
<path d="M200.939 6.6146C197.787 7.15237 195.351 9.93086 195.351 13.2471C195.351 9.93086 192.915 7.15237 189.762 6.6146C192.915 6.07682 195.351 3.29834 195.351 0C195.351 3.29834 197.787 6.07682 200.939 6.6146Z" fill="white"/>
</g>
<defs>
<clipPath id="clip0_59_332">
<rect width="360" height="42" fill="white"/>
</clipPath>
</defs>
</svg>
