<svg width="40" height="40" viewBox="0 0 40 40" fill="none" xmlns="http://www.w3.org/2000/svg">
<g clip-path="url(#clip0_59_418)">
<path d="M20.1051 10.91C21.6957 10.91 22.9851 9.6206 22.9851 8.03002C22.9851 6.43944 21.6957 5.15002 20.1051 5.15002C18.5145 5.15002 17.2251 6.43944 17.2251 8.03002C17.2251 9.6206 18.5145 10.91 20.1051 10.91Z" stroke="white" stroke-width="2" stroke-linejoin="round"/>
<path d="M20.105 13.25V23.87H26.285L29.755 31.59H32.965" stroke="white" stroke-width="2" stroke-linejoin="round"/>
<path d="M25.0552 30.48C23.4352 33.1 20.5352 34.85 17.2252 34.85C12.1452 34.85 8.03516 30.74 8.03516 25.66C8.03516 20.58 12.1452 16.47 17.2252 16.47" stroke="white" stroke-width="2" stroke-linejoin="round"/>
<path d="M20.105 18.1801H26.535" stroke="white" stroke-width="2" stroke-linejoin="round"/>
</g>
<defs>
<clipPath id="clip0_59_418">
<rect width="25.93" height="31.7" fill="white" transform="translate(7.03516 4.15002)"/>
</clipPath>
</defs>
</svg>
