<svg width="40" height="40" viewBox="0 0 40 40" fill="none" xmlns="http://www.w3.org/2000/svg">
<g clip-path="url(#clip0_59_404)">
<path d="M9.93018 16.24V14.22C9.93018 9.77999 13.5302 6.17999 17.9702 6.17999H22.0402C26.4802 6.17999 30.0802 9.77999 30.0802 14.22V16.24" stroke="white" stroke-width="1.5" stroke-linejoin="bevel"/>
<path d="M7.96016 16.24H9.92016V26.23H7.96016C6.27016 26.23 4.91016 24.86 4.91016 23.18V19.29C4.91016 17.6 6.28016 16.24 7.96016 16.24Z" stroke="white" stroke-width="1.5" stroke-linejoin="bevel"/>
<path d="M32.0403 26.24H30.0803V16.25H32.0403C33.7303 16.25 35.0903 17.62 35.0903 19.3V23.19C35.0903 24.88 33.7203 26.24 32.0403 26.24Z" stroke="white" stroke-width="1.5" stroke-linejoin="bevel"/>
<path d="M30.0803 26.23V28.01C30.0803 30.04 28.4303 31.69 26.4003 31.69H22.7603" stroke="white" stroke-width="1.5" stroke-linejoin="bevel"/>
<path d="M20.63 33.82C21.8064 33.82 22.76 32.8664 22.76 31.69C22.76 30.5136 21.8064 29.56 20.63 29.56C19.4536 29.56 18.5 30.5136 18.5 31.69C18.5 32.8664 19.4536 33.82 20.63 33.82Z" stroke="white" stroke-width="1.5" stroke-linejoin="bevel"/>
</g>
<defs>
<clipPath id="clip0_59_404">
<rect width="31.68" height="29.14" fill="white" transform="translate(4.16016 5.42999)"/>
</clipPath>
</defs>
</svg>
