<svg width="24" height="24" viewBox="0 0 24 24" fill="none" xmlns="http://www.w3.org/2000/svg">
<path d="M7.79922 14.4C7.64009 14.4 7.48748 14.3367 7.37495 14.2242C7.26243 14.1117 7.19922 13.9591 7.19922 13.8C7.19922 13.6408 7.26243 13.4882 7.37495 13.3757C7.48748 13.2632 7.64009 13.2 7.79922 13.2H16.1992C16.3583 13.2 16.511 13.2632 16.6235 13.3757C16.736 13.4882 16.7992 13.6408 16.7992 13.8C16.7992 13.9591 16.736 14.1117 16.6235 14.2242C16.511 14.3367 16.3583 14.4 16.1992 14.4H7.79922ZM7.79922 18C7.64009 18 7.48748 17.9367 7.37495 17.8242C7.26243 17.7117 7.19922 17.5591 7.19922 17.4C7.19922 17.2408 7.26243 17.0882 7.37495 16.9757C7.48748 16.8632 7.64009 16.8 7.79922 16.8H16.1992C16.3583 16.8 16.511 16.8632 16.6235 16.9757C16.736 17.0882 16.7992 17.2408 16.7992 17.4C16.7992 17.5591 16.736 17.7117 16.6235 17.8242C16.511 17.9367 16.3583 18 16.1992 18H7.79922Z" fill="#636466"/>
<path fill-rule="evenodd" clip-rule="evenodd" d="M13.4216 1.19995H5.39961C4.92222 1.19995 4.46438 1.38959 4.12682 1.72716C3.78925 2.06472 3.59961 2.52256 3.59961 2.99995V21C3.59961 21.4773 3.78925 21.9352 4.12682 22.2727C4.46438 22.6103 4.92222 22.8 5.39961 22.8H18.5996C19.077 22.8 19.5348 22.6103 19.8724 22.2727C20.21 21.9352 20.3996 21.4773 20.3996 21V8.64235C20.3995 8.19172 20.2304 7.75752 19.9256 7.42555L14.7488 1.78315C14.5801 1.59925 14.375 1.45243 14.1465 1.35203C13.918 1.25163 13.6712 1.19984 13.4216 1.19995ZM4.79961 2.99995C4.79961 2.84082 4.86282 2.68821 4.97535 2.57569C5.08787 2.46317 5.24048 2.39995 5.39961 2.39995H13.4216C13.5049 2.39986 13.5872 2.4171 13.6635 2.45056C13.7397 2.48403 13.8081 2.533 13.8644 2.59435L19.0412 8.23675C19.1429 8.34735 19.1995 8.49209 19.1996 8.64235V21C19.1996 21.1591 19.1364 21.3117 19.0239 21.4242C18.9114 21.5367 18.7587 21.6 18.5996 21.6H5.39961C5.24048 21.6 5.08787 21.5367 4.97535 21.4242C4.86282 21.3117 4.79961 21.1591 4.79961 21V2.99995Z" fill="#636466"/>
<path d="M13.2 8.39995H19.8C19.9591 8.39995 20.1117 8.46316 20.2243 8.57569C20.3368 8.68821 20.4 8.84082 20.4 8.99995C20.4 9.15908 20.3368 9.31169 20.2243 9.42421C20.1117 9.53674 19.9591 9.59995 19.8 9.59995H12.6C12.4409 9.59995 12.2883 9.53674 12.1757 9.42421C12.0632 9.31169 12 9.15908 12 8.99995V1.79995C12 1.64082 12.0632 1.48821 12.1757 1.37569C12.2883 1.26317 12.4409 1.19995 12.6 1.19995C12.7591 1.19995 12.9117 1.26317 13.0243 1.37569C13.1368 1.48821 13.2 1.64082 13.2 1.79995V8.39995Z" fill="#636466"/>
</svg>
