<svg width="10" height="15" viewBox="0 0 10 15" fill="none" xmlns="http://www.w3.org/2000/svg">
<path d="M0.950271 6.5H9.0505C9.13251 6.49977 9.2129 6.47963 9.28301 6.44174C9.35312 6.40386 9.41031 6.34967 9.4484 6.28499C9.4865 6.22032 9.50406 6.14763 9.49921 6.07473C9.49436 6.00183 9.46727 5.93149 9.42086 5.87128L5.37075 0.661989C5.20289 0.446004 4.79878 0.446004 4.63048 0.661989L0.58036 5.87128C0.53348 5.93136 0.505989 6.00174 0.500873 6.07476C0.495756 6.14778 0.513211 6.22065 0.551341 6.28546C0.589471 6.35027 0.646816 6.40453 0.717148 6.44235C0.78748 6.48018 0.868108 6.50011 0.950271 6.5Z" fill="#231F20"/>
<path d="M0.950271 8.5H9.0505C9.13251 8.50023 9.2129 8.52037 9.28301 8.55826C9.35312 8.59614 9.41031 8.65033 9.4484 8.71501C9.4865 8.77968 9.50406 8.85237 9.49921 8.92527C9.49436 8.99817 9.46727 9.06851 9.42086 9.12872L5.37075 14.338C5.20289 14.554 4.79878 14.554 4.63048 14.338L0.58036 9.12872C0.53348 9.06864 0.505989 8.99826 0.500873 8.92524C0.495756 8.85222 0.513211 8.77935 0.551341 8.71454C0.589471 8.64973 0.646816 8.59547 0.717148 8.55765C0.78748 8.51982 0.868108 8.49989 0.950271 8.5Z" fill="#231F20"/>
</svg>
