<svg width="16" height="16" viewBox="0 0 16 16" fill="none" xmlns="http://www.w3.org/2000/svg">
<path d="M1.63654 5.29295C1.82406 5.10548 2.07837 5.00017 2.34354 5.00017C2.6087 5.00017 2.86301 5.10548 3.05054 5.29295L8.00054 10.243L12.9505 5.29295C13.1391 5.11079 13.3917 5.01 13.6539 5.01228C13.9161 5.01456 14.1669 5.11973 14.3524 5.30513C14.5378 5.49054 14.6429 5.74135 14.6452 6.00355C14.6475 6.26575 14.5467 6.51835 14.3645 6.70695L8.70754 12.364C8.52001 12.5514 8.2657 12.6567 8.00054 12.6567C7.73537 12.6567 7.48106 12.5514 7.29354 12.364L1.63654 6.70695C1.44907 6.51942 1.34375 6.26512 1.34375 5.99995C1.34375 5.73479 1.44907 5.48048 1.63654 5.29295Z" fill="#9D1953"/>
</svg>
