<svg width="60" height="60" viewBox="0 0 60 60" fill="none" xmlns="http://www.w3.org/2000/svg">
<g clip-path="url(#clip0_59_714)">
<path d="M17.25 34.7812H22.4955C23.2386 34.7812 23.9697 34.9546 24.6331 35.2853L37.5584 41.7479C37.8273 41.8814 38.1222 41.9511 38.423 41.9511C39.4908 41.9511 40.3574 41.0845 40.3574 40.0167V10.4188C40.3574 9.35098 39.4908 8.48438 38.423 8.48438H38.4011C38.1142 8.48438 37.8313 8.54813 37.5723 8.66965L23.7964 15.1961C23.1569 15.4989 22.4576 15.6562 21.7504 15.6562H17.248" stroke="white" stroke-width="2" stroke-linecap="round" stroke-linejoin="round"/>
<path d="M18.0469 15.6562V34.7812" stroke="white" stroke-width="2" stroke-linecap="round" stroke-linejoin="round"/>
<path d="M17.25 15.6562H13.2656C10.626 15.6562 8.48438 17.7979 8.48438 20.4375V30C8.48438 32.6396 10.626 34.7812 13.2656 34.7812H17.25" stroke="white" stroke-width="2" stroke-linecap="round" stroke-linejoin="round"/>
<path d="M22.3062 40.3594H25.2187C25.8801 40.3594 26.4778 40.6303 26.9081 41.0606C27.3384 41.4909 27.6094 42.0886 27.6094 42.75C27.6094 44.0728 26.5415 45.1406 25.2187 45.1406H23.2226" stroke="white" stroke-width="2" stroke-linecap="round" stroke-linejoin="round"/>
<path d="M21.2344 34.7812L24.0832 49.6211C24.2725 50.6032 23.5195 51.5156 22.5174 51.5156H19.9913C19.306 51.5156 18.6964 51.0773 18.4792 50.4259L13.2637 34.7812" stroke="white" stroke-width="2" stroke-linecap="round" stroke-linejoin="round"/>
<path d="M40.3594 19.6406H41.1562C44.2362 19.6406 46.7344 22.1388 46.7344 25.2188C46.7344 28.2987 44.2362 30.7969 41.1562 30.7969H40.3594" fill="#E749A2"/>
<path d="M40.3594 19.6406H41.1562C44.2362 19.6406 46.7344 22.1388 46.7344 25.2188C46.7344 28.2987 44.2362 30.7969 41.1562 30.7969H40.3594" stroke="white" stroke-width="2" stroke-linecap="round" stroke-linejoin="round"/>
<path d="M52.3125 26.0156C52.7526 26.0156 53.1094 25.6589 53.1094 25.2188C53.1094 24.7786 52.7526 24.4219 52.3125 24.4219C51.8724 24.4219 51.5156 24.7786 51.5156 25.2188C51.5156 25.6589 51.8724 26.0156 52.3125 26.0156Z" stroke="white" stroke-width="2" stroke-linecap="round" stroke-linejoin="round"/>
<path d="M49.9219 20.4375C50.362 20.4375 50.7188 20.0807 50.7188 19.6406C50.7188 19.2005 50.362 18.8438 49.9219 18.8438C49.4818 18.8438 49.125 19.2005 49.125 19.6406C49.125 20.0807 49.4818 20.4375 49.9219 20.4375Z" stroke="white" stroke-width="2" stroke-linecap="round" stroke-linejoin="round"/>
<path d="M49.9219 31.5938C50.362 31.5938 50.7188 31.237 50.7188 30.7969C50.7188 30.3568 50.362 30 49.9219 30C49.4818 30 49.125 30.3568 49.125 30.7969C49.125 31.237 49.4818 31.5938 49.9219 31.5938Z" stroke="white" stroke-width="2" stroke-linecap="round" stroke-linejoin="round"/>
</g>
<defs>
<clipPath id="clip0_59_714">
<rect width="51" height="51" fill="white" transform="translate(4.5 4.5)"/>
</clipPath>
</defs>
</svg>
