<svg width="60" height="60" viewBox="0 0 60 60" fill="none" xmlns="http://www.w3.org/2000/svg">
<g clip-path="url(#clip0_59_734)">
<path d="M16.4208 16.4208C14.4987 17.3657 12.7494 18.6079 11.2329 20.0875C7.45555 23.7681 5.10938 28.9145 5.10938 34.6094C5.10938 40.3043 7.37719 45.2847 11.0462 48.9537L5.10938 54.8906H25.3906C30.7767 54.8906 35.6764 52.7887 39.3086 49.3594" stroke="white" stroke-width="2" stroke-linecap="round" stroke-linejoin="round"/>
<path d="M54.8906 25.3906C54.8906 14.1898 45.8102 5.10938 34.6094 5.10938C23.4086 5.10938 14.3281 14.1898 14.3281 25.3906C14.3281 36.5914 23.4086 45.6719 34.6094 45.6719H54.8906L48.9514 39.7327C52.6205 36.0636 54.8906 30.9933 54.8906 25.3906Z" stroke="white" stroke-width="2" stroke-linecap="round" stroke-linejoin="round"/>
<path d="M34.6094 26.3125C35.1185 26.3125 35.5312 25.8998 35.5312 25.3906C35.5312 24.8815 35.1185 24.4688 34.6094 24.4688C34.1002 24.4688 33.6875 24.8815 33.6875 25.3906C33.6875 25.8998 34.1002 26.3125 34.6094 26.3125Z" fill="#E749A2" stroke="#E749A2" stroke-width="2" stroke-linecap="round" stroke-linejoin="round"/>
<path d="M26.3125 26.3125C26.8216 26.3125 27.2344 25.8998 27.2344 25.3906C27.2344 24.8815 26.8216 24.4688 26.3125 24.4688C25.8034 24.4688 25.3906 24.8815 25.3906 25.3906C25.3906 25.8998 25.8034 26.3125 26.3125 26.3125Z" fill="#E749A2" stroke="#E749A2" stroke-width="2" stroke-linecap="round" stroke-linejoin="round"/>
<path d="M42.9062 26.3125C43.4154 26.3125 43.8281 25.8998 43.8281 25.3906C43.8281 24.8815 43.4154 24.4688 42.9062 24.4688C42.3971 24.4688 41.9844 24.8815 41.9844 25.3906C41.9844 25.8998 42.3971 26.3125 42.9062 26.3125Z" fill="#E749A2" stroke="#E749A2" stroke-width="2" stroke-linecap="round" stroke-linejoin="round"/>
</g>
<defs>
<clipPath id="clip0_59_734">
<rect width="59" height="59" fill="white" transform="translate(0.5 0.5)"/>
</clipPath>
</defs>
</svg>
