<svg width="172" height="95" viewBox="0 0 172 95" fill="none" xmlns="http://www.w3.org/2000/svg">
<path d="M33.3833 61.4448V80.4122H0.19043V61.4448" stroke="#808285" stroke-width="0.38" stroke-dasharray="1.44 1.44"/>
<path d="M3.91392 94.0405V86.5121L2.69611 87.6595L2.4502 87.3317L3.98418 85.8682H4.39403V94.0405H3.91392Z" fill="#414042"/>
<path d="M7.09863 90.0484C7.09863 88.339 7.54361 85.7749 9.40547 85.7749C11.2673 85.7749 11.7474 88.1166 11.7474 90.0133C11.7474 91.7812 11.2205 94.1814 9.40547 94.1814C7.59045 94.1814 7.09863 91.7461 7.09863 90.0367M7.56702 90.0484C7.56702 91.3246 7.91832 93.7482 9.40547 93.7482C10.8926 93.7482 11.2556 91.348 11.2556 90.025C11.2556 88.702 10.9277 86.2432 9.39376 86.2432C7.85978 86.2432 7.55531 88.6668 7.55531 90.0601" fill="#414042"/>
<path d="M16.2545 89.1469C16.6995 88.1634 17.2498 87.9526 17.8353 87.9526C18.5965 87.9526 19.2054 88.5146 19.4396 89.3576C19.7792 88.3507 20.5052 87.9526 21.1258 87.9526C22.086 87.9526 22.8706 88.6551 22.8706 89.9899V94.0526H22.3905V89.9196C22.3905 88.9244 21.805 88.3975 21.0204 88.3975C20.3295 88.3975 19.5684 89.0649 19.5684 90.3294V94.0409H19.0883V90.025C19.0883 88.9478 18.4443 88.3858 17.7182 88.3858C16.922 88.3858 16.2428 89.1703 16.2428 90.306V94.0409H15.7627V88.1634H16.2428V89.1469H16.2545Z" fill="#414042"/>
<path d="M24.9889 89.1469C25.4339 88.1634 25.9842 87.9526 26.5697 87.9526C27.3308 87.9526 27.9398 88.5146 28.174 89.3576C28.5135 88.3507 29.2395 87.9526 29.8602 87.9526C30.8204 87.9526 31.6049 88.6551 31.6049 89.9899V94.0526H31.1248V89.9196C31.1248 88.9244 30.5393 88.3975 29.7548 88.3975C29.0639 88.3975 28.3028 89.0649 28.3028 90.3294V94.0409H27.8227V90.025C27.8227 88.9478 27.1786 88.3858 26.4526 88.3858C25.6563 88.3858 24.9772 89.1703 24.9772 90.306V94.0409H24.4971V88.1634H24.9772V89.1469H24.9889Z" fill="#414042"/>
<path d="M30.3508 21.2973V46.915H26.1007L6.30213 28.6618V46.9501H0.19043V21.2739L6.81727 21.2973L24.2391 36.8459V21.2973H30.3508Z" fill="#231F20"/>
<path d="M33.5474 7.3996C30.0115 8.00843 27.2952 11.0994 27.2952 14.8109C27.2952 11.0994 24.5789 8.00843 21.043 7.3996C24.5789 6.79077 27.2952 3.6998 27.2952 0C27.2952 3.6998 30.0115 6.80248 33.5474 7.3996Z" fill="#9E1954"/>
<path d="M39.6361 37.3848C41.5331 37.3848 42.7041 38.8834 42.7041 41.026C42.7041 42.9696 41.5097 44.6439 39.6361 44.6439H37.5635V37.3848H39.6361ZM39.5776 44.199C41.2521 44.199 42.1888 42.7237 42.1888 41.0143C42.1888 39.0473 41.1701 37.818 39.5776 37.818H38.067V44.199H39.5776Z" fill="#231F20"/>
<path d="M43.6631 41.9506C43.6631 40.2764 44.6819 39.1758 45.9465 39.1758C47.2112 39.1758 48.2065 40.2764 48.2065 41.9506C48.2065 43.6249 47.176 44.7372 45.9348 44.7372C44.6936 44.7372 43.6631 43.66 43.6631 41.9506ZM44.1666 41.9506C44.1666 43.4493 44.9863 44.3157 45.9348 44.3157C46.8833 44.3157 47.703 43.4493 47.703 41.9506C47.703 40.452 46.9067 39.6324 45.9465 39.6324C44.9863 39.6324 44.1783 40.4754 44.1783 41.9506" fill="#231F20"/>
<path d="M49.9039 40.3934C50.302 39.5739 50.9227 39.1758 51.5784 39.1758C52.5738 39.1758 53.3817 39.8783 53.3817 41.1428V44.6435H52.8782V41.1896C52.8782 40.1359 52.2576 39.6441 51.5199 39.6441C50.5362 39.6441 49.9039 40.651 49.9039 41.6345V44.6435H49.4004V39.3865H49.9039V40.4051V40.3934Z" fill="#231F20"/>
<path d="M58.4629 40.4169V39.3748H58.9664V44.3274C58.9664 46.189 57.8305 46.9032 56.7532 46.9032C56.2029 46.9032 55.594 46.7042 55.0787 46.4349L55.2895 46.0017C55.6994 46.2358 56.2731 46.4232 56.7415 46.4232C57.6549 46.4232 58.4629 45.8026 58.4629 44.304V43.5312C58.0881 44.2572 57.4207 44.6435 56.7415 44.6435C55.512 44.6435 54.5869 43.6717 54.5869 41.9623C54.5869 40.2529 55.43 39.1758 56.7532 39.1758C57.3153 39.1758 58.0647 39.5504 58.4629 40.4169ZM55.1021 41.9506C55.1021 43.0629 55.6759 44.1986 56.7884 44.1986C57.9008 44.1986 58.4629 43.2268 58.4629 41.9506C58.4629 40.452 57.7369 39.6441 56.7884 39.6441C55.6525 39.6441 55.1021 40.7798 55.1021 41.9506Z" fill="#231F20"/>
<path d="M62.7249 39.1759C64.0832 39.1759 64.8912 40.3233 64.8912 41.9976C64.8912 43.6719 64.013 44.7373 62.76 44.7373C62.0691 44.7373 61.4368 44.3275 61.027 43.6016V44.6319H60.5234V37.127H61.027V40.3936C61.4134 39.574 62.1511 39.1759 62.7249 39.1759ZM62.7249 39.6442C61.753 39.6442 61.027 40.4638 61.027 41.9273V42.0093C61.027 43.3206 61.5773 44.3158 62.7249 44.3158C63.8724 44.3158 64.3877 43.1216 64.3877 42.0093C64.3877 40.897 63.8607 39.6442 62.7249 39.6442Z" fill="#231F20"/>
<path d="M69.5862 43.59C69.1881 44.351 68.5675 44.7374 67.9234 44.7374C66.9281 44.7374 66.1201 44.0466 66.1201 42.7821V39.375H66.6236V42.6884C66.6236 43.7539 67.2443 44.2807 67.982 44.2807C68.9539 44.2807 69.5862 43.3324 69.5862 42.302V39.3633H70.0897V44.632H69.5862V43.5782V43.59Z" fill="#231F20"/>
<path d="M74.9828 39.3749L72.7462 41.7166L75.5566 44.6436H74.8774L72.149 41.7751V44.6436H71.6455V37.1387H72.149V41.658L74.3388 39.3749H74.9828Z" fill="#231F20"/>
<path d="M83.6829 37.3848V42.3725C83.6829 43.9062 82.6056 44.7492 81.2706 44.7492C79.9357 44.7492 78.8701 43.918 78.8701 42.3725V37.3848H79.3737V42.232C79.3737 43.5316 80.1582 44.2809 81.2706 44.2809C82.4533 44.2809 83.1794 43.555 83.1794 42.232V37.3848H83.6946H83.6829Z" fill="#231F20"/>
<path d="M85.7662 40.4871C86.1761 39.5739 86.9255 39.2226 87.5578 39.1992V39.7378C87.5578 39.7378 87.4524 39.7378 87.4173 39.7378C86.4922 39.7378 85.7662 40.5808 85.7662 41.4823V44.6553H85.2627V39.3983H85.7662V40.4988V40.4871Z" fill="#231F20"/>
<path d="M90.6253 39.1759C91.9953 39.1759 92.7916 40.3233 92.7916 41.9976C92.7916 43.6719 91.9134 44.7373 90.6604 44.7373C89.9695 44.7373 89.3372 44.3275 88.9274 43.6016V44.6319H88.4238V37.127H88.9274V40.3936C89.3138 39.574 90.0515 39.1759 90.6253 39.1759ZM90.6136 39.6442C89.6416 39.6442 88.9157 40.4638 88.9157 41.9273V42.0093C88.9157 43.3206 89.466 44.3158 90.6136 44.3158C91.7611 44.3158 92.2764 43.1216 92.2764 42.0093C92.2764 40.897 91.7494 39.6442 90.6136 39.6442Z" fill="#231F20"/>
<path d="M94.3013 39.6441C94.7463 39.3631 95.3551 39.1758 95.8118 39.1758C96.5144 39.1758 97.1585 39.5973 97.4161 40.2295C97.5098 40.452 97.5449 40.8032 97.5449 41.1428V43.6366C97.5449 43.9527 97.5449 44.3157 97.6386 44.6435H97.1234C97.0414 44.3859 97.0062 43.9996 97.0062 43.9996C96.655 44.4328 96.046 44.7489 95.32 44.7489C94.5003 44.7489 93.6807 44.1167 93.6807 43.0746C93.6807 41.7867 94.5706 41.2364 96.0812 41.2364C96.2919 41.2364 96.5847 41.2598 96.8891 41.295C96.936 41.295 96.9945 41.295 97.0414 41.3184V41.1428C97.0414 40.3115 96.6667 39.6558 95.7884 39.6558C95.402 39.6558 94.8868 39.7846 94.5003 40.0305L94.3013 39.6441ZM97.0414 41.7048C96.6901 41.6813 96.4208 41.6579 96.1631 41.6579C94.8282 41.6579 94.2076 42.1145 94.2076 43.0863C94.2076 43.8825 94.8399 44.2923 95.4488 44.2923C96.3739 44.2923 97.0414 43.6249 97.0414 42.899V41.7048Z" fill="#231F20"/>
<path d="M99.5582 40.3934C99.9563 39.5739 100.577 39.1758 101.233 39.1758C102.228 39.1758 103.036 39.8783 103.036 41.1428V44.6435H102.533V41.1896C102.533 40.1359 101.912 39.6441 101.174 39.6441C100.191 39.6441 99.5582 40.651 99.5582 41.6345V44.6435H99.0547V39.3865H99.5582V40.4051V40.3934Z" fill="#231F20"/>
<path d="M111.876 44.6439H111.291L109.359 41.4709H107.661V44.6439H107.157V37.3848H109.406C110.565 37.3848 111.595 38.1107 111.595 39.3869C111.595 40.3587 110.975 41.1548 109.909 41.4124L111.888 44.6439H111.876ZM109.335 41.026C110.225 41.026 111.021 40.4992 111.021 39.3869C111.021 38.2746 110.26 37.818 109.382 37.818H107.649V41.026H109.335Z" fill="#231F20"/>
<path d="M113.304 39.6441C113.749 39.3631 114.358 39.1758 114.815 39.1758C115.517 39.1758 116.161 39.5973 116.419 40.2295C116.513 40.452 116.548 40.8032 116.548 41.1428V43.6366C116.548 43.9527 116.548 44.3157 116.642 44.6435H116.126C116.044 44.3859 116.009 43.9996 116.009 43.9996C115.658 44.4328 115.049 44.7489 114.323 44.7489C113.503 44.7489 112.684 44.1167 112.684 43.0746C112.684 41.7867 113.574 41.2364 115.084 41.2364C115.295 41.2364 115.588 41.2598 115.892 41.295C115.939 41.295 115.997 41.295 116.044 41.3184V41.1428C116.044 40.3115 115.67 39.6558 114.791 39.6558C114.405 39.6558 113.89 39.7846 113.503 40.0305L113.304 39.6441ZM116.033 41.7048C115.681 41.6813 115.412 41.6579 115.154 41.6579C113.819 41.6579 113.199 42.1145 113.199 43.0863C113.199 43.8825 113.831 44.2923 114.44 44.2923C115.365 44.2923 116.033 43.6249 116.033 42.899V41.7048Z" fill="#231F20"/>
<path d="M117.952 37.1387H118.713V37.9934H117.952V37.1387ZM118.081 39.3749H118.584V44.6319H118.081V39.3749Z" fill="#231F20"/>
<path d="M120.68 37.1387H120.177V44.6436H120.68V37.1387Z" fill="#231F20"/>
<path d="M126.3 43.9061L127.506 39.375H127.986L126.558 44.6437H126.066L124.836 39.855L123.607 44.6437H123.127L121.698 39.375H122.167L123.373 43.9061L124.567 39.375H125.106L126.3 43.9061Z" fill="#231F20"/>
<path d="M129.239 39.6441C129.684 39.3631 130.293 39.1758 130.749 39.1758C131.452 39.1758 132.096 39.5973 132.354 40.2295C132.447 40.452 132.482 40.8032 132.482 41.1428V43.6366C132.482 43.9527 132.482 44.3157 132.564 44.6435H132.049C131.967 44.3859 131.932 43.9996 131.932 43.9996C131.581 44.4328 130.972 44.7489 130.246 44.7489C129.426 44.7489 128.606 44.1167 128.606 43.0746C128.606 41.7867 129.508 41.2364 131.007 41.2364C131.218 41.2364 131.51 41.2598 131.815 41.295C131.862 41.295 131.92 41.295 131.967 41.3184V41.1428C131.967 40.3115 131.592 39.6558 130.714 39.6558C130.328 39.6558 129.813 39.7846 129.426 40.0305L129.227 39.6441H129.239ZM131.967 41.7048C131.616 41.6813 131.347 41.6579 131.089 41.6579C129.766 41.6579 129.133 42.1145 129.133 43.0863C129.133 43.8825 129.766 44.2923 130.375 44.2923C131.3 44.2923 131.967 43.6249 131.967 42.899V41.7048Z" fill="#231F20"/>
<path d="M133.513 46.4702C134.403 46.2009 134.871 45.6974 135.199 44.6905L133.372 39.375H133.922L135.48 44.07L136.979 39.375H137.564L135.913 44.2456C135.468 45.5452 134.836 46.5756 133.7 46.9385L133.501 46.4702H133.513Z" fill="#231F20"/>
<path d="M145.982 44.0818C145.479 44.4681 144.765 44.7491 143.945 44.7491C142.024 44.7491 140.748 43.0983 140.748 41.0142C140.748 38.7897 142.083 37.2793 143.91 37.2793C144.624 37.2793 145.42 37.49 145.912 37.7945L145.666 38.1808C145.28 37.9584 144.577 37.7476 143.898 37.7476C142.223 37.7476 141.275 39.258 141.275 41.0142C141.275 42.7705 142.317 44.2808 143.957 44.2808C144.659 44.2808 145.373 43.9764 145.772 43.7071L145.994 44.0818H145.982Z" fill="#231F20"/>
<path d="M146.566 41.9506C146.566 40.2764 147.597 39.1758 148.85 39.1758C150.103 39.1758 151.11 40.2764 151.11 41.9506C151.11 43.6249 150.079 44.7372 148.838 44.7372C147.597 44.7372 146.566 43.66 146.566 41.9506ZM147.07 41.9506C147.07 43.4493 147.89 44.3157 148.838 44.3157C149.787 44.3157 150.606 43.4493 150.606 41.9506C150.606 40.452 149.81 39.6324 148.85 39.6324C147.89 39.6324 147.082 40.4754 147.082 41.9506" fill="#231F20"/>
<path d="M153.135 44.3628H152.315V45.2526H153.135V44.3628Z" fill="#231F20"/>
<path d="M154.681 44.3511H155.5V45.1472C155.535 45.7795 155.149 46.3415 154.727 46.6927L154.61 46.5756C154.868 46.3063 155.196 45.838 155.161 45.2292H154.681V44.3394V44.3511Z" fill="#231F20"/>
<path d="M160.91 44.6439H157.069V37.3848H157.573V44.199H160.91V44.6439Z" fill="#231F20"/>
<path d="M162.35 37.9466L162.853 37.7593V39.3867H164.048V39.8316H162.853V43.4026C162.853 44.1051 163.369 44.2691 163.954 44.3042V44.7608C163.029 44.7257 162.35 44.4564 162.35 43.4495V39.8316H161.542V39.3867H162.35V37.9466Z" fill="#231F20"/>
<path d="M168.626 40.3936V37.127H169.129V44.6319H168.626V43.6016C168.204 44.3158 167.584 44.7373 166.893 44.7373C165.64 44.7373 164.762 43.7187 164.762 41.9976C164.762 40.2765 165.558 39.1759 166.928 39.1759C167.514 39.1759 168.251 39.574 168.638 40.3936M165.254 41.9976C165.254 43.0982 165.78 44.3041 166.928 44.3041C168.076 44.3041 168.626 43.3089 168.626 41.9976V41.9156C168.626 40.4638 167.9 39.6325 166.928 39.6325C165.792 39.6325 165.254 40.8385 165.254 41.9976Z" fill="#231F20"/>
<path d="M171.529 44.3628H170.709V45.2526H171.529V44.3628Z" fill="#231F20"/>
</svg>
