<svg width="399" height="150" viewBox="0 0 399 150" fill="none" xmlns="http://www.w3.org/2000/svg">
<g clip-path="url(#clip0_64_3086)">
<path d="M393.915 81.3379V117.596H387.918L359.9 91.7706V117.635H351.245V81.2983L360.621 81.3379L385.27 103.349V81.3379H393.915Z" fill="#231F20"/>
<path d="M398.439 61.6876C393.44 62.5471 389.587 66.9336 389.587 72.1796C389.587 66.9336 385.744 62.5471 380.745 61.6876C385.734 60.8379 389.587 56.4515 389.587 51.2153C389.587 56.4515 393.43 60.8379 398.439 61.6876Z" fill="#9E1954"/>
<path d="M115.856 49.6939V109.514H105.957L59.7308 66.9237V109.583H45.4648V49.6445L60.9262 49.6939L101.6 86.0207V49.6939H115.856Z" fill="#231F20"/>
<path d="M123.316 17.2792C115.066 18.7018 108.724 25.9237 108.724 34.588C108.724 25.9336 102.371 18.7018 94.1318 17.2792C102.371 15.8763 108.724 8.63466 108.724 0C108.724 8.63466 115.066 15.8763 123.316 17.2792Z" fill="#9E1954"/>
<path d="M18.5042 140.703H0V139.36H8.42719V136.682H2.65758V130.389H15.9553V131.733H4.22841V135.368H16.1826V136.682H10.0573V139.36H18.5042V140.703ZM16.2122 146.147C16.2122 148.271 13.9795 149.951 9.23731 149.951C4.49516 149.951 2.32168 148.271 2.32168 146.147C2.32168 144.023 4.5742 142.314 9.23731 142.314C13.9004 142.314 16.2122 143.954 16.2122 146.147ZM9.22743 143.578C5.97708 143.578 4.0407 144.625 4.0407 146.127C4.0407 147.629 5.97708 148.676 9.22743 148.676C12.4778 148.676 14.4635 147.678 14.4635 146.127C14.4635 144.576 12.5074 143.578 9.22743 143.578Z" fill="#231F20"/>
<path d="M37.8675 141.02H29.4403V143.509H35.289V149.704H33.6984V144.833H21.6553V143.519H27.7806V141.03H19.3633V139.706H37.8675V141.03V141.02ZM22.0604 137.493V130.024H23.6312V132.444H33.5897V130.024H35.1408V137.493H22.0604ZM33.5897 133.748H23.6312V136.169H33.5897V133.748Z" fill="#231F20"/>
<path d="M50.0593 140.871C48.2316 140.15 45.7222 138.619 44.8034 136.663C43.9143 138.935 41.6519 140.338 39.6167 141.365L38.7275 140.328C41.2962 139.054 43.9834 137.354 43.9834 134.074V130.547H45.6432V134.055C45.6432 137.226 48.3699 138.708 50.7904 139.666L50.0692 140.881L50.0593 140.871ZM55.7795 149.279H42.6102V142.897H44.2304V147.935H55.7795V149.279ZM55.3053 143.786H53.7345V135.428H49.4171V134.084H53.7345V129.875H55.3053V143.786Z" fill="#231F20"/>
<path d="M68.1384 141.573V145.06H76.5853V146.374H58.0811V145.06H66.4984V141.573H68.1384ZM60.6991 140.17V130.982H74.0562V132.306H62.2699V138.856H74.313V140.17H60.6991Z" fill="#231F20"/>
<path d="M84.3508 130.775V136.129C84.3311 139.508 86.9887 141.938 89.6265 143.213L88.8164 144.467C87.1171 143.509 84.6275 141.81 83.5012 139.103C82.5034 141.869 80.2904 143.568 78.0576 144.932L77.04 143.806C80.0236 142.146 82.701 139.597 82.701 136.04V130.765H84.3607L84.3508 130.775ZM93.8154 149.595H92.2445V129.875H93.8154V149.595Z" fill="#231F20"/>
<path d="M103.902 131.605H108.279V132.879H103.902V132.919C103.902 136.07 106.5 137.562 108.921 138.53L108.2 139.696C106.392 138.994 103.991 137.463 103.072 135.527C102.203 137.779 100.029 139.162 97.9842 140.18L97.0654 139.162C99.644 137.888 102.252 136.189 102.252 132.928V132.859H97.8459V131.585H102.252V129.263H103.892V131.585L103.902 131.605ZM113.831 149.704H100.533V144.873H111.677V142.551H100.533V141.277H113.337V146.108H102.193V148.449H113.821V149.704H113.831ZM113.386 140.22H111.815V135.714H107.903V134.401H111.815V129.886H113.386V140.22Z" fill="#231F20"/>
<path d="M126.22 141.573V145.06H134.667V146.374H116.163V145.06H124.58V141.573H126.22ZM118.771 140.17V130.982H132.128V132.306H120.342V138.856H132.385V140.17H118.771Z" fill="#231F20"/>
<path d="M140.832 150C138.619 146.769 137.275 142.827 137.275 139.429C137.275 136.03 138.619 132.177 140.832 128.947H141.998C139.953 132.326 138.896 135.961 138.896 139.478C138.896 142.995 139.963 146.601 141.998 150.01H140.832V150Z" fill="#231F20"/>
<path d="M162.26 142.156H153.813V149.605H152.173V142.156H143.746V140.842H162.25V142.156H162.26ZM145.198 137.493C148.024 136.9 152.114 134.815 152.114 132.326V132.049H146.246V130.715H159.711V132.049H153.863V132.326C153.863 134.726 157.824 136.831 160.778 137.493L160.037 138.728C157.291 138.066 154.376 136.347 152.993 134.371C151.482 136.534 148.567 138.135 145.949 138.728L145.208 137.493H145.198Z" fill="#231F20"/>
<path d="M164.068 150C166.113 146.602 167.171 143.065 167.171 139.518C167.171 135.971 166.104 132.306 164.068 128.927H165.264C167.457 132.158 168.791 136.07 168.791 139.479C168.791 142.887 167.447 146.779 165.264 150.01H164.068V150Z" fill="#231F20"/>
<path d="M357.024 128.314H352.025V127.949H354.298V127.228H352.737V125.528H356.333V125.894H353.162V126.872H356.392V127.228H354.732V127.949H357.015V128.314H357.024ZM356.412 129.786C356.412 130.359 355.809 130.814 354.525 130.814C353.241 130.814 352.658 130.359 352.658 129.786C352.658 129.213 353.27 128.749 354.525 128.749C355.78 128.749 356.412 129.194 356.412 129.786ZM354.525 129.085C353.646 129.085 353.122 129.371 353.122 129.776C353.122 130.182 353.646 130.468 354.525 130.468C355.404 130.468 355.938 130.201 355.938 129.776C355.938 129.352 355.404 129.085 354.525 129.085Z" fill="#231F20"/>
<path d="M362.261 128.403H359.989V129.075H361.569V130.755H361.135V129.441H357.874V129.085H359.534V128.413H357.252V128.058H362.261V128.413V128.403ZM357.993 127.445V125.43H358.418V126.082H361.105V125.43H361.52V127.445H357.983H357.993ZM361.105 126.437H358.418V127.089H361.105V126.437Z" fill="#231F20"/>
<path d="M365.56 128.364C365.066 128.166 364.384 127.751 364.137 127.228C363.9 127.84 363.287 128.226 362.734 128.502L362.497 128.216C363.199 127.87 363.92 127.406 363.92 126.526V125.568H364.364V126.517C364.364 127.376 365.095 127.771 365.757 128.038L365.56 128.364ZM367.111 130.626H363.554V128.897H363.989V130.261H367.111V130.626ZM366.982 129.144H366.558V126.882H365.392V126.517H366.558V125.38H366.982V129.144Z" fill="#231F20"/>
<path d="M370.45 128.552V129.5H372.733V129.856H367.724V129.5H370.006V128.552H370.45ZM368.435 128.166V125.687H372.051V126.042H368.87V127.811H372.12V128.166H368.435Z" fill="#231F20"/>
<path d="M374.837 125.627V127.08C374.837 127.998 375.549 128.65 376.26 128.996L376.043 129.332C375.578 129.075 374.907 128.611 374.6 127.88C374.334 128.631 373.731 129.085 373.128 129.461L372.852 129.154C373.662 128.71 374.383 128.018 374.383 127.06V125.637H374.837V125.627ZM377.396 130.715H376.971V125.38H377.396V130.715Z" fill="#231F20"/>
<path d="M380.123 125.854H381.308V126.2H380.123C380.123 127.06 380.824 127.465 381.476 127.732L381.279 128.048C380.795 127.86 380.143 127.445 379.896 126.921C379.659 127.534 379.076 127.909 378.522 128.176L378.275 127.9C378.977 127.554 379.678 127.089 379.678 126.21V126.19H378.483V125.845H379.678V125.222H380.123V125.845V125.854ZM382.8 130.745H379.204V129.441H382.217V128.818H379.204V128.473H382.662V129.777H379.649V130.409H382.8V130.745ZM382.682 128.176H382.257V126.961H381.2V126.605H382.257V125.39H382.682V128.186V128.176Z" fill="#231F20"/>
<path d="M386.149 128.552V129.5H388.431V129.856H383.422V129.5H385.694V128.552H386.139H386.149ZM384.143 128.166V125.687H387.749V126.042H384.568V127.811H387.818V128.166H384.143Z" fill="#231F20"/>
<path d="M390.101 130.824C389.498 129.954 389.143 128.887 389.143 127.969C389.143 127.05 389.508 126.013 390.101 125.133H390.417C389.864 126.052 389.577 127.03 389.577 127.979C389.577 128.927 389.864 129.905 390.417 130.824H390.101Z" fill="#231F20"/>
<path d="M395.89 128.7H393.608V130.715H393.163V128.7H390.881V128.344H395.88V128.7H395.89ZM391.286 127.445C392.047 127.287 393.153 126.724 393.153 126.052V125.973H391.563V125.607H395.198V125.973H393.617V126.052C393.617 126.704 394.684 127.267 395.485 127.445L395.287 127.781C394.546 127.603 393.756 127.139 393.38 126.605C392.975 127.188 392.185 127.623 391.474 127.781L391.276 127.445H391.286Z" fill="#231F20"/>
<path d="M396.384 130.824C396.937 129.905 397.224 128.947 397.224 127.989C397.224 127.03 396.937 126.042 396.384 125.124H396.71C397.303 126.003 397.668 127.06 397.668 127.979C397.668 128.897 397.303 129.955 396.71 130.824H396.384Z" fill="#231F20"/>
</g>
<defs>
<clipPath id="clip0_64_3086">
<rect width="398.439" height="150" fill="white"/>
</clipPath>
</defs>
</svg>
