<svg width="566" height="72" viewBox="0 0 566 72" fill="none" xmlns="http://www.w3.org/2000/svg">
<g clip-path="url(#clip0_64_3205)">
<path d="M46.2476 32.6513V71.9497H39.7415L9.37642 43.9715V72H0V32.6211L10.162 32.6513L36.8812 56.5204V32.6513H46.2476Z" fill="#231F20"/>
<path d="M51.1524 11.3504C45.7239 12.277 41.5645 17.0306 41.5645 22.7209C41.5645 17.0407 37.3949 12.287 31.9766 11.3504C37.3949 10.4238 41.5645 5.67016 41.5645 0C41.5645 5.67016 45.734 10.4238 51.1524 11.3504Z" fill="#9E1954"/>
<path d="M60.4884 57.3359C63.3992 57.3359 65.192 59.6221 65.192 62.9155C65.192 65.9066 63.3488 68.4648 60.4884 68.4648H57.3057V57.3359H60.4884ZM60.3977 67.7799C62.9661 67.7799 64.3963 65.5239 64.3963 62.8953C64.3963 59.884 62.8351 58.0006 60.3977 58.0006H58.0812V67.7799H60.3977Z" fill="#231F20"/>
<path d="M66.6621 64.3456C66.6621 61.7774 68.2333 60.0854 70.1671 60.0854C72.1009 60.0854 73.6319 61.7774 73.6319 64.3456C73.6319 66.9138 72.0606 68.6259 70.1571 68.6259C68.2535 68.6259 66.6621 66.9742 66.6621 64.3456ZM67.4477 64.3456C67.4477 66.6318 68.6966 67.9713 70.1571 67.9713C71.6175 67.9713 72.8664 66.6318 72.8664 64.3456C72.8664 62.0594 71.6376 60.7804 70.1772 60.7804C68.7168 60.7804 67.4578 62.0695 67.4578 64.3456" fill="#231F20"/>
<path d="M76.2501 61.9587C76.8645 60.6998 77.8113 60.0854 78.8185 60.0854C80.3393 60.0854 81.5782 61.1732 81.5782 63.0968V68.4547H80.8026V63.1673C80.8026 61.5559 79.8458 60.7904 78.7278 60.7904C77.2271 60.7904 76.2501 62.3414 76.2501 63.8421V68.4547H75.4746V60.3775H76.2501V61.9386V61.9587Z" fill="#231F20"/>
<path d="M89.3737 61.9889V60.3977H90.1493V67.9915C90.1493 70.8416 88.4169 71.9293 86.7651 71.9293C85.9292 71.9293 84.9824 71.6272 84.1968 71.2143L84.5191 70.5496C85.1436 70.9121 86.0198 71.2042 86.745 71.2042C88.145 71.2042 89.3838 70.2474 89.3838 67.9612V66.7728C88.8097 67.8706 87.7824 68.4849 86.745 68.4849C84.8615 68.4849 83.4414 66.9944 83.4414 64.3658C83.4414 61.7371 84.7407 60.0854 86.7551 60.0854C87.6212 60.0854 88.7694 60.6696 89.3838 61.9889M84.2169 64.3356C84.2169 66.0477 85.0932 67.79 86.8054 67.79C88.5176 67.79 89.3737 66.2995 89.3737 64.3356C89.3737 62.0494 88.2658 60.8005 86.8054 60.8005C85.063 60.8005 84.2169 62.5429 84.2169 64.3356Z" fill="#231F20"/>
<path d="M95.92 60.0858C98.0149 60.0858 99.2437 61.8382 99.2437 64.4165C99.2437 66.9947 97.8941 68.6162 95.9804 68.6162C94.9128 68.6162 93.956 67.9817 93.3214 66.8739V68.4551H92.5459V56.9536H93.3214V61.949C93.9056 60.6901 95.0437 60.0757 95.9301 60.0757M95.8998 60.8009C94.4092 60.8009 93.3013 62.0598 93.3013 64.2956V64.4265C93.3013 66.4408 94.1574 67.9616 95.8998 67.9616C97.6423 67.9616 98.4581 66.1185 98.4581 64.4265C98.4581 62.7346 97.6423 60.8009 95.8998 60.8009Z" fill="#231F20"/>
<path d="M106.434 66.8535C105.82 68.0318 104.873 68.6261 103.886 68.6261C102.355 68.6261 101.116 67.5686 101.116 65.6248V60.3978H101.892V65.4838C101.892 67.1254 102.849 67.9311 103.967 67.9311C105.457 67.9311 106.434 66.4708 106.434 64.8997V60.3877H107.21V68.4649H106.434V66.8535Z" fill="#231F20"/>
<path d="M114.713 60.3879L111.289 63.9834L115.589 68.4652H114.552L110.362 64.074V68.4652H109.597V56.9536H110.362V63.9028L113.726 60.3879H114.713Z" fill="#231F20"/>
<path d="M128.047 57.3359V64.9902C128.047 67.3368 126.396 68.6259 124.341 68.6259C122.286 68.6259 120.645 67.3468 120.645 64.9902V57.3359H121.42V64.7686C121.42 66.7728 122.619 67.9108 124.341 67.9108C126.154 67.9108 127.262 66.8131 127.262 64.7686V57.3359H128.047Z" fill="#231F20"/>
<path d="M131.25 62.09C131.874 60.68 133.022 60.1462 133.999 60.106V60.9318C133.929 60.9217 133.838 60.9217 133.788 60.9217C132.378 60.9217 131.26 62.2109 131.26 63.6007V68.4652H130.484V60.388H131.26V62.0799L131.25 62.09Z" fill="#231F20"/>
<path d="M138.703 60.0858C140.797 60.0858 142.016 61.8382 142.016 64.4165C142.016 66.9947 140.667 68.6162 138.753 68.6162C137.685 68.6162 136.728 67.9817 136.094 66.8739V68.4551H135.318V56.9536H136.094V61.949C136.678 60.6901 137.816 60.0757 138.703 60.0757M138.692 60.8009C137.202 60.8009 136.094 62.0598 136.094 64.2956V64.4265C136.094 66.4408 136.95 67.9616 138.692 67.9616C140.435 67.9616 141.251 66.1185 141.251 64.4265C141.251 62.7346 140.435 60.8009 138.692 60.8009Z" fill="#231F20"/>
<path d="M144.352 60.8005C145.027 60.3674 145.964 60.0854 146.669 60.0854C147.747 60.0854 148.734 60.7199 149.136 61.6969C149.288 62.0494 149.338 62.563 149.338 63.0867V66.9138C149.338 67.3872 149.338 67.9612 149.469 68.4648H148.683C148.562 68.072 148.502 67.4778 148.502 67.4778C147.968 68.1425 147.021 68.6259 145.913 68.6259C144.665 68.6259 143.396 67.6591 143.396 66.0577C143.396 64.0838 144.765 63.2277 147.072 63.2277C147.394 63.2277 147.847 63.268 148.311 63.3183C148.381 63.3284 148.472 63.3284 148.552 63.3486V63.0867C148.552 61.8076 147.978 60.8106 146.629 60.8106C146.034 60.8106 145.239 61.012 144.654 61.3847L144.352 60.7904V60.8005ZM148.552 63.9528C148.019 63.9126 147.606 63.8823 147.203 63.8823C145.168 63.8823 144.201 64.5873 144.201 66.0678C144.201 67.2865 145.178 67.921 146.105 67.921C147.515 67.921 148.542 66.8937 148.542 65.7758V63.9528H148.552Z" fill="#231F20"/>
<path d="M152.4 61.9587C153.014 60.6998 153.961 60.0854 154.968 60.0854C156.489 60.0854 157.728 61.1732 157.728 63.0968V68.4547H156.952V63.1673C156.952 61.5559 155.995 60.7904 154.877 60.7904C153.377 60.7904 152.4 62.3414 152.4 63.8421V68.4547H151.624V60.3775H152.4V61.9386V61.9587Z" fill="#231F20"/>
<path d="M171.304 68.4648H170.407L167.436 63.6003H164.827V68.4648H164.052V57.3359H167.486C169.259 57.3359 170.84 58.4539 170.84 60.4077C170.84 61.8983 169.893 63.1169 168.252 63.5097L171.283 68.4648H171.304ZM167.406 62.9255C168.775 62.9255 169.994 62.1098 169.994 60.4077C169.994 58.7056 168.826 58.0006 167.476 58.0006H164.827V62.9255H167.416H167.406Z" fill="#231F20"/>
<path d="M173.489 60.8005C174.174 60.3674 175.101 60.0854 175.806 60.0854C176.884 60.0854 177.871 60.7199 178.274 61.6969C178.425 62.0494 178.475 62.563 178.475 63.0867V66.9138C178.475 67.3872 178.475 67.9612 178.606 68.4648H177.82C177.699 68.072 177.629 67.4778 177.629 67.4778C177.095 68.1425 176.148 68.6259 175.04 68.6259C173.792 68.6259 172.522 67.6591 172.522 66.0577C172.522 64.0838 173.892 63.2277 176.199 63.2277C176.521 63.2277 176.974 63.268 177.438 63.3183C177.508 63.3284 177.599 63.3284 177.679 63.3486V63.0867C177.679 61.8076 177.105 60.8106 175.756 60.8106C175.161 60.8106 174.366 61.012 173.781 61.3847L173.479 60.7904L173.489 60.8005ZM177.689 63.9528C177.156 63.9126 176.743 63.8823 176.34 63.8823C174.305 63.8823 173.338 64.5873 173.338 66.0678C173.338 67.2865 174.315 67.921 175.242 67.921C176.652 67.921 177.679 66.8937 177.679 65.7758V63.9528H177.689Z" fill="#231F20"/>
<path d="M180.63 56.9536H181.788V58.273H180.63V56.9536ZM180.821 60.3879H181.597V68.4652H180.821V60.3879Z" fill="#231F20"/>
<path d="M184.819 56.9536H184.044V68.4652H184.819V56.9536Z" fill="#231F20"/>
<path d="M193.441 67.3369L195.274 60.3877H196.009L193.823 68.4649H193.078L191.184 61.133L189.301 68.4649H188.566L186.37 60.3877H187.095L188.938 67.3369L190.772 60.3877H191.597L193.441 67.3369Z" fill="#231F20"/>
<path d="M197.932 60.8005C198.617 60.3674 199.543 60.0854 200.248 60.0854C201.326 60.0854 202.313 60.7199 202.716 61.6969C202.867 62.0494 202.917 62.563 202.917 63.0867V66.9138C202.917 67.3872 202.917 67.9612 203.048 68.4648H202.263C202.142 68.072 202.071 67.4778 202.071 67.4778C201.537 68.1425 200.591 68.6259 199.483 68.6259C198.234 68.6259 196.965 67.6591 196.965 66.0577C196.965 64.0838 198.335 63.2277 200.641 63.2277C200.963 63.2277 201.417 63.268 201.88 63.3183C201.95 63.3284 202.041 63.3284 202.122 63.3486V63.0867C202.122 61.8076 201.548 60.8106 200.198 60.8106C199.604 60.8106 198.808 61.012 198.224 61.3847L197.912 60.7904L197.932 60.8005ZM202.132 63.9528C201.598 63.9126 201.185 63.8823 200.782 63.8823C198.748 63.8823 197.781 64.5873 197.781 66.0678C197.781 67.2865 198.748 67.921 199.684 67.921C201.094 67.921 202.122 66.8937 202.122 65.7758V63.9528H202.132Z" fill="#231F20"/>
<path d="M204.489 71.275C205.848 70.852 206.563 70.0866 207.087 68.5557L204.287 60.3979H205.123L207.51 67.599L209.817 60.3979H210.713L208.175 67.881C207.5 69.8852 206.523 71.4563 204.791 72.0102L204.489 71.2851V71.275Z" fill="#231F20"/>
<path d="M223.614 67.609C222.839 68.2032 221.751 68.6262 220.492 68.6262C217.541 68.6262 215.587 66.0882 215.587 62.9057C215.587 59.4814 217.632 57.165 220.421 57.165C221.509 57.165 222.738 57.4974 223.483 57.9607L223.111 58.5549C222.506 58.2225 221.449 57.8902 220.401 57.8902C217.833 57.8902 216.383 60.2066 216.383 62.9057C216.383 65.6048 217.984 67.9212 220.492 67.9212C221.57 67.9212 222.667 67.4579 223.272 67.0349L223.604 67.609H223.614Z" fill="#231F20"/>
<path d="M224.51 64.3456C224.51 61.7774 226.081 60.0854 228.015 60.0854C229.949 60.0854 231.48 61.7774 231.48 64.3456C231.48 66.9138 229.908 68.6259 228.005 68.6259C226.101 68.6259 224.51 66.9742 224.51 64.3456ZM225.295 64.3456C225.295 66.6318 226.544 67.9713 227.995 67.9713C229.445 67.9713 230.704 66.6318 230.704 64.3456C230.704 62.0594 229.475 60.7804 228.015 60.7804C226.554 60.7804 225.295 62.0695 225.295 64.3456Z" fill="#231F20"/>
<path d="M234.592 68.042H233.343V69.4016H234.592V68.042Z" fill="#231F20"/>
<path d="M236.969 68.0117H238.217V69.2303C238.268 70.1972 237.674 71.0533 237.029 71.6072L236.848 71.436C237.251 71.013 237.744 70.308 237.704 69.3814H236.969V68.0218V68.0117Z" fill="#231F20"/>
<path d="M246.527 68.4648H240.635V57.3359H241.41V67.7799H246.527V68.4648Z" fill="#231F20"/>
<path d="M248.722 58.192L249.498 57.8999V60.3875H251.321V61.0724H249.498V66.5512C249.498 67.6187 250.293 67.8806 251.19 67.931V68.6359C249.76 68.5755 248.722 68.1727 248.722 66.6217V61.0724H247.483V60.3875H248.722V58.1819V58.192Z" fill="#231F20"/>
<path d="M258.35 61.9588V56.9634H259.126V68.4749H258.35V66.8937C257.706 67.9915 256.749 68.6361 255.681 68.6361C253.758 68.6361 252.418 67.075 252.418 64.4363C252.418 61.7976 253.647 60.1056 255.732 60.1056C256.628 60.1056 257.756 60.7099 258.34 61.9789M253.193 64.4162C253.193 66.1082 254.009 67.9512 255.752 67.9512C257.494 67.9512 258.35 66.4304 258.35 64.4162V64.2852C258.35 62.0494 257.242 60.7905 255.752 60.7905C254.009 60.7905 253.193 62.6436 253.193 64.4162Z" fill="#231F20"/>
<path d="M262.802 68.042H261.553V69.4016H262.802V68.042Z" fill="#231F20"/>
<path d="M561.064 32.6513V71.9497H554.558L524.183 43.9715V72H514.816V32.6211L524.978 32.6513L551.688 56.5204V32.6513H561.064Z" fill="#231F20"/>
<path d="M565.969 11.3504C560.54 12.277 556.381 17.0306 556.381 22.7209C556.381 17.0407 552.211 12.287 546.793 11.3504C552.211 10.4238 556.381 5.67016 556.381 0C556.381 5.67016 560.55 10.4238 565.969 11.3504Z" fill="#9E1954"/>
<path d="M302.321 57.3359C305.232 57.3359 307.025 59.6221 307.025 62.9155C307.025 65.9066 305.192 68.4648 302.321 68.4648H299.139V57.3359H302.321ZM302.231 67.7799C304.799 67.7799 306.229 65.5239 306.229 62.8953C306.229 59.884 304.668 58.0006 302.231 58.0006H299.914V67.7799H302.231Z" fill="#231F20"/>
<path d="M308.495 64.3456C308.495 61.7774 310.066 60.0854 312 60.0854C313.934 60.0854 315.465 61.7774 315.465 64.3456C315.465 66.9138 313.894 68.6259 311.99 68.6259C310.086 68.6259 308.495 66.9742 308.495 64.3456ZM309.281 64.3456C309.281 66.6318 310.53 67.9713 311.99 67.9713C313.45 67.9713 314.699 66.6318 314.699 64.3456C314.699 62.0594 313.471 60.7804 312.01 60.7804C310.55 60.7804 309.291 62.0695 309.291 64.3456" fill="#231F20"/>
<path d="M318.073 61.9587C318.688 60.6998 319.635 60.0854 320.642 60.0854C322.163 60.0854 323.401 61.1732 323.401 63.0968V68.4547H322.626V63.1673C322.626 61.5559 321.669 60.7904 320.551 60.7904C319.05 60.7904 318.073 62.3414 318.073 63.8421V68.4547H317.298V60.3775H318.073V61.9386V61.9587Z" fill="#231F20"/>
<path d="M331.207 61.9889V60.3977H331.982V67.9915C331.982 70.8416 330.25 71.9293 328.598 71.9293C327.762 71.9293 326.815 71.6272 326.03 71.2143L326.352 70.5496C326.977 70.9121 327.853 71.2042 328.578 71.2042C329.978 71.2042 331.217 70.2474 331.217 67.9612V66.7728C330.643 67.8706 329.615 68.4849 328.578 68.4849C326.695 68.4849 325.274 66.9944 325.274 64.3658C325.274 61.7371 326.564 60.0854 328.588 60.0854C329.454 60.0854 330.602 60.6696 331.217 61.9889M326.05 64.3356C326.05 66.0477 326.926 67.79 328.638 67.79C330.351 67.79 331.207 66.2995 331.207 64.3356C331.207 62.0494 330.099 60.8005 328.638 60.8005C326.896 60.8005 326.05 62.5429 326.05 64.3356Z" fill="#231F20"/>
<path d="M337.743 60.0858C339.838 60.0858 341.057 61.8382 341.057 64.4165C341.057 66.9947 339.707 68.6162 337.793 68.6162C336.726 68.6162 335.769 67.9817 335.124 66.8739V68.4551H334.349V56.9536H335.124V61.949C335.708 60.6901 336.846 60.0757 337.733 60.0757M337.733 60.8009C336.242 60.8009 335.134 62.0598 335.134 64.2956V64.4265C335.134 66.4408 335.99 67.9616 337.733 67.9616C339.475 67.9616 340.291 66.1185 340.291 64.4265C340.291 62.7346 339.475 60.8009 337.733 60.8009Z" fill="#231F20"/>
<path d="M348.267 66.8535C347.653 68.0318 346.706 68.6261 345.719 68.6261C344.188 68.6261 342.949 67.5686 342.949 65.6248V60.3978H343.725V65.4838C343.725 67.1254 344.682 67.9311 345.81 67.9311C347.3 67.9311 348.277 66.4708 348.277 64.8997V60.3877H349.053V68.4649H348.277V66.8535H348.267Z" fill="#231F20"/>
<path d="M356.546 60.3879L353.121 63.9834L357.422 68.4652H356.384L352.195 64.074V68.4652H351.419V56.9536H352.195V63.9028L355.559 60.3879H356.546Z" fill="#231F20"/>
<path d="M369.88 57.3359V64.9902C369.88 67.3368 368.229 68.6259 366.174 68.6259C364.119 68.6259 362.478 67.3468 362.478 64.9902V57.3359H363.253V64.7686C363.253 66.7728 364.452 67.9108 366.174 67.9108C367.987 67.9108 369.095 66.8131 369.095 64.7686V57.3359H369.88Z" fill="#231F20"/>
<path d="M373.083 62.09C373.707 60.68 374.856 60.1462 375.832 60.106V60.9318C375.762 60.9217 375.671 60.9217 375.621 60.9217C374.211 60.9217 373.093 62.2109 373.093 63.6007V68.4652H372.317V60.388H373.093V62.0799L373.083 62.09Z" fill="#231F20"/>
<path d="M380.536 60.0858C382.63 60.0858 383.849 61.8382 383.849 64.4165C383.849 66.9947 382.5 68.6162 380.586 68.6162C379.518 68.6162 378.561 67.9817 377.927 66.8739V68.4551H377.151V56.9536H377.927V61.949C378.511 60.6901 379.649 60.0757 380.536 60.0757M380.515 60.8009C379.025 60.8009 377.917 62.0598 377.917 64.2956V64.4265C377.917 66.4408 378.773 67.9616 380.515 67.9616C382.258 67.9616 383.074 66.1185 383.074 64.4265C383.074 62.7346 382.258 60.8009 380.515 60.8009Z" fill="#231F20"/>
<path d="M386.185 60.8005C386.86 60.3674 387.797 60.0854 388.502 60.0854C389.58 60.0854 390.567 60.7199 390.97 61.6969C391.121 62.0494 391.171 62.563 391.171 63.0867V66.9138C391.171 67.3872 391.171 67.9612 391.302 68.4648H390.516C390.395 68.072 390.335 67.4778 390.335 67.4778C389.801 68.1425 388.854 68.6259 387.746 68.6259C386.498 68.6259 385.229 67.6591 385.229 66.0577C385.229 64.0838 386.598 63.2277 388.905 63.2277C389.227 63.2277 389.68 63.268 390.144 63.3183C390.214 63.3284 390.305 63.3284 390.385 63.3486V63.0867C390.385 61.8076 389.811 60.8106 388.462 60.8106C387.867 60.8106 387.072 61.012 386.488 61.3847L386.185 60.7904V60.8005ZM390.385 63.9528C389.852 63.9126 389.439 63.8823 389.036 63.8823C387.001 63.8823 386.034 64.5873 386.034 66.0678C386.034 67.2865 387.011 67.921 387.938 67.921C389.348 67.921 390.375 66.8937 390.375 65.7758V63.9528H390.385Z" fill="#231F20"/>
<path d="M394.233 61.9587C394.847 60.6998 395.794 60.0854 396.801 60.0854C398.322 60.0854 399.561 61.1732 399.561 63.0968V68.4547H398.785V63.1673C398.785 61.5559 397.828 60.7904 396.71 60.7904C395.21 60.7904 394.233 62.3414 394.233 63.8421V68.4547H393.457V60.3775H394.233V61.9386V61.9587Z" fill="#231F20"/>
<path d="M413.127 68.4648H412.23L409.259 63.6003H406.651V68.4648H405.875V57.3359H409.31C411.082 57.3359 412.674 58.4539 412.674 60.4077C412.674 61.8983 411.727 63.1169 410.085 63.5097L413.127 68.4648ZM409.239 62.9255C410.609 62.9255 411.827 62.1098 411.827 60.4077C411.827 58.7056 410.659 58.0006 409.31 58.0006H406.661V62.9255H409.249H409.239Z" fill="#231F20"/>
<path d="M415.322 60.8005C415.997 60.3674 416.934 60.0854 417.639 60.0854C418.717 60.0854 419.704 60.7199 420.107 61.6969C420.258 62.0494 420.308 62.563 420.308 63.0867V66.9138C420.308 67.3872 420.308 67.9612 420.439 68.4648H419.653C419.532 68.072 419.462 67.4778 419.462 67.4778C418.928 68.1425 417.981 68.6259 416.873 68.6259C415.625 68.6259 414.355 67.6591 414.355 66.0577C414.355 64.0838 415.725 63.2277 418.032 63.2277C418.354 63.2277 418.807 63.268 419.271 63.3183C419.341 63.3284 419.432 63.3284 419.512 63.3486V63.0867C419.512 61.8076 418.938 60.8106 417.589 60.8106C416.994 60.8106 416.199 61.012 415.614 61.3847L415.312 60.7904L415.322 60.8005ZM419.522 63.9528C418.989 63.9126 418.576 63.8823 418.173 63.8823C416.138 63.8823 415.171 64.5873 415.171 66.0678C415.171 67.2865 416.148 67.921 417.075 67.921C418.485 67.921 419.512 66.8937 419.512 65.7758V63.9528H419.522Z" fill="#231F20"/>
<path d="M422.463 56.9536H423.621V58.273H422.463V56.9536ZM422.654 60.3879H423.43V68.4652H422.654V60.3879Z" fill="#231F20"/>
<path d="M426.653 56.9536H425.877V68.4652H426.653V56.9536Z" fill="#231F20"/>
<path d="M435.274 67.3369L437.107 60.3877H437.842L435.656 68.4649H434.911L433.017 61.133L431.124 68.4649H430.389L428.203 60.3877H428.928L430.761 67.3369L432.605 60.3877H433.43L435.274 67.3369Z" fill="#231F20"/>
<path d="M439.765 60.8005C440.45 60.3674 441.377 60.0854 442.082 60.0854C443.16 60.0854 444.147 60.7199 444.55 61.6969C444.701 62.0494 444.751 62.563 444.751 63.0867V66.9138C444.751 67.3872 444.751 67.9612 444.882 68.4648H444.096C443.975 68.072 443.915 67.4778 443.915 67.4778C443.381 68.1425 442.434 68.6259 441.327 68.6259C440.078 68.6259 438.809 67.6591 438.809 66.0577C438.809 64.0838 440.178 63.2277 442.485 63.2277C442.807 63.2277 443.26 63.268 443.724 63.3183C443.794 63.3284 443.885 63.3284 443.965 63.3486V63.0867C443.965 61.8076 443.391 60.8106 442.052 60.8106C441.447 60.8106 440.662 61.012 440.078 61.3847L439.775 60.7904L439.765 60.8005ZM443.955 63.9528C443.422 63.9126 443.009 63.8823 442.606 63.8823C440.571 63.8823 439.604 64.5873 439.604 66.0678C439.604 67.2865 440.581 67.921 441.508 67.921C442.918 67.921 443.945 66.8937 443.945 65.7758V63.9528H443.955Z" fill="#231F20"/>
<path d="M446.322 71.275C447.681 70.852 448.396 70.0866 448.92 68.5557L446.12 60.3979H446.956L449.343 67.599L451.65 60.3979H452.546L450.008 67.881C449.333 69.8852 448.356 71.4563 446.624 72.0102L446.322 71.2851V71.275Z" fill="#231F20"/>
<path d="M465.447 67.609C464.672 68.2032 463.584 68.6262 462.325 68.6262C459.384 68.6262 457.42 66.0882 457.42 62.9057C457.42 59.4814 459.465 57.165 462.254 57.165C463.352 57.165 464.571 57.4974 465.316 57.9607L464.944 58.5549C464.339 58.2225 463.282 57.8902 462.234 57.8902C459.666 57.8902 458.216 60.2066 458.216 62.9057C458.216 65.6048 459.817 67.9212 462.315 67.9212C463.393 67.9212 464.49 67.4579 465.105 67.0349L465.437 67.609H465.447Z" fill="#231F20"/>
<path d="M466.343 64.3456C466.343 61.7774 467.914 60.0854 469.848 60.0854C471.782 60.0854 473.313 61.7774 473.313 64.3456C473.313 66.9138 471.741 68.6259 469.838 68.6259C467.934 68.6259 466.343 66.9742 466.343 64.3456ZM467.128 64.3456C467.128 66.6318 468.377 67.9713 469.828 67.9713C471.278 67.9713 472.537 66.6318 472.537 64.3456C472.537 62.0594 471.308 60.7804 469.848 60.7804C468.387 60.7804 467.128 62.0695 467.128 64.3456Z" fill="#231F20"/>
<path d="M476.425 68.042H475.176V69.4016H476.425V68.042Z" fill="#231F20"/>
<path d="M478.802 68.0117H480.05V69.2303C480.101 70.1972 479.507 71.0533 478.862 71.6072L478.681 71.436C479.073 71.013 479.577 70.308 479.537 69.3814H478.802V68.0218V68.0117Z" fill="#231F20"/>
<path d="M488.36 68.4648H482.468V57.3359H483.243V67.7799H488.36V68.4648Z" fill="#231F20"/>
<path d="M490.555 58.192L491.331 57.8999V60.3875H493.154V61.0724H491.331V66.5512C491.331 67.6187 492.126 67.8806 493.023 67.931V68.6359C491.593 68.5755 490.555 68.1727 490.555 66.6217V61.0724H489.316V60.3875H490.555V58.1819V58.192Z" fill="#231F20"/>
<path d="M500.174 61.9588V56.9634H500.949V68.4749H500.174V66.8937C499.529 67.9915 498.572 68.6361 497.505 68.6361C495.581 68.6361 494.241 67.075 494.241 64.4363C494.241 61.7976 495.47 60.1056 497.555 60.1056C498.451 60.1056 499.579 60.7099 500.163 61.9789M495.017 64.4162C495.017 66.1082 495.833 67.9512 497.575 67.9512C499.317 67.9512 500.174 66.4304 500.174 64.4162V64.2852C500.174 62.0494 499.066 60.7905 497.575 60.7905C495.833 60.7905 495.017 62.6436 495.017 64.4162Z" fill="#231F20"/>
<path d="M504.625 68.042H503.376V69.4016H504.625V68.042Z" fill="#231F20"/>
</g>
<defs>
<clipPath id="clip0_64_3205">
<rect width="565.969" height="72" fill="white"/>
</clipPath>
</defs>
</svg>
