<svg width="60" height="100" viewBox="0 0 60 100" fill="none" xmlns="http://www.w3.org/2000/svg">
<path d="M44.2289 68.6084V86.7902H12.7275V68.6084" stroke="#808285" stroke-width="0.38" stroke-dasharray="1.44 1.44"/>
<path d="M16.2508 99.8539V92.6373L15.0947 93.7484L14.8613 93.4342L16.3175 92.0312H16.7176V99.8539H16.2508Z" fill="#414042"/>
<path d="M19.2744 96.0272C19.2744 94.3886 19.6968 91.9307 21.4642 91.9307C23.2315 91.9307 23.6873 94.1753 23.6873 95.9935C23.6873 97.6882 23.1871 100 21.4642 100C19.7413 100 19.2744 97.6658 19.2744 96.0272ZM19.719 96.0272C19.719 97.2505 20.0525 99.5738 21.4642 99.5738C22.8758 99.5738 23.2204 97.273 23.2204 96.0047C23.2204 94.7365 22.9092 92.3796 21.453 92.3796C19.9969 92.3796 19.7079 94.7028 19.7079 96.0384" fill="#414042"/>
<path d="M27.9776 95.1629C28.4 94.2201 28.9224 94.0181 29.4782 94.0181C30.2007 94.0181 30.7787 94.5568 31.001 95.3649C31.3234 94.3997 32.0125 94.0181 32.6017 94.0181C33.5131 94.0181 34.2579 94.6915 34.2579 95.9709V99.8542H33.8021V95.8924C33.8021 94.9384 33.2464 94.4333 32.5016 94.4333C31.8458 94.4333 31.1233 95.0731 31.1233 96.2852V99.843H30.6676V95.9934C30.6676 94.9608 30.0562 94.4221 29.367 94.4221C28.6112 94.4221 27.9665 95.1741 27.9665 96.2627V99.843H27.5107V94.2089H27.9665V95.1516L27.9776 95.1629Z" fill="#414042"/>
<path d="M36.2588 95.1629C36.6812 94.2201 37.2037 94.0181 37.7594 94.0181C38.4819 94.0181 39.06 94.5568 39.2823 95.3649C39.6046 94.3997 40.2938 94.0181 40.8829 94.0181C41.7944 94.0181 42.5391 94.6915 42.5391 95.9709V99.8542H42.0834V95.8924C42.0834 94.9384 41.5276 94.4333 40.7829 94.4333C40.127 94.4333 39.4045 95.0731 39.4045 96.2852V99.843H38.9488V95.9934C38.9488 94.9608 38.3374 94.4221 37.6483 94.4221C36.8924 94.4221 36.2477 95.1741 36.2477 96.2627V99.843H35.792V94.2089H36.2477V95.1516L36.2588 95.1629Z" fill="#414042"/>
<path d="M42.4398 19.8989V43.8608H38.516L20.1754 26.8013V43.8944H14.5176V19.8765L20.6533 19.8989L36.782 34.4556V19.8989H42.4398Z" fill="#231F20"/>
<path d="M45.3958 6.9248C42.1279 7.4972 39.6047 10.3928 39.6047 13.8496C39.6047 10.3816 37.0814 7.48597 33.8135 6.9248C37.0814 6.36364 39.6047 3.46801 39.6047 0C39.6047 3.45679 42.1168 6.35241 45.3958 6.9248Z" fill="#9E1954"/>
<path d="M6.55817 56.7003H0V56.2177H2.97897V55.2637H0.933717V53.0078H5.64669V53.4904H1.5006V54.7923H5.73561V55.2637H3.56809V56.2177H6.55817V56.7003ZM5.74674 58.6419C5.74674 59.4051 4.95754 60 3.27909 60C1.60065 60 0.833664 59.3939 0.833664 58.6419C0.833664 57.89 1.634 57.2727 3.27909 57.2727C4.92419 57.2727 5.74674 57.8563 5.74674 58.6419ZM3.26797 57.7328C2.11195 57.7328 1.43391 58.1032 1.43391 58.6419C1.43391 59.1807 2.11195 59.551 3.26797 59.551C4.42398 59.551 5.12426 59.1919 5.12426 58.6419C5.12426 58.092 4.4351 57.7328 3.26797 57.7328Z" fill="#231F20"/>
<path d="M13.4169 56.8124H10.438V57.6991H12.5055V59.9213H11.9386V58.1817H7.67021V57.7103H9.83773V56.8237H6.84766V56.3523H13.3947V56.8237L13.4169 56.8124ZM7.8147 55.5554V52.8843H8.37048V53.7485H11.8941V52.8843H12.4388V55.5554H7.80359H7.8147ZM11.9052 54.2086H8.3816V55.0728H11.9052V54.2086Z" fill="#231F20"/>
<path d="M17.7295 56.7563C17.0848 56.4982 16.1955 55.9482 15.8732 55.2524C15.562 56.0604 14.7616 56.5655 14.0391 56.9359L13.7168 56.5655C14.6283 56.1053 15.5731 55.4993 15.5731 54.3321V53.075H16.1622V54.3321C16.1622 55.4656 17.1293 56.0043 17.9852 56.341L17.7295 56.7787V56.7563ZM19.7636 59.7642H15.0951V57.4858H15.6731V59.2928H19.7636V59.7754V59.7642ZM19.5969 57.8001H19.0411V54.8147H17.5072V54.3321H19.0411V52.8281H19.5969V57.8001Z" fill="#231F20"/>
<path d="M24.1433 57.0147V58.2605H27.1333V58.7319H20.5752V58.2605H23.5653V57.0147H24.1433ZM21.4978 56.5096V53.2212H26.233V53.6926H22.0647V56.0383H26.333V56.5096H21.5089H21.4978Z" fill="#231F20"/>
<path d="M29.8784 53.1424V55.0616C29.8784 56.2737 30.8121 57.1379 31.7458 57.598L31.4568 58.047C30.8565 57.6991 29.9673 57.093 29.5671 56.1278C29.2114 57.1154 28.4334 57.7215 27.6442 58.2153L27.2773 57.8113C28.3333 57.2165 29.2781 56.3074 29.2781 55.0391V53.1536H29.8673L29.8784 53.1424ZM33.2353 59.8764H32.6795V52.8281H33.2353V59.8764Z" fill="#231F20"/>
<path d="M36.8037 53.4458H38.3599V53.9059H36.8037V53.9284C36.8037 55.0507 37.7263 55.5894 38.5822 55.9373L38.3265 56.3526C37.6818 56.1057 36.837 55.5557 36.5147 54.8599C36.2034 55.668 35.4365 56.1618 34.714 56.521L34.3916 56.1506C35.3031 55.6904 36.2257 55.0844 36.2257 53.9171V53.8947H34.6695V53.4345H36.2257V52.604H36.8037V53.4345V53.4458ZM40.3273 59.9216H35.6143V58.1932H39.5603V57.3627H35.6143V56.9025H40.1495V58.6309H36.2034V59.4615H40.3273V59.9104V59.9216ZM40.1606 56.521H39.6048V54.9048H38.2153V54.4334H39.6048V52.8173H40.1606V56.5097V56.521Z" fill="#231F20"/>
<path d="M44.7067 57.0147V58.2605H47.6968V58.7319H41.1387V58.2605H44.1176V57.0147H44.6956H44.7067ZM42.0724 56.5096V53.2212H46.7965V53.6926H42.6281V56.0383H46.8965V56.5096H42.0724Z" fill="#231F20"/>
<path d="M49.8869 60.0226C49.1088 58.8666 48.6309 57.4636 48.6309 56.2403C48.6309 55.017 49.1088 53.6477 49.8869 52.4917H50.2982C49.5757 53.7038 49.1978 55.0057 49.1978 56.2627C49.1978 57.5198 49.5757 58.8104 50.2982 60.0226H49.8869Z" fill="#231F20"/>
<path d="M57.4679 57.2166H54.4779V59.8766H53.8999V57.2166H50.9209V56.7453H57.479V57.2166H57.4679ZM51.4322 55.5556C52.4326 55.3423 53.8776 54.6016 53.8776 53.7037V53.6027H51.799V53.1201H56.5676V53.6027H54.5001V53.7037C54.5001 54.5567 55.9007 55.3087 56.9455 55.5556L56.6787 55.9933C55.7117 55.7576 54.6779 55.1403 54.1888 54.4332C53.6553 55.2077 52.6216 55.78 51.699 55.9933L51.4322 55.5556Z" fill="#231F20"/>
<path d="M58.1123 60.0226C58.8348 58.8104 59.2127 57.5422 59.2127 56.274C59.2127 55.0057 58.8348 53.6926 58.1123 52.4805H58.5347C59.3128 53.6365 59.7796 55.0394 59.7796 56.2515C59.7796 57.4636 59.3017 58.8553 58.5347 60.0113H58.1123V60.0226Z" fill="#231F20"/>
</svg>
