<svg width="538" height="90" viewBox="0 0 538 90" fill="none" xmlns="http://www.w3.org/2000/svg">
<g clip-path="url(#clip0_64_3114)">
<path d="M57.8418 40.824V89.9332H49.6992L11.7184 54.9585V90.0001H0V40.7705L12.7094 40.824L46.1235 70.6456V40.824H57.8418Z" fill="#231F20"/>
<path d="M63.9753 14.188C57.1988 15.3525 51.9891 21.2954 51.9891 28.4027C51.9891 21.2954 46.7661 15.3525 40.0029 14.188C46.7661 13.0369 51.9891 7.09399 51.9891 0C51.9891 7.09399 57.1988 13.0369 63.9753 14.188Z" fill="#9E1954"/>
<path d="M87.1045 82.2503H71.6631V81.1394H78.6941V78.9041H73.8862V73.6572H84.9751V74.7816H75.1987V77.8199H85.176V78.9175H80.0601V81.1528H87.1045V82.2637V82.2503ZM85.1894 86.7878C85.1894 88.5546 83.3279 89.96 79.3637 89.96C75.3996 89.96 73.5916 88.5546 73.5916 86.7878C73.5916 85.021 75.4799 83.5888 79.3637 83.5888C83.2475 83.5888 85.1894 84.9541 85.1894 86.7878ZM79.3771 84.6462C76.6585 84.6462 75.0514 85.5162 75.0514 86.7744C75.0514 88.0326 76.6585 88.9026 79.3771 88.9026C82.0958 88.9026 83.743 88.0728 83.743 86.7744C83.743 85.4761 82.1092 84.6462 79.3771 84.6462Z" fill="#231F20"/>
<path d="M103.256 82.5178H96.2249V84.5924H101.1V89.759H99.7739V85.7034H89.7296V84.6058H94.8455V82.5312H87.8145V81.4336H103.256V82.5312V82.5178ZM90.0778 79.5731V73.3491H91.3902V75.3702H99.6935V73.3491H100.993V79.5731H90.0778ZM99.6935 76.4544H91.3902V78.4755H99.6935V76.4544Z" fill="#231F20"/>
<path d="M113.434 82.3974C111.907 81.795 109.818 80.5101 109.054 78.8905C108.304 80.7912 106.429 81.9557 104.728 82.8123L103.979 81.9423C106.121 80.8715 108.358 79.4527 108.358 76.7222V73.7775H109.737V76.7088C109.737 79.3456 112.014 80.5904 114.036 81.3935L113.434 82.4108V82.3974ZM118.201 89.3977H107.219V84.0705H108.572V88.2733H118.201V89.3843V89.3977ZM117.813 84.82H116.5V77.8465H112.898V76.7222H116.5V73.2153H117.813V84.8066V84.82Z" fill="#231F20"/>
<path d="M128.513 82.973V85.8775H135.558V86.9751H120.116V85.8775H127.147V82.973H128.513ZM122.299 81.8085V74.1523H133.442V75.2499H123.612V80.7109H133.656V81.8085H122.299Z" fill="#231F20"/>
<path d="M142.04 73.9647V78.4352C142.026 81.2594 144.236 83.2806 146.446 84.338L145.776 85.382C144.357 84.5789 142.281 83.1601 141.343 80.9114C140.513 83.2136 138.665 84.6324 136.803 85.7702L135.946 84.8332C138.437 83.4546 140.66 81.3264 140.66 78.3549V73.9513H142.04V73.9647ZM149.928 89.6652H148.616V73.2285H149.928V89.6652Z" fill="#231F20"/>
<path d="M158.352 74.6608H162.008V75.7182H158.352V75.7584C158.352 78.3818 160.522 79.6266 162.544 80.4431L161.941 81.4202C160.441 80.8313 158.432 79.5597 157.669 77.9401C156.946 79.814 155.138 80.9785 153.424 81.8217L152.66 80.9651C154.803 79.9077 156.986 78.4755 156.986 75.7718V75.7182H153.316V74.6608H156.986V72.7334H158.352V74.6608ZM166.628 89.7456H155.54V85.7167H164.834V83.7893H155.54V82.7185H166.227V86.7474H156.932V88.7016H166.642V89.7456H166.628ZM166.267 81.8351H164.954V78.074H161.687V76.9764H164.954V73.2153H166.267V81.8351Z" fill="#231F20"/>
<path d="M176.967 82.973V85.8775H184.012V86.9751H168.57V85.8775H175.601V82.973H176.967ZM170.753 81.8085V74.1523H181.896V75.2499H172.066V80.7109H182.11V81.8085H170.753Z" fill="#231F20"/>
<path d="M189.154 90.0002C187.306 87.3099 186.194 84.0306 186.194 81.193C186.194 78.3554 187.306 75.143 189.154 72.4526H190.132C188.431 75.2768 187.547 78.3018 187.547 81.2331C187.547 84.1644 188.431 87.176 190.132 90.0136H189.154V90.0002Z" fill="#231F20"/>
<path d="M207.033 83.4548H199.989V89.6654H198.623V83.4548H191.592V82.3573H207.033V83.4548ZM192.797 79.5732C195.154 79.078 198.569 77.338 198.569 75.2633V75.0358H193.668V73.9248H204.904V75.0358H200.029V75.2633C200.029 77.271 203.324 79.0244 205.788 79.5732L205.172 80.6039C202.882 80.0551 200.458 78.6229 199.306 76.9632C198.047 78.7701 195.61 80.0952 193.427 80.6039L192.811 79.5732H192.797Z" fill="#231F20"/>
<path d="M208.533 90.0001C210.234 87.1625 211.118 84.2179 211.118 81.2598C211.118 78.3017 210.234 75.25 208.533 72.4258H209.524C211.359 75.1161 212.471 78.3821 212.471 81.2197C212.471 84.0572 211.359 87.2964 209.524 90.0001H208.533Z" fill="#231F20"/>
<path d="M531.867 40.824V89.9332H523.737L485.743 54.9585V90.0001H474.038V40.7705L486.734 40.824L520.148 70.6456V40.824H531.867Z" fill="#231F20"/>
<path d="M538 14.188C531.223 15.3525 526.014 21.2954 526.014 28.4027C526.014 21.2954 520.791 15.3525 514.027 14.188C520.791 13.0369 526.014 7.09399 526.014 0C526.014 7.09399 531.223 13.0369 538 14.188Z" fill="#9E1954"/>
<path d="M336.939 82.2503H321.498V81.1394H328.529V78.9041H323.721V73.6572H334.81V74.7816H325.034V77.8199H335.011V78.9175H329.895V81.1528H336.939V82.2637V82.2503ZM335.024 86.7878C335.024 88.5546 333.163 89.96 329.199 89.96C325.235 89.96 323.427 88.5546 323.427 86.7878C323.427 85.021 325.301 83.5888 329.199 83.5888C333.096 83.5888 335.024 84.9541 335.024 86.7878ZM329.212 84.6462C326.493 84.6462 324.886 85.5162 324.886 86.7744C324.886 88.0326 326.507 88.9026 329.212 88.9026C331.917 88.9026 333.578 88.0728 333.578 86.7744C333.578 85.4761 331.944 84.6462 329.212 84.6462Z" fill="#231F20"/>
<path d="M353.091 82.5178H346.06V84.5924H350.935V89.759H349.609V85.7034H339.565V84.6058H344.68V82.5312H337.649V81.4336H353.091V82.5312V82.5178ZM339.913 79.5731V73.3491H341.225V75.3702H349.528V73.3491H350.828V79.5731H339.913ZM349.528 76.4544H341.225V78.4755H349.528V76.4544Z" fill="#231F20"/>
<path d="M363.269 82.3974C361.743 81.795 359.654 80.5101 358.89 78.8905C358.14 80.7912 356.265 81.9557 354.564 82.8123L353.814 81.9423C355.957 80.8715 358.194 79.4527 358.194 76.7222V73.7775H359.573V76.7088C359.573 79.3456 361.85 80.5904 363.872 81.3935L363.269 82.4108V82.3974ZM368.037 89.3977H357.055V84.0705H358.408V88.2733H368.037V89.3843V89.3977ZM367.649 84.82H366.336V77.8465H362.734V76.7222H366.336V73.2153H367.649V84.8066V84.82Z" fill="#231F20"/>
<path d="M378.349 82.973V85.8775H385.394V86.9751H369.952V85.8775H376.983V82.973H378.349ZM372.135 81.8085V74.1523H383.278V75.2499H373.448V80.7109H383.492V81.8085H372.135Z" fill="#231F20"/>
<path d="M391.876 73.9647V78.4352C391.862 81.2594 394.072 83.2806 396.282 84.338L395.612 85.382C394.193 84.5789 392.117 83.1601 391.179 80.9114C390.349 83.2136 388.501 84.6324 386.639 85.7702L385.782 84.8332C388.26 83.4546 390.496 81.3264 390.496 78.3549V73.9513H391.876V73.9647ZM399.764 89.6652H398.451V73.2285H399.764V89.6652Z" fill="#231F20"/>
<path d="M408.187 74.6608H411.843V75.7182H408.187V75.7584C408.187 78.3818 410.356 79.6266 412.379 80.4431L411.776 81.4202C410.263 80.8313 408.267 79.5597 407.504 77.9401C406.781 79.814 404.973 80.9785 403.258 81.8217L402.495 80.9651C404.638 79.9077 406.821 78.4755 406.821 75.7718V75.7182H403.151V74.6608H406.821V72.7334H408.187V74.6608ZM416.463 89.7456H405.374V85.7167H414.669V83.7893H405.374V82.7185H416.062V86.7474H406.767V88.7016H416.477V89.7456H416.463ZM416.102 81.8351H414.789V78.074H411.522V76.9764H414.789V73.2153H416.102V81.8351Z" fill="#231F20"/>
<path d="M426.803 82.973V85.8775H433.848V86.9751H418.406V85.8775H425.437V82.973H426.803ZM420.589 81.8085V74.1523H431.732V75.2499H421.902V80.7109H431.946V81.8085H420.589Z" fill="#231F20"/>
<path d="M438.99 90.0002C437.142 87.3099 436.03 84.0306 436.03 81.193C436.03 78.3554 437.155 75.143 438.99 72.4526H439.968C438.267 75.2768 437.383 78.3018 437.383 81.2331C437.383 84.1644 438.267 87.176 439.968 90.0136H438.99V90.0002Z" fill="#231F20"/>
<path d="M456.869 83.4548H449.825V89.6654H448.459V83.4548H441.428V82.3573H456.869V83.4548ZM442.633 79.5732C444.99 79.078 448.405 77.338 448.405 75.2633V75.0358H443.504V73.9248H454.74V75.0358H449.865V75.2633C449.865 77.271 453.159 79.0244 455.624 79.5732L455.008 80.6039C452.718 80.0551 450.294 78.6229 449.142 76.9632C447.883 78.7701 445.445 80.0952 443.263 80.6039L442.646 79.5732H442.633Z" fill="#231F20"/>
<path d="M458.369 90.0001C460.07 87.1625 460.954 84.2179 460.954 81.2598C460.954 78.3017 460.07 75.25 458.369 72.4258H459.36C461.195 75.1161 462.307 78.3821 462.307 81.2197C462.307 84.0572 461.195 87.2964 459.36 90.0001H458.369Z" fill="#231F20"/>
</g>
<defs>
<clipPath id="clip0_64_3114">
<rect width="538" height="90" fill="white"/>
</clipPath>
</defs>
</svg>
