<svg width="427" height="160" viewBox="0 0 427 160" fill="none" xmlns="http://www.w3.org/2000/svg">
<g clip-path="url(#clip0_64_3143)">
<path d="M169.69 55.0377V121.27H158.682L107.336 74.1132V121.355H91.4941V54.9746L108.666 55.0377L153.838 95.2508V55.0377H169.69Z" fill="#231F20"/>
<path d="M177.974 19.1386C168.803 20.7168 161.763 28.7131 161.763 38.2982C161.763 28.7131 154.713 20.7063 145.562 19.1386C154.713 17.5814 161.763 9.56402 161.763 0C161.763 9.56402 168.813 17.5814 177.974 19.1386Z" fill="#9E1954"/>
<path d="M4.17945 140.83C7.9895 140.83 10.3536 143.818 10.3536 148.121C10.3536 152.025 7.93673 155.381 4.17945 155.381H0V140.83H4.17945ZM4.0528 154.487C7.41957 154.487 9.29821 151.53 9.29821 148.1C9.29821 144.155 7.25071 141.693 4.0528 141.693H1.0132V154.476H4.0528V154.487Z" fill="#231F20"/>
<path d="M12.2742 149.994C12.2742 146.638 14.3323 144.428 16.8653 144.428C19.3983 144.428 21.4036 146.648 21.4036 149.994C21.4036 153.34 19.3455 155.581 16.8442 155.581C14.3428 155.581 12.2637 153.424 12.2637 149.994M13.298 149.994C13.298 152.993 14.9444 154.729 16.8442 154.729C18.7439 154.729 20.3904 152.982 20.3904 149.994C20.3904 147.006 18.7861 145.333 16.8547 145.333C14.9233 145.333 13.2874 147.016 13.2874 149.994" fill="#231F20"/>
<path d="M24.8335 146.869C25.6356 145.217 26.881 144.428 28.2003 144.428C30.195 144.428 31.8204 145.849 31.8204 148.374V155.381H30.8072V148.468C30.8072 146.364 29.5512 145.365 28.0842 145.365C26.1106 145.365 24.8335 147.385 24.8335 149.363V155.392H23.8203V144.839H24.8335V146.88V146.869Z" fill="#231F20"/>
<path d="M42.0478 146.911V144.828H43.061V154.75C43.061 158.485 40.7918 159.905 38.6282 159.905C37.5306 159.905 36.2852 159.505 35.2509 158.979L35.673 158.106C36.4963 158.58 37.6467 158.958 38.5965 158.958C40.433 158.958 42.0583 157.706 42.0583 154.718V153.161C41.309 154.602 39.958 155.392 38.5965 155.392C36.1374 155.392 34.2588 153.445 34.2588 150.015C34.2588 146.585 35.958 144.428 38.6071 144.428C39.747 144.428 41.2456 145.186 42.0478 146.911ZM35.2825 149.973C35.2825 152.204 36.4329 154.487 38.6704 154.487C40.9079 154.487 42.0478 152.54 42.0478 149.973C42.0478 146.985 40.6018 145.354 38.6704 145.354C36.3802 145.354 35.2825 147.627 35.2825 149.973Z" fill="#231F20"/>
<path d="M50.6279 144.428C53.372 144.428 54.9762 146.722 54.9762 150.089C54.9762 153.456 53.2136 155.581 50.6912 155.581C49.298 155.581 48.0316 154.75 47.1978 153.308V155.37H46.1846V140.325H47.1978V146.859C47.9682 145.207 49.4564 144.418 50.6279 144.418M50.6173 145.354C48.6648 145.354 47.2083 147.006 47.2083 149.92V150.089C47.2083 152.719 48.3271 154.708 50.6173 154.708C52.9076 154.708 53.9735 152.298 53.9735 150.089C53.9735 147.879 52.9076 145.354 50.6173 145.354Z" fill="#231F20"/>
<path d="M64.4228 153.277C63.6207 154.813 62.3753 155.592 61.0877 155.592C59.0824 155.592 57.457 154.213 57.457 151.667V144.828H58.4702V151.478C58.4702 153.614 59.7262 154.676 61.1932 154.676C63.1563 154.676 64.4228 152.761 64.4228 150.72V144.828H65.436V155.381H64.4228V153.277Z" fill="#231F20"/>
<path d="M75.2722 144.828L70.7867 149.521L76.4332 155.371H75.0611L69.5835 149.636V155.371H68.5703V140.335H69.5835V149.405L73.9846 144.828H75.2722Z" fill="#231F20"/>
<path d="M92.7707 140.83V150.836C92.7707 153.908 90.6071 155.592 87.9158 155.592C85.2245 155.592 83.082 153.929 83.082 150.836V140.83H84.0952V150.552C84.0952 153.172 85.6678 154.666 87.9264 154.666C90.3011 154.666 91.747 153.224 91.747 150.552V140.83H92.7813H92.7707Z" fill="#231F20"/>
<path d="M96.9614 147.038C97.7847 145.197 99.2834 144.502 100.56 144.439V145.523C100.476 145.502 100.349 145.502 100.286 145.502C98.4285 145.502 96.9614 147.185 96.9614 149.005V155.371H95.9482V144.818H96.9614V147.038Z" fill="#231F20"/>
<path d="M106.734 144.428C109.479 144.428 111.083 146.722 111.083 150.089C111.083 153.456 109.32 155.581 106.808 155.581C105.405 155.581 104.149 154.75 103.315 153.308V155.37H102.302V140.325H103.315V146.859C104.085 145.207 105.563 144.418 106.745 144.418M106.713 145.354C104.761 145.354 103.304 147.006 103.304 149.92V150.089C103.304 152.719 104.423 154.708 106.713 154.708C109.004 154.708 110.07 152.298 110.07 150.089C110.07 147.879 109.004 145.354 106.713 145.354Z" fill="#231F20"/>
<path d="M114.144 145.354C115.041 144.786 116.254 144.428 117.183 144.428C118.597 144.428 119.896 145.259 120.413 146.533C120.603 146.985 120.677 147.669 120.677 148.353V153.35C120.677 153.982 120.677 154.718 120.856 155.381H119.822C119.663 154.866 119.579 154.087 119.579 154.087C118.882 154.96 117.637 155.581 116.191 155.581C114.545 155.581 112.888 154.308 112.888 152.225C112.888 149.647 114.682 148.532 117.711 148.532C118.133 148.532 118.724 148.584 119.336 148.647C119.421 148.668 119.547 148.668 119.653 148.689V148.353C119.653 146.69 118.904 145.375 117.13 145.375C116.349 145.375 115.315 145.638 114.545 146.133L114.144 145.354ZM119.653 149.489C118.956 149.436 118.408 149.394 117.89 149.394C115.22 149.394 113.964 150.32 113.964 152.256C113.964 153.845 115.241 154.676 116.466 154.676C118.323 154.676 119.663 153.329 119.663 151.867V149.479L119.653 149.489Z" fill="#231F20"/>
<path d="M124.698 146.869C125.5 145.217 126.745 144.428 128.065 144.428C130.059 144.428 131.685 145.849 131.685 148.374V155.381H130.671V148.468C130.671 146.364 129.415 145.365 127.948 145.365C125.975 145.365 124.698 147.385 124.698 149.363V155.392H123.685V144.839H124.698V146.88V146.869Z" fill="#231F20"/>
<path d="M149.478 155.381H148.307L144.412 149.016H140.993V155.381H139.979V140.83H144.486C146.808 140.83 148.887 142.293 148.887 144.849C148.887 146.806 147.642 148.395 145.499 148.9L149.478 155.381ZM144.381 148.142C146.175 148.142 147.768 147.08 147.768 144.849C147.768 142.619 146.228 141.703 144.465 141.703H140.993V148.142H144.381Z" fill="#231F20"/>
<path d="M152.35 145.354C153.247 144.786 154.461 144.428 155.389 144.428C156.804 144.428 158.102 145.259 158.619 146.533C158.809 146.985 158.883 147.669 158.883 148.353V153.35C158.883 153.982 158.883 154.718 159.062 155.381H158.028C157.87 154.866 157.785 154.087 157.785 154.087C157.089 154.96 155.843 155.581 154.397 155.581C152.751 155.581 151.094 154.308 151.094 152.225C151.094 149.647 152.888 148.532 155.917 148.532C156.339 148.532 156.93 148.584 157.542 148.647C157.627 148.668 157.753 148.668 157.859 148.689V148.353C157.859 146.69 157.11 145.375 155.337 145.375C154.556 145.375 153.521 145.638 152.751 146.133L152.35 145.354ZM157.859 149.489C157.162 149.436 156.614 149.394 156.096 149.394C153.426 149.394 152.17 150.32 152.17 152.256C152.17 153.845 153.447 154.676 154.672 154.676C156.529 154.676 157.87 153.329 157.87 151.867V149.479L157.859 149.489Z" fill="#231F20"/>
<path d="M161.722 140.335H163.241V142.061H161.722V140.335ZM161.964 144.828H162.978V155.381H161.964V144.828Z" fill="#231F20"/>
<path d="M167.209 140.335H166.196V155.381H167.209V140.335Z" fill="#231F20"/>
<path d="M178.513 153.898L180.919 144.828H181.88L179.019 155.371H178.038L175.558 145.786L173.077 155.371H172.117L169.257 144.828H170.196L172.603 153.898L175.019 144.828H176.096L178.513 153.898Z" fill="#231F20"/>
<path d="M184.402 145.354C185.3 144.786 186.513 144.428 187.442 144.428C188.856 144.428 190.154 145.259 190.672 146.533C190.862 146.985 190.935 147.669 190.935 148.353V153.35C190.935 153.982 190.935 154.718 191.115 155.381H190.081C189.922 154.866 189.838 154.087 189.838 154.087C189.141 154.96 187.896 155.581 186.45 155.581C184.803 155.581 183.146 154.308 183.146 152.225C183.146 149.647 184.941 148.532 187.97 148.532C188.392 148.532 188.983 148.584 189.595 148.647C189.68 148.668 189.806 148.668 189.912 148.689V148.353C189.912 146.69 189.162 145.375 187.389 145.375C186.608 145.375 185.574 145.638 184.803 146.133L184.402 145.354ZM189.912 149.489C189.215 149.436 188.666 149.394 188.149 149.394C185.479 149.394 184.212 150.32 184.212 152.256C184.212 153.845 185.49 154.676 186.714 154.676C188.571 154.676 189.912 153.329 189.912 151.867V149.479V149.489Z" fill="#231F20"/>
<path d="M193.004 159.053C194.788 158.506 195.727 157.496 196.413 155.497L192.74 144.828H193.838L196.962 154.245L199.98 144.828H201.152L197.827 154.603C196.941 157.212 195.664 159.285 193.395 160L192.994 159.053H193.004Z" fill="#231F20"/>
<path d="M218.08 154.255C217.067 155.034 215.632 155.581 213.985 155.581C210.122 155.581 207.558 152.267 207.558 148.1C207.558 143.629 210.228 140.599 213.901 140.599C215.336 140.599 216.94 141.03 217.922 141.64L217.436 142.419C216.655 141.987 215.252 141.546 213.89 141.546C210.523 141.546 208.613 144.576 208.613 148.1C208.613 151.625 210.713 154.655 213.996 154.655C215.41 154.655 216.845 154.045 217.647 153.498L218.08 154.255Z" fill="#231F20"/>
<path d="M219.252 149.994C219.252 146.638 221.31 144.428 223.843 144.428C226.376 144.428 228.381 146.648 228.381 149.994C228.381 153.34 226.323 155.581 223.822 155.581C221.32 155.581 219.241 153.424 219.241 149.994M220.286 149.994C220.286 152.993 221.933 154.729 223.832 154.729C225.732 154.729 227.378 152.982 227.378 149.994C227.378 147.006 225.774 145.333 223.853 145.333C221.933 145.333 220.286 147.016 220.286 149.994Z" fill="#231F20"/>
<path d="M232.487 154.823H230.841V156.601H232.487V154.823Z" fill="#231F20"/>
<path d="M235.601 154.792H237.247V156.381C237.321 157.654 236.53 158.769 235.696 159.484L235.453 159.253C235.981 158.706 236.625 157.78 236.572 156.559H235.611V154.781L235.601 154.792Z" fill="#231F20"/>
<path d="M248.128 155.381H240.402V140.83H241.416V154.487H248.128V155.381Z" fill="#231F20"/>
<path d="M251.009 141.945L252.022 141.566V144.828H254.418V145.722H252.022V152.888C252.022 154.287 253.067 154.634 254.239 154.687V155.613C252.371 155.539 251.009 155.002 251.009 152.982V145.722H249.384V144.828H251.009V141.945Z" fill="#231F20"/>
<path d="M263.632 146.869V140.335H264.645V155.371H263.632V153.308C262.798 154.75 261.532 155.581 260.139 155.581C257.627 155.581 255.854 153.529 255.854 150.089C255.854 146.648 257.458 144.428 260.202 144.428C261.373 144.428 262.861 145.228 263.621 146.869M256.867 150.089C256.867 152.309 257.933 154.708 260.223 154.708C262.513 154.708 263.632 152.719 263.632 150.089V149.921C263.632 147.006 262.186 145.354 260.223 145.354C257.933 145.354 256.867 147.774 256.867 150.089Z" fill="#231F20"/>
<path d="M269.469 154.823H267.822V156.601H269.469V154.823Z" fill="#231F20"/>
<path d="M422.008 77.8902V117.756H415.391L384.478 89.3692V117.809H374.947V77.8481L385.28 77.8902L412.467 102.1V77.8902H422.008Z" fill="#231F20"/>
<path d="M427 56.2793C421.48 57.2262 417.248 62.0451 417.248 67.8108C417.248 62.0451 413.005 57.2262 407.496 56.2793C413.005 55.3429 417.248 50.5135 417.248 44.7583C417.248 50.5135 421.491 55.3324 427 56.2793Z" fill="#9E1954"/>
<path d="M375.2 125.29C375.907 125.29 376.35 125.847 376.35 126.647C376.35 127.373 375.907 128.004 375.2 128.004H374.419V125.29H375.2ZM375.179 127.825C375.802 127.825 376.15 127.278 376.15 126.636C376.15 125.9 375.77 125.437 375.179 125.437H374.609V127.815H375.179V127.825Z" fill="#231F20"/>
<path d="M376.71 126.994C376.71 126.373 377.09 125.953 377.565 125.953C378.04 125.953 378.409 126.363 378.409 126.994C378.409 127.626 378.029 128.036 377.554 128.036C377.079 128.036 376.699 127.636 376.699 126.994M376.91 126.994C376.91 127.552 377.216 127.878 377.575 127.878C377.934 127.878 378.24 127.552 378.24 126.994C378.24 126.437 377.945 126.131 377.586 126.131C377.227 126.131 376.921 126.447 376.921 126.994" fill="#231F20"/>
<path d="M379.052 126.415C379.2 126.11 379.432 125.963 379.686 125.963C380.055 125.963 380.361 126.226 380.361 126.699V128.004H380.171V126.71C380.171 126.321 379.939 126.131 379.665 126.131C379.295 126.131 379.063 126.51 379.063 126.878V128.004H378.873V126.037H379.063V126.415H379.052Z" fill="#231F20"/>
<path d="M382.261 126.415V126.026H382.451V127.878C382.451 128.572 382.029 128.835 381.628 128.835C381.427 128.835 381.195 128.762 380.995 128.656L381.069 128.499C381.227 128.583 381.438 128.656 381.617 128.656C381.955 128.656 382.261 128.425 382.261 127.867V127.583C382.124 127.857 381.871 128.004 381.617 128.004C381.153 128.004 380.805 127.636 380.805 127.005C380.805 126.373 381.121 125.963 381.617 125.963C381.828 125.963 382.113 126.1 382.261 126.426M381.005 126.994C381.005 127.415 381.216 127.836 381.638 127.836C382.061 127.836 382.261 127.467 382.261 126.994C382.261 126.436 381.987 126.131 381.638 126.131C381.216 126.131 381.005 126.552 381.005 126.994Z" fill="#231F20"/>
<path d="M383.865 125.952C384.372 125.952 384.678 126.384 384.678 127.005C384.678 127.625 384.351 128.025 383.886 128.025C383.622 128.025 383.39 127.867 383.232 127.604V127.994H383.042V125.195H383.232V126.415C383.38 126.11 383.654 125.963 383.865 125.963M383.855 126.131C383.485 126.131 383.221 126.436 383.221 126.983V127.015C383.221 127.51 383.433 127.878 383.855 127.878C384.277 127.878 384.477 127.425 384.477 127.015C384.477 126.605 384.277 126.131 383.855 126.131Z" fill="#231F20"/>
<path d="M386.43 127.604C386.282 127.888 386.05 128.036 385.807 128.036C385.438 128.036 385.132 127.783 385.132 127.31V126.037H385.322V127.278C385.322 127.678 385.554 127.878 385.828 127.878C386.187 127.878 386.43 127.52 386.43 127.141V126.047H386.62V128.015H386.43V127.625V127.604Z" fill="#231F20"/>
<path d="M388.446 126.026L387.612 126.91L388.667 127.994H388.414L387.39 126.931V127.994H387.2V125.195H387.39V126.889L388.213 126.026H388.446Z" fill="#231F20"/>
<path d="M391.707 125.29V127.152C391.707 127.72 391.306 128.036 390.799 128.036C390.293 128.036 389.902 127.731 389.902 127.152V125.29H390.092V127.099C390.092 127.583 390.388 127.867 390.81 127.867C391.232 127.867 391.517 127.594 391.517 127.099V125.29H391.707Z" fill="#231F20"/>
<path d="M392.499 126.447C392.646 126.11 392.931 125.973 393.163 125.963V126.163C393.163 126.163 393.121 126.163 393.111 126.163C392.762 126.163 392.499 126.478 392.499 126.815V128.004H392.309V126.037H392.499V126.447Z" fill="#231F20"/>
<path d="M394.314 125.952C394.821 125.952 395.127 126.384 395.127 127.005C395.127 127.625 394.8 128.025 394.325 128.025C394.061 128.025 393.829 127.867 393.67 127.604V127.994H393.48V125.195H393.67V126.415C393.818 126.11 394.093 125.963 394.304 125.963M394.314 126.131C393.945 126.131 393.681 126.436 393.681 126.983V127.015C393.681 127.51 393.892 127.878 394.314 127.878C394.736 127.878 394.937 127.425 394.937 127.015C394.937 126.605 394.736 126.131 394.314 126.131Z" fill="#231F20"/>
<path d="M395.696 126.131C395.865 126.026 396.087 125.953 396.266 125.953C396.53 125.953 396.773 126.11 396.868 126.342C396.899 126.426 396.921 126.552 396.921 126.679V127.615C396.921 127.731 396.921 127.868 396.952 127.994H396.762C396.731 127.899 396.72 127.752 396.72 127.752C396.593 127.91 396.361 128.036 396.087 128.036C395.781 128.036 395.475 127.794 395.475 127.415C395.475 126.931 395.812 126.731 396.372 126.731C396.446 126.731 396.562 126.742 396.678 126.752C396.699 126.752 396.72 126.752 396.741 126.752V126.689C396.741 126.384 396.604 126.131 396.277 126.131C396.129 126.131 395.939 126.184 395.791 126.268L395.717 126.121L395.696 126.131ZM396.72 126.9C396.593 126.9 396.488 126.879 396.393 126.879C395.897 126.879 395.665 127.047 395.665 127.415C395.665 127.71 395.907 127.868 396.129 127.868C396.477 127.868 396.72 127.615 396.72 127.341V126.9Z" fill="#231F20"/>
<path d="M397.66 126.415C397.807 126.11 398.04 125.963 398.282 125.963C398.652 125.963 398.958 126.226 398.958 126.699V128.004H398.768V126.71C398.768 126.321 398.536 126.131 398.261 126.131C397.892 126.131 397.66 126.51 397.66 126.878V128.004H397.47V126.037H397.66V126.415Z" fill="#231F20"/>
<path d="M402.282 127.994H402.06L401.332 126.805H400.688V127.994H400.498V125.279H401.342C401.775 125.279 402.166 125.553 402.166 126.026C402.166 126.395 401.933 126.689 401.532 126.784L402.271 127.994H402.282ZM401.332 126.647C401.67 126.647 401.965 126.447 401.965 126.037C401.965 125.627 401.68 125.448 401.353 125.448H400.699V126.647H401.332Z" fill="#231F20"/>
<path d="M402.81 126.131C402.978 126.026 403.2 125.953 403.379 125.953C403.643 125.953 403.886 126.11 403.981 126.342C404.013 126.426 404.034 126.552 404.034 126.679V127.615C404.034 127.731 404.034 127.868 404.065 127.994H403.875C403.844 127.899 403.833 127.752 403.833 127.752C403.707 127.91 403.474 128.036 403.2 128.036C402.894 128.036 402.588 127.794 402.588 127.415C402.588 126.931 402.926 126.731 403.485 126.731C403.559 126.731 403.675 126.742 403.791 126.752C403.812 126.752 403.833 126.752 403.854 126.752V126.689C403.854 126.384 403.717 126.131 403.379 126.131C403.232 126.131 403.042 126.184 402.894 126.268L402.82 126.121L402.81 126.131ZM403.844 126.9C403.717 126.9 403.612 126.879 403.517 126.879C403.021 126.879 402.788 127.047 402.788 127.415C402.788 127.71 403.031 127.868 403.253 127.868C403.601 127.868 403.844 127.615 403.844 127.341V126.9Z" fill="#231F20"/>
<path d="M404.562 125.195H404.846V125.521H404.562V125.195ZM404.604 126.026H404.794V127.994H404.604V126.026Z" fill="#231F20"/>
<path d="M405.586 125.195H405.396V127.994H405.586V125.195Z" fill="#231F20"/>
<path d="M407.686 127.72L408.14 126.026H408.319L407.781 127.994H407.602L407.137 126.205L406.673 127.994H406.494L405.966 126.026H406.135L406.589 127.72L407.032 126.026H407.243L407.686 127.72Z" fill="#231F20"/>
<path d="M408.783 126.131C408.952 126.026 409.174 125.953 409.353 125.953C409.617 125.953 409.86 126.11 409.955 126.342C409.986 126.426 410.007 126.552 410.007 126.679V127.615C410.007 127.731 410.007 127.868 410.039 127.994H409.849C409.817 127.899 409.807 127.752 409.807 127.752C409.68 127.91 409.448 128.036 409.174 128.036C408.868 128.036 408.562 127.794 408.562 127.415C408.562 126.931 408.899 126.731 409.459 126.731C409.533 126.731 409.649 126.742 409.765 126.752C409.786 126.752 409.807 126.752 409.828 126.752V126.689C409.828 126.384 409.691 126.131 409.364 126.131C409.216 126.131 409.026 126.184 408.878 126.268L408.804 126.121L408.783 126.131ZM409.807 126.9C409.68 126.9 409.575 126.879 409.48 126.879C408.984 126.879 408.752 127.047 408.752 127.415C408.752 127.71 408.984 127.868 409.216 127.868C409.564 127.868 409.807 127.615 409.807 127.341V126.9Z" fill="#231F20"/>
<path d="M410.388 128.678C410.715 128.573 410.894 128.394 411.021 128.015L410.335 126.026H410.535L411.116 127.783L411.675 126.026H411.897L411.274 127.847C411.105 128.331 410.873 128.72 410.451 128.857L410.377 128.678H410.388Z" fill="#231F20"/>
<path d="M415.063 127.783C414.873 127.93 414.609 128.025 414.303 128.025C413.585 128.025 413.11 127.404 413.11 126.636C413.11 125.805 413.606 125.237 414.292 125.237C414.556 125.237 414.862 125.321 415.042 125.426L414.947 125.574C414.799 125.489 414.535 125.416 414.282 125.416C413.649 125.416 413.3 125.984 413.3 126.636C413.3 127.289 413.691 127.857 414.303 127.857C414.567 127.857 414.831 127.741 414.989 127.646L415.073 127.783H415.063Z" fill="#231F20"/>
<path d="M415.274 126.994C415.274 126.373 415.665 125.953 416.129 125.953C416.594 125.953 416.974 126.363 416.974 126.994C416.974 127.626 416.594 128.036 416.129 128.036C415.665 128.036 415.274 127.636 415.274 126.994ZM415.475 126.994C415.475 127.552 415.781 127.878 416.14 127.878C416.499 127.878 416.805 127.552 416.805 126.994C416.805 126.437 416.509 126.131 416.15 126.131C415.792 126.131 415.486 126.447 415.486 126.994" fill="#231F20"/>
<path d="M417.744 127.889H417.438V128.225H417.744V127.889Z" fill="#231F20"/>
<path d="M418.325 127.888H418.631V128.183C418.641 128.425 418.494 128.625 418.335 128.762L418.293 128.72C418.388 128.614 418.515 128.446 418.504 128.215H418.325V127.878V127.888Z" fill="#231F20"/>
<path d="M420.657 127.994H419.222V125.29H419.412V127.825H420.657V127.994Z" fill="#231F20"/>
<path d="M421.195 125.49L421.385 125.416V126.026H421.828V126.195H421.385V127.531C421.385 127.794 421.575 127.857 421.796 127.868V128.036C421.448 128.025 421.195 127.92 421.195 127.541V126.195H420.889V126.026H421.195V125.49Z" fill="#231F20"/>
<path d="M423.549 126.415V125.195H423.739V128.004H423.549V127.615C423.391 127.888 423.159 128.036 422.895 128.036C422.431 128.036 422.093 127.657 422.093 127.015C422.093 126.373 422.388 125.963 422.905 125.963C423.127 125.963 423.401 126.11 423.539 126.415M422.283 127.015C422.283 127.425 422.483 127.878 422.905 127.878C423.328 127.878 423.539 127.51 423.539 127.015V126.983C423.539 126.436 423.264 126.131 422.905 126.131C422.483 126.131 422.283 126.584 422.283 127.015Z" fill="#231F20"/>
<path d="M424.636 127.889H424.33V128.225H424.636V127.889Z" fill="#231F20"/>
</g>
<defs>
<clipPath id="clip0_64_3143">
<rect width="427" height="160" fill="white"/>
</clipPath>
</defs>
</svg>
