<svg width="32" height="100" viewBox="0 0 32 100" fill="none" xmlns="http://www.w3.org/2000/svg">
<path d="M6.74902 96.0272C6.74902 94.3886 7.17141 91.9307 8.93878 91.9307C10.7061 91.9307 11.1619 94.1753 11.1619 95.9935C11.1619 97.6882 10.6617 100 8.93878 100C7.21588 100 6.74902 97.6658 6.74902 96.0272ZM7.19364 96.0272C7.19364 97.2505 7.52711 99.5738 8.93878 99.5738C10.3505 99.5738 10.695 97.273 10.695 96.0047C10.695 94.7365 10.3838 92.3796 8.92767 92.3796C7.47153 92.3796 7.18253 94.7028 7.18253 96.0384" fill="#414042"/>
<path d="M15.4415 95.1629C15.8639 94.2201 16.3863 94.0181 16.9421 94.0181C17.6646 94.0181 18.2426 94.5568 18.4649 95.3649C18.7872 94.3997 19.4764 94.0181 20.0655 94.0181C20.977 94.0181 21.7217 94.6915 21.7217 95.9709V99.8542H21.266V95.8924C21.266 94.9384 20.7102 94.4333 19.9655 94.4333C19.3097 94.4333 18.5872 95.0731 18.5872 96.2852V99.843H18.1314V95.9934C18.1314 94.9608 17.5201 94.4221 16.8309 94.4221C16.075 94.4221 15.4303 95.1741 15.4303 96.2627V99.843H14.9746V94.2089H15.4303V95.1516L15.4415 95.1629Z" fill="#414042"/>
<path d="M23.7335 95.1629C24.1558 94.2201 24.6783 94.0181 25.234 94.0181C25.9566 94.0181 26.5346 94.5568 26.7569 95.3649C27.0792 94.3997 27.7684 94.0181 28.3575 94.0181C29.269 94.0181 30.0137 94.6915 30.0137 95.9709V99.8542H29.558V95.8924C29.558 94.9384 29.0022 94.4333 28.2575 94.4333C27.6017 94.4333 26.8791 95.0731 26.8791 96.2852V99.843H26.4234V95.9934C26.4234 94.9608 25.8121 94.4221 25.1229 94.4221C24.367 94.4221 23.7223 95.1741 23.7223 96.2627V99.843H23.2666V94.2089H23.7223V95.1516L23.7335 95.1629Z" fill="#414042"/>
<path d="M3.30306 51.1898H0.124023V50.9541H1.56904V50.4827H0.57976V49.3828H2.86956V49.6185H0.857648V50.247H2.91402V50.4827H1.85804V50.9541H3.31418V51.1898H3.30306ZM2.91402 52.1325C2.91402 52.5029 2.52498 52.7947 1.71354 52.7947C0.90211 52.7947 0.524182 52.5029 0.524182 52.1325C0.524182 51.7622 0.913225 51.4704 1.71354 51.4704C2.51386 51.4704 2.91402 51.7509 2.91402 52.1325ZM1.71354 51.6948C1.15777 51.6948 0.824301 51.8744 0.824301 52.1438C0.824301 52.4131 1.15777 52.5815 1.71354 52.5815C2.26932 52.5815 2.6139 52.4131 2.6139 52.1438C2.6139 51.8744 2.28043 51.6948 1.71354 51.6948Z" fill="#231F20"/>
<path d="M6.63802 51.2459H5.19301V51.6836H6.1934V52.761H5.91551V51.9193H3.84803V51.6948H4.904V51.2571H3.45898V51.0326H6.63802V51.2571V51.2459ZM3.91472 50.6286V49.3267H4.18149V49.7531H5.89328V49.3267H6.16006V50.6286H3.91472ZM5.9044 49.9888H4.19261V50.4153H5.9044V49.9888Z" fill="#231F20"/>
<path d="M8.73818 51.2234C8.42695 51.0999 7.99345 50.8306 7.83783 50.4939C7.68221 50.8867 7.29317 51.1336 6.94859 51.3132L6.79297 51.1336C7.23759 50.9091 7.69333 50.6173 7.69333 50.0449V49.4277H7.98233V50.0337C7.98233 50.5837 8.44918 50.8418 8.87157 51.0102L8.7493 51.2234H8.73818ZM9.71635 52.6824H7.44878V51.5713H7.72667V52.4467H9.71635V52.6824ZM9.63854 51.7285H9.37177V50.2806H8.62703V50.0449H9.37177V49.3154H9.63854V51.7285Z" fill="#231F20"/>
<path d="M11.8395 51.347V51.953H13.2845V52.1775H10.1055V51.953H11.5505V51.347H11.8284H11.8395ZM10.5612 51.1001V49.5063H12.8621V49.7308H10.8391V50.8756H12.9066V51.1001H10.5612Z" fill="#231F20"/>
<path d="M14.6297 49.4613V50.3929C14.6297 50.9765 15.0854 51.403 15.5412 51.6274L15.4078 51.8407C15.1188 51.6723 14.6853 51.3805 14.4963 50.9091C14.3296 51.3918 13.9405 51.6836 13.5626 51.9192L13.3848 51.7285C13.8961 51.4366 14.3629 50.9989 14.3629 50.3816V49.4613H14.6519H14.6297ZM16.2637 52.7386H15.9969V49.3154H16.2637V52.7386Z" fill="#231F20"/>
<path d="M17.9982 49.6072H18.754V49.8316H17.9982C17.9982 50.3816 18.4428 50.6509 18.8652 50.8193L18.7429 51.0213C18.4317 50.8978 18.0204 50.6285 17.8648 50.2918C17.7092 50.6846 17.3424 50.9203 16.9867 51.0999L16.8311 50.9203C17.2757 50.6958 17.7203 50.404 17.7203 49.8429L16.9644 49.8316V49.6072H17.7203V49.2031H17.9982V49.6072ZM19.6989 52.7497H17.4091V51.908H19.3209V51.5039H17.4091V51.2794H19.6099V52.1212H17.6981V52.5252H19.6989V52.7497ZM19.6322 51.1111H19.3654V50.3255H18.6873V50.101H19.3654V49.3154H19.6322V51.1111Z" fill="#231F20"/>
<path d="M21.8323 51.347V51.953H23.2884V52.1775H20.1094V51.953H21.5544V51.347H21.8323ZM20.554 51.1001V49.5063H22.8549V49.7308H20.8319V50.8756H22.8994V51.1001H20.5651H20.554Z" fill="#231F20"/>
<path d="M24.3448 52.8058C23.9668 52.2446 23.7334 51.56 23.7334 50.9652C23.7334 50.3703 23.9668 49.7081 24.3448 49.147H24.5448C24.1891 49.7306 24.0113 50.3703 24.0113 50.9764C24.0113 51.5824 24.2002 52.2109 24.5448 52.8058H24.3448Z" fill="#231F20"/>
<path d="M28.0355 51.4479H26.5794V52.7386H26.3015V51.4479H24.8564V51.2235H28.0355V51.4479ZM25.101 50.6286C25.5901 50.5276 26.2903 50.1685 26.2903 49.7308V49.6859H25.2788V49.4502H27.5909V49.6859H26.5905V49.7308C26.5905 50.146 27.2685 50.5164 27.7798 50.6286L27.6576 50.8419C27.1907 50.7297 26.6794 50.4266 26.446 50.0899C26.1903 50.4715 25.6901 50.7409 25.2344 50.8419L25.101 50.6286Z" fill="#231F20"/>
<path d="M28.3467 52.8058C28.6913 52.2222 28.8802 51.6049 28.8802 50.9876C28.8802 50.3703 28.7024 49.7306 28.3467 49.147H28.5468C28.9247 49.7081 29.147 50.3928 29.147 50.9764C29.147 51.56 28.9136 52.2446 28.5468 52.8058H28.3467Z" fill="#231F20"/>
<path d="M31.7029 68.6084V86.7902H0.19043V68.6084" stroke="#808285" stroke-width="0.38" stroke-dasharray="1.44 1.44"/>
<path d="M3.72538 99.8539V92.6373L2.56936 93.7484L2.33594 93.4342L3.79207 92.0312H4.18111V99.8539H3.72538Z" fill="#414042"/>
<path d="M28.6795 20.3144V44.7589H24.6779L5.9705 27.3515V44.7813H0.19043V20.292L6.44847 20.3144L22.9106 35.1517V20.3144H28.6795Z" fill="#231F20"/>
<path d="M31.7031 7.05948C28.3574 7.6431 25.8008 10.5948 25.8008 14.1302C25.8008 10.5948 23.2331 7.6431 19.8984 7.05948C23.222 6.48709 25.8008 3.53535 25.8008 0C25.8008 3.52413 28.3685 6.48709 31.7031 7.05948Z" fill="#9E1954"/>
</svg>
