<svg width="121" height="100" viewBox="0 0 121 100" fill="none" xmlns="http://www.w3.org/2000/svg">
<path d="M33.2428 67.252V86.2193H0.19043V67.252" stroke="#808285" stroke-width="0.38" stroke-dasharray="1.44 1.44"/>
<path d="M3.8319 99.8476V92.3193L2.62579 93.4667L2.37988 93.1388L3.91387 91.687H4.32371V99.8476H3.8319Z" fill="#414042"/>
<path d="M7.02832 95.8555C7.02832 94.1461 7.47329 91.582 9.33515 91.582C11.197 91.582 11.6771 93.9237 11.6771 95.8204C11.6771 97.5883 11.1502 99.9885 9.33515 99.9885C7.52013 99.9885 7.02832 97.5532 7.02832 95.8438M7.485 95.8555C7.485 97.1317 7.8363 99.5553 9.32344 99.5553C10.8106 99.5553 11.1736 97.1434 11.1736 95.8321C11.1736 94.5208 10.8457 92.0504 9.31173 92.0504C7.77775 92.0504 7.47329 94.474 7.47329 95.8672" fill="#414042"/>
<path d="M16.1842 94.954C16.6292 93.9705 17.1795 93.7598 17.765 93.7598C18.5262 93.7598 19.1351 94.3218 19.3693 95.1647C19.7088 94.1578 20.4349 93.7598 21.0555 93.7598C22.0157 93.7598 22.8002 94.4623 22.8002 95.797V99.8598H22.3201V95.7267C22.3201 94.7315 21.7346 94.2047 20.9501 94.2047C20.2592 94.2047 19.4981 94.872 19.4981 96.1482V99.8598H19.018V95.8438C19.018 94.7667 18.3739 94.2047 17.6479 94.2047C16.8517 94.2047 16.1725 94.9891 16.1725 96.1248V99.8598H15.6924V93.9822H16.1725V94.9657L16.1842 94.954Z" fill="#414042"/>
<path d="M24.9069 94.954C25.3518 93.9705 25.9022 93.7598 26.4877 93.7598C27.2488 93.7598 27.8577 94.3218 28.0919 95.1647C28.4315 94.1578 29.1575 93.7598 29.7781 93.7598C30.7383 93.7598 31.5229 94.4623 31.5229 95.797V99.8598H31.0428V95.7267C31.0428 94.7315 30.4573 94.2047 29.6727 94.2047C28.9819 94.2047 28.2207 94.872 28.2207 96.1482V99.8598H27.7406V95.8438C27.7406 94.7667 27.0966 94.2047 26.3706 94.2047C25.5743 94.2047 24.8951 94.9891 24.8951 96.1248V99.8598H24.415V93.9822H24.8951V94.9657L24.9069 94.954Z" fill="#414042"/>
<path d="M33.3476 23.0888V50.8491H28.7462L7.28506 31.0738V50.8959H0.658203V23.0537L7.84706 23.0888L26.7324 39.9487V23.0888H33.3476Z" fill="#231F20"/>
<path d="M36.814 8.02014C32.9854 8.6758 30.0349 12.0361 30.0349 16.052C30.0349 12.0361 27.0845 8.6758 23.2676 8.02014C27.0962 7.36448 30.0349 4.00422 30.0349 0C30.0349 4.01592 32.9854 7.36448 36.814 8.02014Z" fill="#9E1954"/>
<path d="M49.8916 46.5049H41.1689V45.8727H45.138V44.6082H42.4217V41.6343H48.6856V42.2665H43.1593V43.9759H48.791V44.5965H45.8991V45.8609H49.8799V46.4932L49.8916 46.5049ZM48.8144 49.0807C48.8144 50.0876 47.7607 50.8721 45.5244 50.8721C43.2881 50.8721 42.2695 50.0759 42.2695 49.0807C42.2695 48.0855 43.335 47.2776 45.5244 47.2776C47.7138 47.2776 48.8144 48.0504 48.8144 49.0807ZM45.5244 47.8631C43.9906 47.8631 43.0774 48.3548 43.0774 49.069C43.0774 49.7832 43.9906 50.2749 45.5244 50.2749C47.0582 50.2749 47.9948 49.8066 47.9948 49.069C47.9948 48.3314 47.0699 47.8631 45.5244 47.8631Z" fill="#231F20"/>
<path d="M59.0244 46.6574H55.0553V47.8283H57.8185V50.7436H57.0691V48.4488H51.3906V47.8283H54.2826V46.6574H50.3135V46.0369H59.0361V46.6574H59.0244ZM51.5663 44.9949V41.4707H52.3156V42.6181H57.0106V41.4707H57.7365V44.9949H51.5663ZM56.9989 43.2269H52.3039V44.3743H56.9989V43.2269Z" fill="#231F20"/>
<path d="M64.7725 46.5871C63.9061 46.2476 62.7236 45.5217 62.3021 44.6084C61.8806 45.6856 60.8152 46.3413 59.8551 46.8213L59.4336 46.3296C60.6512 45.7207 61.9157 44.9246 61.9157 43.3791V41.7165H62.7002V43.3674C62.7002 44.866 63.9881 45.5685 65.1238 46.0134L64.7843 46.5871H64.7725ZM67.4654 50.5445H61.2601V47.5355H62.0211V49.9123H67.4654V50.5445ZM67.243 47.9687H66.4937V44.023H64.4564V43.3908H66.4937V41.4004H67.243V47.957V47.9687Z" fill="#231F20"/>
<path d="M73.2965 46.915V48.5658H77.2773V49.1863H68.5547V48.5658H72.5238V46.915H73.2965ZM69.7841 46.2593V41.9272H76.0831V42.5478H70.5217V45.6388H76.2002V46.2593H69.7841Z" fill="#231F20"/>
<path d="M80.9305 41.8219V44.3509C80.9305 45.9432 82.1716 47.0906 83.4244 47.6877L83.038 48.2848C82.2301 47.8282 81.0593 47.0321 80.5324 45.7559C80.0641 47.0555 79.0221 47.8633 77.9683 48.5073L77.4883 47.9804C78.8933 47.196 80.1578 45.99 80.1578 44.3157V41.8336H80.9422L80.9305 41.8219ZM85.403 50.6967H84.6654V41.4004H85.403V50.6967Z" fill="#231F20"/>
<path d="M90.1563 42.2197H92.2169V42.8168H90.1563V42.8403C90.1563 44.3272 91.374 45.0297 92.5214 45.4863L92.1818 46.0366C91.3271 45.7088 90.1914 44.9829 89.7699 44.0696C89.3601 45.1351 88.3415 45.779 87.3814 46.2708L86.9482 45.7907C88.1542 45.1936 89.3953 44.3857 89.3953 42.852V42.8168H87.3229V42.2197H89.3953V41.1309H90.168V42.2197H90.1563ZM94.8396 50.7433H88.5757V48.4719H93.8327V47.3831H88.5757V46.7859H94.6054V49.0573H89.3484V50.1579H94.8279V50.755L94.8396 50.7433ZM94.6288 46.2708H93.8912V44.1516H92.0413V43.531H93.8912V41.4001H94.6288V46.2708Z" fill="#231F20"/>
<path d="M100.682 46.915V48.5658H104.663V49.1863H95.9404V48.5658H99.9095V46.915H100.682ZM97.1698 46.2593V41.9272H103.469V42.5478H97.9074V45.6388H103.586V46.2593H97.1698Z" fill="#231F20"/>
<path d="M107.567 50.8959C106.525 49.3738 105.893 47.5122 105.893 45.9082C105.893 44.3041 106.525 42.4894 107.567 40.9673H108.117C107.157 42.5596 106.654 44.2807 106.654 45.9316C106.654 47.5824 107.157 49.2918 108.117 50.8959H107.567Z" fill="#231F20"/>
<path d="M117.671 47.1958H113.69V50.7083H112.917V47.1958H108.948V46.5753H117.671V47.1958ZM109.627 44.9947C110.962 44.7137 112.882 43.7302 112.882 42.5594V42.4306H110.119V41.7983H116.465V42.4306H113.702V42.5594C113.702 43.6951 115.563 44.6786 116.957 44.9947L116.605 45.5801C115.306 45.2757 113.936 44.4561 113.28 43.5312C112.566 44.5498 111.196 45.3108 109.967 45.5801L109.616 44.9947H109.627Z" fill="#231F20"/>
<path d="M118.525 50.8959C119.486 49.2918 119.989 47.6293 119.989 45.955C119.989 44.2807 119.486 42.5596 118.525 40.9673H119.087C120.118 42.4894 120.75 44.3393 120.75 45.9433C120.75 47.5473 120.118 49.3855 119.087 50.9076H118.525V50.8959Z" fill="#231F20"/>
</svg>
