<svg width="24" height="24" viewBox="0 0 24 24" fill="none" xmlns="http://www.w3.org/2000/svg">
<path d="M5.40039 10.5996C6.17341 10.5998 6.7998 11.2269 6.7998 12C6.79959 12.7729 6.17328 13.3992 5.40039 13.3994C4.62732 13.3994 4.00021 12.773 4 12C4 11.2268 4.62719 10.5996 5.40039 10.5996ZM12.002 10.5996C12.775 10.5998 13.4014 11.2269 13.4014 12C13.4012 12.7729 12.7748 13.3992 12.002 13.3994C11.2289 13.3994 10.6018 12.773 10.6016 12C10.6016 11.2268 11.2288 10.5996 12.002 10.5996ZM18.5996 10.5996C19.3726 10.5998 19.999 11.2269 19.999 12C19.9988 12.7729 19.3725 13.3992 18.5996 13.3994C17.8265 13.3994 17.1994 12.773 17.1992 12C17.1992 11.2268 17.8264 10.5996 18.5996 10.5996Z" fill="#33363D"/>
</svg>
