<svg width="60" height="60" viewBox="0 0 60 60" fill="none" xmlns="http://www.w3.org/2000/svg">
<path d="M30 53.2031C42.8147 53.2031 53.2031 42.8147 53.2031 30C53.2031 17.1853 42.8147 6.79688 30 6.79688C17.1853 6.79688 6.79688 17.1853 6.79688 30C6.79688 42.8147 17.1853 53.2031 30 53.2031Z" stroke="white" stroke-width="2" stroke-linecap="round" stroke-linejoin="round"/>
<path d="M30 33.4375C31.8985 33.4375 33.4375 31.8985 33.4375 30C33.4375 28.1015 31.8985 26.5625 30 26.5625C28.1015 26.5625 26.5625 28.1015 26.5625 30C26.5625 31.8985 28.1015 33.4375 30 33.4375Z" fill="#E749A2" stroke="white" stroke-width="2" stroke-linecap="round" stroke-linejoin="round"/>
<path d="M46.373 20.5469L32.9731 28.2812" stroke="white" stroke-width="2" stroke-linecap="round" stroke-linejoin="round"/>
<path d="M27.0264 28.2812L19.582 23.9844" stroke="white" stroke-width="2" stroke-linecap="round" stroke-linejoin="round"/>
<path d="M30 12.8125C30.4746 12.8125 30.8594 12.4277 30.8594 11.9531C30.8594 11.4785 30.4746 11.0938 30 11.0938C29.5254 11.0938 29.1406 11.4785 29.1406 11.9531C29.1406 12.4277 29.5254 12.8125 30 12.8125Z" stroke="white" stroke-width="2" stroke-linecap="round" stroke-linejoin="round"/>
<path d="M30 48.9062C30.4746 48.9062 30.8594 48.5215 30.8594 48.0469C30.8594 47.5723 30.4746 47.1875 30 47.1875C29.5254 47.1875 29.1406 47.5723 29.1406 48.0469C29.1406 48.5215 29.5254 48.9062 30 48.9062Z" stroke="white" stroke-width="2" stroke-linecap="round" stroke-linejoin="round"/>
<path d="M11.9531 30.8594C12.4277 30.8594 12.8125 30.4746 12.8125 30C12.8125 29.5254 12.4277 29.1406 11.9531 29.1406C11.4785 29.1406 11.0938 29.5254 11.0938 30C11.0938 30.4746 11.4785 30.8594 11.9531 30.8594Z" stroke="white" stroke-width="2" stroke-linecap="round" stroke-linejoin="round"/>
<path d="M48.0469 30.8594C48.5215 30.8594 48.9062 30.4746 48.9062 30C48.9062 29.5254 48.5215 29.1406 48.0469 29.1406C47.5723 29.1406 47.1875 29.5254 47.1875 30C47.1875 30.4746 47.5723 30.8594 48.0469 30.8594Z" stroke="white" stroke-width="2" stroke-linecap="round" stroke-linejoin="round"/>
</svg>
