<svg width="71" height="30" viewBox="0 0 71 30" fill="none" xmlns="http://www.w3.org/2000/svg">
<g clip-path="url(#clip0_232_837)">
<path d="M19.3284 13.6093V29.9723H16.6077L3.91829 18.316V29.9999H0V13.5886L4.24366 13.6093L15.4101 23.5472V13.6093H19.3284Z" fill="#231F20"/>
<path d="M21.3768 4.7274C19.1131 5.11387 17.3686 7.09455 17.3686 9.4617C17.3686 7.09455 15.624 5.11387 13.3672 4.7274C15.6309 4.34092 17.3686 2.36025 17.3686 0C17.3686 2.36715 19.1131 4.34092 21.3768 4.7274Z" fill="#9E1954"/>
<path d="M29.1106 27.412H23.9531V27.0393H26.2999V26.2939H24.6939V24.541H28.3975V24.9137H25.13V25.9213H28.4599V26.287H26.7499V27.0324H29.1037V27.4051L29.1106 27.412ZM28.4668 28.9302C28.4668 29.5238 27.8437 29.9861 26.5215 29.9861C25.1992 29.9861 24.5969 29.5169 24.5969 28.9302C24.5969 28.3436 25.2269 27.8674 26.5215 27.8674C27.816 27.8674 28.4668 28.3229 28.4668 28.9302ZM26.5215 28.2125C25.6146 28.2125 25.0746 28.5024 25.0746 28.9233C25.0746 29.3443 25.6146 29.6342 26.5215 29.6342C27.4284 29.6342 27.9822 29.3581 27.9822 28.9233C27.9822 28.4886 27.4353 28.2125 26.5215 28.2125Z" fill="#231F20"/>
<path d="M34.5041 27.5017H32.1572V28.1919H33.791V29.9103H33.348V28.5576H29.9904V28.1919H31.7003V27.5017H29.3535V27.136H34.511V27.5017H34.5041ZM30.1012 26.5218V24.4445H30.5442V25.1208H33.3203V24.4445H33.7495V26.5218H30.1012ZM33.3133 25.4797H30.5373V26.156H33.3133V25.4797Z" fill="#231F20"/>
<path d="M37.9029 27.4604C37.3906 27.2602 36.6914 26.8323 36.4422 26.294C36.193 26.929 35.563 27.3154 34.9953 27.5984L34.7461 27.3085C35.4661 26.9497 36.2137 26.4804 36.2137 25.5694V24.5894H36.6775V25.5625C36.6775 26.4459 37.4391 26.8599 38.1106 27.1222L37.9098 27.4604H37.9029ZM39.4951 29.793H35.826V28.0194H36.276V29.4203H39.4951V29.793ZM39.3705 28.2747H38.9275V25.949H37.7229V25.5763H38.9275V24.4031H39.3705V28.2678V28.2747Z" fill="#231F20"/>
<path d="M42.9424 27.6536V28.6267H45.2961V28.9924H40.1387V28.6267H42.4855V27.6536H42.9424ZM40.8656 27.2671V24.7136H44.59V25.0794H41.3017V26.9013H44.6592V27.2671H40.8656Z" fill="#231F20"/>
<path d="M47.463 24.6515V26.1422C47.463 27.0808 48.1968 27.7571 48.9376 28.1091L48.7091 28.461C48.2315 28.1919 47.5392 27.7226 47.2277 26.9704C46.9507 27.7364 46.3346 28.2126 45.7116 28.5922L45.4277 28.2816C46.2585 27.8192 47.0061 27.1084 47.0061 26.1215V24.6584H47.47L47.463 24.6515ZM50.1006 29.8827H49.6645V24.4031H50.1006V29.8827Z" fill="#231F20"/>
<path d="M52.9105 24.8861H54.1289V25.2381H52.9105V25.2519C52.9105 26.1283 53.6305 26.5424 54.3089 26.8115L54.1082 27.1359C53.6028 26.9427 52.9313 26.5148 52.6821 25.9765C52.4398 26.6045 51.8375 26.9841 51.2698 27.2739L51.0137 26.991C51.7267 26.639 52.4605 26.1628 52.4605 25.2588V25.2381H51.2352V24.8861H52.4605V24.2443H52.9174V24.8861H52.9105ZM55.6796 29.9102H51.9759V28.5714H55.0843V27.9296H51.9759V27.5776H55.5412V28.9165H52.4328V29.5652H55.6727V29.9171L55.6796 29.9102ZM55.555 27.2739H55.1189V26.0248H54.0251V25.659H55.1189V24.403H55.555V27.2739Z" fill="#231F20"/>
<path d="M59.1338 27.6536V28.6267H61.4875V28.9924H56.3301V28.6267H58.6769V27.6536H59.1338ZM57.057 27.2671V24.7136H60.7814V25.0794H57.4931V26.9013H60.8507V27.2671H57.057Z" fill="#231F20"/>
<path d="M63.2126 30C62.5965 29.1028 62.2227 28.0055 62.2227 27.0601C62.2227 26.1146 62.5965 25.0449 63.2126 24.1477H63.538C62.9703 25.0863 62.6726 26.1008 62.6726 27.0739C62.6726 28.0469 62.9703 29.0545 63.538 30H63.2126Z" fill="#231F20"/>
<path d="M69.179 27.8192H66.8252V29.8896H66.3683V27.8192H64.0215V27.4534H69.179V27.8192ZM64.423 26.5218C65.2122 26.3561 66.3475 25.7764 66.3475 25.0863V25.0104H64.7138V24.6377H68.4659V25.0104H66.8321V25.0863C66.8321 25.7557 67.9329 26.3354 68.7567 26.5218L68.549 26.8668C67.7805 26.6874 66.9706 26.2043 66.5829 25.6591C66.1606 26.2595 65.3507 26.7081 64.6238 26.8668L64.4161 26.5218H64.423Z" fill="#231F20"/>
<path d="M69.6855 30C70.2532 29.0545 70.5509 28.0745 70.5509 27.0877C70.5509 26.1008 70.2532 25.0863 69.6855 24.1477H70.0178C70.627 25.0449 71.0009 26.1353 71.0009 27.0808C71.0009 28.0262 70.627 29.1097 70.0178 30.0069H69.6855V30Z" fill="#231F20"/>
</g>
<defs>
<clipPath id="clip0_232_837">
<rect width="71" height="30" fill="white"/>
</clipPath>
</defs>
</svg>
