<svg width="98" height="100" viewBox="0 0 98 100" fill="none" xmlns="http://www.w3.org/2000/svg">
<path d="M56.544 95.1629C56.9664 94.2201 57.4888 94.0181 58.0446 94.0181C58.7671 94.0181 59.3451 94.5568 59.5674 95.3649C59.8898 94.3997 60.579 94.0181 61.1681 94.0181C62.0795 94.0181 62.8243 94.6915 62.8243 95.9709V99.8542H62.3685V95.8924C62.3685 94.9384 61.8128 94.4333 61.068 94.4333C60.4122 94.4333 59.6897 95.0731 59.6897 96.2852V99.843H59.234V95.9934C59.234 94.9608 58.6226 94.4221 57.9335 94.4221C57.1776 94.4221 56.5329 95.1741 56.5329 96.2627V99.843H56.0771V94.2089H56.5329V95.1516L56.544 95.1629Z" fill="#414042"/>
<path d="M64.5252 68.6084V86.7902H33.0127V68.6084" stroke="#808285" stroke-width="0.38" stroke-dasharray="1.44 1.44"/>
<path d="M36.5369 99.8539V92.6373L35.3809 93.7484L35.1475 93.4342L36.6036 92.0312H37.0037V99.8539H36.5369Z" fill="#414042"/>
<path d="M39.5596 96.0272C39.5596 94.3886 39.982 91.9307 41.7493 91.9307C43.5167 91.9307 43.9724 94.1753 43.9724 95.9935C43.9724 97.6882 43.4722 100 41.7493 100C40.0264 100 39.5596 97.6658 39.5596 96.0272ZM40.0042 96.0272C40.0042 97.2505 40.3377 99.5738 41.7493 99.5738C43.161 99.5738 43.5056 97.273 43.5056 96.0047C43.5056 94.7365 43.1943 92.3796 41.7382 92.3796C40.2821 92.3796 39.9931 94.7028 39.9931 96.0384" fill="#414042"/>
<path d="M48.252 95.1629C48.6744 94.2201 49.1968 94.0181 49.7526 94.0181C50.4751 94.0181 51.0531 94.5568 51.2754 95.3649C51.5978 94.3997 52.2869 94.0181 52.8761 94.0181C53.7875 94.0181 54.5323 94.6915 54.5323 95.9709V99.8542H54.0765V95.8924C54.0765 94.9384 53.5208 94.4333 52.776 94.4333C52.1202 94.4333 51.3977 95.0731 51.3977 96.2852V99.843H50.942V95.9934C50.942 94.9608 50.3306 94.4221 49.6414 94.4221C48.8856 94.4221 48.2409 95.1741 48.2409 96.2627V99.843H47.7852V94.2089H48.2409V95.1516L48.252 95.1629Z" fill="#414042"/>
<path d="M63.5581 20.3594V44.8599H59.5343L40.7824 27.4188V44.8936H34.9912V20.3369L41.2715 20.3594L57.7669 35.2303V20.3594H63.5581Z" fill="#231F20"/>
<path d="M66.5822 7.08193C63.2364 7.66554 60.6576 10.6285 60.6576 14.1751C60.6576 10.6285 58.0788 7.66554 54.7441 7.08193C58.0899 6.50954 60.6576 3.54658 60.6576 0C60.6576 3.53535 63.2364 6.49832 66.5822 7.08193Z" fill="#9E1954"/>
<path d="M1.50057 52.0874C2.87889 52.0874 3.72367 53.1761 3.72367 54.7473C3.72367 56.1727 2.85666 57.396 1.50057 57.396H0V52.0874H1.50057ZM1.45613 57.0818C2.66772 57.0818 3.34575 56.0043 3.34575 54.7473C3.34575 53.3107 2.61215 52.4129 1.45613 52.4129H0.355671V57.0818H1.45613Z" fill="#231F20"/>
<path d="M4.42383 55.4435C4.42383 54.2202 5.16859 53.4121 6.08006 53.4121C6.99154 53.4121 7.71405 54.2202 7.71405 55.4435C7.71405 56.6669 6.96929 57.4862 6.06894 57.4862C5.16858 57.4862 4.42383 56.7006 4.42383 55.4435ZM4.79066 55.4435C4.79066 56.5322 5.37978 57.1719 6.06894 57.1719C6.7581 57.1719 7.34722 56.5322 7.34722 55.4435C7.34722 54.3549 6.76922 53.7376 6.06894 53.7376C5.36866 53.7376 4.77953 54.3549 4.77953 55.4435" fill="#231F20"/>
<path d="M8.94785 54.2987C9.23686 53.6927 9.68147 53.4009 10.1594 53.4009C10.8708 53.4009 11.46 53.9172 11.46 54.8375V57.3964H11.0931V54.8711C11.0931 54.1079 10.6374 53.7376 10.115 53.7376C9.40357 53.7376 8.94785 54.4783 8.94785 55.1966V57.3964H8.58105V53.5468H8.94785V54.2987Z" fill="#231F20"/>
<path d="M15.1615 54.31V53.5468H15.5283V57.1719C15.5283 58.5299 14.7057 59.0462 13.9276 59.0462C13.5275 59.0462 13.0829 58.9003 12.7161 58.7095L12.8717 58.3953C13.1718 58.5636 13.5831 58.7095 13.9276 58.7095C14.5835 58.7095 15.1726 58.2494 15.1726 57.1607V56.5883C14.9058 57.1158 14.4167 57.4076 13.9276 57.4076C13.0384 57.4076 12.3604 56.6893 12.3604 55.4435C12.3604 54.1977 12.9717 53.4009 13.9276 53.4009C14.3389 53.4009 14.8836 53.6815 15.1726 54.31M12.7161 55.4323C12.7161 56.2516 13.1273 57.0821 13.9387 57.0821C14.7502 57.0821 15.1503 56.3638 15.1503 55.4323C15.1503 54.3436 14.6279 53.7488 13.9387 53.7488C13.1162 53.7488 12.7161 54.5793 12.7161 55.4323Z" fill="#231F20"/>
<path d="M18.251 53.4117C19.2403 53.4117 19.8183 54.2534 19.8183 55.4767C19.8183 56.7001 19.1848 57.4857 18.2733 57.4857C17.7731 57.4857 17.3173 57.1827 17.0172 56.6552V57.4072H16.6504V51.9189H17.0172V54.3095C17.2951 53.7035 17.8286 53.4117 18.251 53.4117ZM18.2399 53.7484C17.5396 53.7484 17.0172 54.3544 17.0172 55.4206V55.488C17.0172 56.4532 17.4174 57.1715 18.2399 57.1715C19.0625 57.1715 19.4515 56.2961 19.4515 55.488C19.4515 54.6799 19.0625 53.7596 18.2399 53.7596" fill="#231F20"/>
<path d="M23.2201 56.6328C22.9311 57.194 22.4865 57.4745 22.0197 57.4745C21.2972 57.4745 20.708 56.9695 20.708 56.0492V53.5464H21.0748V55.9706C21.0748 56.7563 21.5306 57.1378 22.0641 57.1378C22.7755 57.1378 23.2313 56.442 23.2313 55.69V53.5352H23.5981V57.3848H23.2313V56.6104L23.2201 56.6328Z" fill="#231F20"/>
<path d="M27.1328 53.558L25.521 55.264L27.5551 57.4076H27.0661L25.0875 55.3089V57.4076H24.7207V51.9082H25.0875V55.2303L26.6659 53.558H27.1328Z" fill="#231F20"/>
<path d="M33.4467 52.0874V55.7462C33.4467 56.8685 32.6686 57.4858 31.6904 57.4858C30.7123 57.4858 29.9453 56.8798 29.9453 55.7462V52.0874H30.3121V55.634C30.3121 56.588 30.879 57.1379 31.6904 57.1379C32.5463 57.1379 33.0688 56.6104 33.0688 55.634V52.0874H33.4356H33.4467Z" fill="#231F20"/>
<path d="M34.9576 54.3661C35.2577 53.6927 35.7913 53.4346 36.2581 53.4233V53.8162C36.2581 53.8162 36.1803 53.8162 36.1581 53.8162C35.4912 53.8162 34.9576 54.4334 34.9576 55.0956V57.4189H34.5908V53.5692H34.9576V54.3773V54.3661Z" fill="#231F20"/>
<path d="M38.4815 53.4117C39.4708 53.4117 40.0488 54.2534 40.0488 55.4767C40.0488 56.7001 39.4152 57.4857 38.5037 57.4857C38.0035 57.4857 37.5478 57.1827 37.2477 56.6552V57.4072H36.8809V51.9189H37.2477V54.3095C37.5255 53.7035 38.0591 53.4117 38.4815 53.4117ZM38.4704 53.7484C37.759 53.7484 37.2366 54.3544 37.2366 55.4206V55.488C37.2366 56.4532 37.6367 57.1715 38.4704 57.1715C39.304 57.1715 39.682 56.2961 39.682 55.488C39.682 54.6799 39.2929 53.7596 38.4704 53.7596" fill="#231F20"/>
<path d="M41.1491 53.7488C41.4714 53.5468 41.9049 53.4121 42.2495 53.4121C42.7608 53.4121 43.2277 53.7151 43.4167 54.1753C43.4834 54.3436 43.5056 54.5906 43.5056 54.8375V56.6669C43.5056 56.8913 43.5056 57.1607 43.5723 57.4076H43.1944C43.1388 57.2168 43.1054 56.9362 43.1054 56.9362C42.8498 57.2505 42.4052 57.4862 41.8827 57.4862C41.2936 57.4862 40.6934 57.026 40.6934 56.2628C40.6934 55.3201 41.3381 54.916 42.4274 54.916C42.583 54.916 42.7942 54.9385 43.0165 54.9609C43.0498 54.9609 43.0943 54.9609 43.1277 54.9722V54.8487C43.1277 54.2426 42.8609 53.76 42.2162 53.76C41.9383 53.76 41.5604 53.861 41.2825 54.0406L41.138 53.76L41.1491 53.7488ZM43.1388 55.2527C42.8831 55.2303 42.6942 55.2191 42.5052 55.2191C41.5381 55.2191 41.0824 55.5558 41.0824 56.2628C41.0824 56.8465 41.5381 57.1495 41.9828 57.1495C42.6497 57.1495 43.1388 56.6557 43.1388 56.1282V55.2527Z" fill="#231F20"/>
<path d="M44.9508 54.2987C45.2398 53.6927 45.6844 53.4009 46.1624 53.4009C46.8849 53.4009 47.4629 53.9172 47.4629 54.8375V57.3964H47.0961V54.8711C47.0961 54.1079 46.6404 53.7376 46.1179 53.7376C45.4065 53.7376 44.9508 54.4783 44.9508 55.1966V57.3964H44.584V53.5468H44.9508V54.2987Z" fill="#231F20"/>
<path d="M53.8874 57.4073H53.465L52.0645 55.084H50.8307V57.4073H50.4639V52.0986H52.0867C52.9204 52.0986 53.6762 52.6374 53.6762 53.5689C53.6762 54.276 53.2316 54.8596 52.4536 55.0504L53.8874 57.4185V57.4073ZM52.0534 54.7586C52.6981 54.7586 53.2761 54.377 53.2761 53.5577C53.2761 52.7384 52.7203 52.4129 52.0867 52.4129H50.8307V54.7698H52.0534V54.7586Z" fill="#231F20"/>
<path d="M54.9212 53.7488C55.2435 53.5468 55.6771 53.4121 56.0216 53.4121C56.533 53.4121 56.9998 53.7151 57.1888 54.1753C57.2554 54.3436 57.2777 54.5906 57.2777 54.8375V56.6669C57.2777 56.8913 57.2777 57.1607 57.3444 57.4076H56.9776C56.922 57.2168 56.8886 56.9362 56.8886 56.9362C56.633 57.2505 56.1884 57.4862 55.6659 57.4862C55.0768 57.4862 54.4766 57.026 54.4766 56.2628C54.4766 55.3201 55.1213 54.916 56.2106 54.916C56.3662 54.916 56.5774 54.9385 56.7997 54.9609C56.833 54.9609 56.8775 54.9609 56.9109 54.9722V54.8487C56.9109 54.2426 56.6441 53.76 55.9994 53.76C55.7215 53.76 55.3436 53.861 55.0657 54.0406L54.9212 53.76V53.7488ZM56.9109 55.2527C56.6552 55.2303 56.4662 55.2191 56.2773 55.2191C55.3102 55.2191 54.8545 55.5558 54.8545 56.2628C54.8545 56.8465 55.3102 57.1495 55.7548 57.1495C56.4218 57.1495 56.9109 56.6557 56.9109 56.1282V55.2527Z" fill="#231F20"/>
<path d="M58.3008 51.9082H58.8455V52.5367H58.3008V51.9082ZM58.3897 53.558H58.7565V57.4076H58.3897V53.558Z" fill="#231F20"/>
<path d="M60.2789 51.9082H59.9121V57.3964H60.2789V51.9082Z" fill="#231F20"/>
<path d="M64.3585 56.8685L65.2255 53.5576H65.5701L64.5363 57.4072H64.1918L63.2914 53.9055L62.4021 57.4072H62.0464L61.0127 53.5576H61.3573L62.2243 56.8685L63.0913 53.5576H63.4915L64.3585 56.8685Z" fill="#231F20"/>
<path d="M66.4818 53.7488C66.8041 53.5468 67.2376 53.4121 67.5822 53.4121C68.0935 53.4121 68.5603 53.7151 68.7493 54.1753C68.816 54.3436 68.8382 54.5906 68.8382 54.8375V56.6669C68.8382 56.8913 68.8382 57.1607 68.9049 57.4076H68.5381C68.4825 57.2168 68.4492 56.9362 68.4492 56.9362C68.1935 57.2505 67.7489 57.4862 67.2265 57.4862C66.6374 57.4862 66.0371 57.026 66.0371 56.2628C66.0371 55.3201 66.6818 54.916 67.7712 54.916C67.9268 54.916 68.138 54.9385 68.3603 54.9609C68.3936 54.9609 68.4381 54.9609 68.4714 54.9722V54.8487C68.4714 54.2426 68.2047 53.76 67.56 53.76C67.2821 53.76 66.9042 53.861 66.6263 54.0406L66.4818 53.76V53.7488ZM68.4603 55.2527C68.2047 55.2303 68.0157 55.2191 67.8267 55.2191C66.8597 55.2191 66.4039 55.5558 66.4039 56.2628C66.4039 56.8465 66.8597 57.1495 67.3043 57.1495C67.9712 57.1495 68.4603 56.6557 68.4603 56.1282V55.2527Z" fill="#231F20"/>
<path d="M69.5825 58.7428C70.2272 58.5408 70.5606 58.1816 70.8052 57.4409L69.4824 53.5464H69.8826L71.0164 56.9807L72.1057 53.5464H72.5281L71.3276 57.1154C71.0053 58.0694 70.5495 58.8214 69.727 59.0907L69.5825 58.7428Z" fill="#231F20"/>
<path d="M78.6198 56.992C78.253 57.2725 77.7306 57.4746 77.1415 57.4746C75.7521 57.4746 74.8184 56.2624 74.8184 54.7473C74.8184 53.1199 75.7854 52.0088 77.1082 52.0088C77.6195 52.0088 78.2086 52.1659 78.5532 52.3904L78.3753 52.671C78.0974 52.5138 77.5861 52.3567 77.097 52.3567C75.8854 52.3567 75.1963 53.4678 75.1963 54.7473C75.1963 56.0267 75.9521 57.1379 77.1415 57.1379C77.6528 57.1379 78.1641 56.9134 78.4531 56.7114L78.6088 56.992H78.6198Z" fill="#231F20"/>
<path d="M79.042 55.4435C79.042 54.2202 79.7867 53.4121 80.6982 53.4121C81.6097 53.4121 82.3322 54.2202 82.3322 55.4435C82.3322 56.6669 81.5875 57.4862 80.6871 57.4862C79.7867 57.4862 79.042 56.7006 79.042 55.4435ZM79.4199 55.4435C79.4199 56.5322 80.009 57.1719 80.6982 57.1719C81.3874 57.1719 81.9765 56.5322 81.9765 55.4435C81.9765 54.3549 81.3985 53.7376 80.6982 53.7376C79.9979 53.7376 79.4088 54.3549 79.4088 55.4435" fill="#231F20"/>
<path d="M83.8108 57.2056H83.2217V57.8565H83.8108V57.2056Z" fill="#231F20"/>
<path d="M84.9335 57.1943H85.5226V57.778C85.5449 58.2381 85.267 58.6534 84.9669 58.9115L84.8779 58.8329C85.0669 58.6309 85.3003 58.2942 85.2781 57.8453H84.9335V57.1943Z" fill="#231F20"/>
<path d="M89.457 57.4073H86.667V52.0874H87.0338V57.0818H89.457V57.4073Z" fill="#231F20"/>
<path d="M90.4915 52.5028L90.8583 52.3682V53.5578H91.7253V53.8833H90.8583V56.4984C90.8583 57.0146 91.2362 57.1381 91.6586 57.1605V57.4972C90.9806 57.4748 90.4915 57.2728 90.4915 56.532V53.8833H89.9023V53.5578H90.4915V52.5028Z" fill="#231F20"/>
<path d="M95.0482 54.2988V51.9082H95.415V57.3964H95.0482V56.6445C94.7481 57.172 94.2923 57.475 93.7921 57.475C92.8806 57.475 92.2471 56.723 92.2471 55.466C92.2471 54.209 92.8251 53.4009 93.8144 53.4009C94.2368 53.4009 94.7703 53.6927 95.0482 54.2988ZM92.6028 55.4772C92.6028 56.2853 92.9918 57.1607 93.8144 57.1607C94.6369 57.1607 95.0371 56.4312 95.0371 55.4772V55.4099C95.0371 54.3437 94.5146 53.7488 93.8144 53.7488C92.9918 53.7488 92.6028 54.6355 92.6028 55.4772Z" fill="#231F20"/>
<path d="M97.1497 57.2056H96.5605V57.8565H97.1497V57.2056Z" fill="#231F20"/>
</svg>
