<svg width="84" height="74" viewBox="0 0 84 74" fill="none" xmlns="http://www.w3.org/2000/svg">
<path d="M57.6577 24.5151V54.0242H52.7312L29.7265 33.0145V54.0583H22.627V24.4907L30.3214 24.5151L50.563 42.435V24.5151H57.6577Z" fill="#231F20"/>
<path d="M61.3693 8.52377C57.264 9.22555 54.1075 12.7881 54.1075 17.0622C54.1075 12.793 50.9461 9.22555 46.8457 8.52377C50.9461 7.83173 54.1075 4.25945 54.1075 0C54.1075 4.25945 57.264 7.83173 61.3693 8.52377Z" fill="#9E1954"/>
<path d="M9.20878 69.4087H0V68.7459H4.19385V67.4252H1.32256V64.3208H7.94029V64.9836H2.1043V66.7771H8.05338V67.4252H5.00509V68.7459H9.20878V69.4087ZM8.06813 72.094C8.06813 73.1419 6.95698 73.9704 4.59701 73.9704C2.23705 73.9704 1.1554 73.1419 1.1554 72.094C1.1554 71.0462 2.27638 70.2031 4.59701 70.2031C6.91764 70.2031 8.06813 71.0121 8.06813 72.094ZM4.5921 70.8269C2.97454 70.8269 2.01089 71.3435 2.01089 72.0843C2.01089 72.8251 2.97454 73.3417 4.5921 73.3417C6.20965 73.3417 7.19789 72.8494 7.19789 72.0843C7.19789 71.3192 6.2244 70.8269 4.5921 70.8269Z" fill="#231F20"/>
<path d="M18.8455 69.5639H14.6516V70.792H17.5623V73.8477H16.7707V71.445H10.7774V70.7969H13.8257V69.5687H9.63672V68.9157H18.8455V69.5687V69.5639ZM10.9789 67.824V64.1396H11.7607V65.3337H16.7166V64.1396H17.4885V67.824H10.9789ZM16.7166 65.977H11.7607V67.171H16.7166V65.977Z" fill="#231F20"/>
<path d="M24.9128 69.4906C24.0032 69.1349 22.7544 68.3795 22.2971 67.4145C21.8546 68.5354 20.7287 69.2274 19.7159 69.7343L19.2734 69.2226C20.5518 68.5939 21.8891 67.7557 21.8891 66.1376V64.3978H22.7151V66.1279C22.7151 67.6923 24.072 68.4233 25.2766 68.896L24.9177 69.4955L24.9128 69.4906ZM27.7595 73.638H21.2057V70.4897H22.012V72.9752H27.7595V73.638ZM27.5235 70.9283H26.7417V66.8053H24.5932V66.1425H26.7417V64.0664H27.5235V70.9283Z" fill="#231F20"/>
<path d="M33.9094 69.8367V71.5571H38.1131V72.2052H28.9043V71.5571H33.0932V69.8367H33.9094ZM30.2072 69.1447V64.6123H36.8544V65.2654H30.9889V68.4965H36.9823V69.1447H30.2072Z" fill="#231F20"/>
<path d="M41.9781 64.5099V67.1513C41.9683 68.8181 43.2908 70.017 44.6036 70.6456L44.2004 71.2646C43.3548 70.7918 42.1158 69.9536 41.5553 68.6183C41.0587 69.9828 39.9574 70.8211 38.8463 71.4936L38.3398 70.9381C39.8247 70.1193 41.157 68.8619 41.157 67.1075V64.505H41.983L41.9781 64.5099ZM46.6882 73.7939H45.9065V64.0664H46.6882V73.7939Z" fill="#231F20"/>
<path d="M51.707 64.9207H53.885V65.5493H51.707V65.5688C51.707 67.1235 53 67.8594 54.2046 68.337L53.8457 68.9121C52.9459 68.566 51.7512 67.8106 51.294 66.8554C50.8613 67.9666 49.7797 68.6489 48.7619 69.1509L48.3047 68.6489C49.5879 68.0202 50.8859 67.182 50.8859 65.5737V65.5396H48.6931V64.9109H50.8859V63.7656H51.7021V64.9109L51.707 64.9207ZM56.6481 73.8489H50.0304V71.4658H55.5763V70.3205H50.0304V69.6918H56.4023V72.075H50.8564V73.23H56.6432V73.8489H56.6481ZM56.4269 69.1703H55.6452V66.948H53.6982V66.2998H55.6452V64.0727H56.4269V69.1703Z" fill="#231F20"/>
<path d="M62.8137 69.8367V71.5571H67.0174V72.2052H57.8086V71.5571H61.9975V69.8367H62.8137ZM59.1066 69.1447V64.6123H65.7538V65.2654H59.8883V68.4965H65.8816V69.1447H59.1066Z" fill="#231F20"/>
<path d="M70.0864 73.9953C68.9851 72.4017 68.3164 70.4571 68.3164 68.7807C68.3164 67.1042 68.9851 65.2035 70.0864 63.6099H70.6665C69.6488 65.2766 69.1227 67.0701 69.1227 68.805C69.1227 70.54 69.6537 72.3188 70.6665 74.0002H70.0864V73.9953Z" fill="#231F20"/>
<path d="M80.7508 70.125H76.5471V73.7996H75.731V70.125H71.5371V69.4768H80.7459V70.125H80.7508ZM72.2598 67.8247C73.666 67.5323 75.7015 66.504 75.7015 65.2758V65.1394H72.781V64.4814H79.4823V65.1394H76.5717V65.2758C76.5717 66.4601 78.5433 67.4981 80.0133 67.8247L79.6446 68.4339C78.2778 68.1073 76.8274 67.2593 76.139 66.2846C75.3868 67.3519 73.9364 68.1415 72.6335 68.4339L72.2648 67.8247H72.2598Z" fill="#231F20"/>
<path d="M81.6504 73.9933C82.6681 72.3169 83.1942 70.5721 83.1942 68.8225C83.1942 67.073 82.6632 65.2649 81.6504 63.5981H82.2453C83.3368 65.1918 84.0005 67.1217 84.0005 68.8031C84.0005 70.4844 83.3319 72.4046 82.2453 73.9982H81.6504V73.9933Z" fill="#231F20"/>
</svg>
