<svg width="403" height="47" viewBox="0 0 403 47" fill="none" xmlns="http://www.w3.org/2000/svg">
<g clip-path="url(#clip0_66_2179)">
<path d="M281.346 21.3033V46.9597H277.095L257.284 28.7053V46.9998H251.168V21.2832L257.805 21.3033L275.23 36.8897V21.3033H281.346Z" fill="#DEA2BE"/>
<path d="M298.811 21.4639H302.54V44.1916H314.872V46.9598H298.811V21.4639Z" fill="#DEA2BE"/>
<path d="M331.114 21.4639H327.385V46.9598H331.114V21.4639Z" fill="#DEA2BE"/>
<path d="M349 46.9598V21.4639H353.071L362.314 34.3623C364.46 37.3512 366.124 40.0392 367.508 42.647L367.588 42.6068C367.247 39.2167 367.167 36.1075 367.167 32.1357V21.4639H370.676V46.9598H366.906L357.743 34.0213C355.717 31.1928 353.792 28.2842 352.349 25.5159L352.228 25.5561C352.429 28.7656 352.529 31.8348 352.529 36.0674V46.9598H349.02H349Z" fill="#DEA2BE"/>
<path d="M401.716 35.0042H390.487V44.1916H403V46.9598H386.758V21.4639H402.358V24.2321H390.487V32.2761H401.716V35.0042Z" fill="#DEA2BE"/>
<path d="M221.732 46.9596H149.165V27.5819H0V21.4637H155.281V40.8414H215.616V21.3032H221.732V46.9596Z" fill="#DEA2BE"/>
<path d="M224.94 7.40205C221.411 8.00384 218.684 11.1131 218.684 14.8242C218.684 11.1131 215.957 8.00384 212.428 7.40205C215.957 6.80026 218.684 3.69099 218.684 0C218.684 3.69099 221.411 6.80026 224.94 7.40205Z" fill="#DEA2BE"/>
</g>
<defs>
<clipPath id="clip0_66_2179">
<rect width="403" height="47" fill="white"/>
</clipPath>
</defs>
</svg>
