<svg width="13" height="16" viewBox="0 0 13 16" fill="none" xmlns="http://www.w3.org/2000/svg">
<path d="M5.64453 9.74609H7.75391L9.12109 11.5039C10.0488 10.625 10.625 9.19922 10.625 7.26562C10.625 3.82812 8.80859 1.97266 6.38672 1.97266C3.94531 1.97266 2.12891 3.82812 2.12891 7.26562C2.12891 10.7031 3.94531 12.5586 6.38672 12.5586C6.83594 12.5586 7.25586 12.5 7.65625 12.3633L5.64453 9.74609ZM12.7539 7.26562C12.7539 9.86328 11.8555 11.8848 10.3906 13.125L12.3047 15.6055H10.0977L8.90625 14.043C8.14453 14.3652 7.29492 14.5312 6.38672 14.5312C2.69531 14.5312 0 11.7773 0 7.26562C0 2.73438 2.69531 0 6.38672 0C10.0391 0 12.7539 2.73438 12.7539 7.26562Z" fill="white"/>
</svg>
