<svg width="44" height="44" viewBox="0 0 44 44" fill="none" xmlns="http://www.w3.org/2000/svg">
<path d="M12 0.5H32C38.3513 0.5 43.5 5.64873 43.5 12V32C43.5 38.3513 38.3513 43.5 32 43.5H12C5.64873 43.5 0.5 38.3513 0.5 32V12C0.5 5.64873 5.64873 0.500001 12 0.5Z" stroke="white"/>
<path d="M26.9892 8C25.362 8 24.1147 9.23774 24.1147 10.8549C24.1147 12.4722 25.3656 13.7134 26.9892 13.7134C28.6129 13.7134 29.8602 12.4757 29.8602 10.8549C29.8602 9.23419 28.6129 8 26.9892 8ZM26.6416 14.4192C23.7993 14.4192 18.129 14.4298 18.129 14.4298C16.914 14.4688 16.7025 14.7029 16.233 15.3909L13.5771 19.7886C12.767 21.498 15.1828 22.6755 16.0753 21.0618L18.2401 17.3061C18.2796 17.2351 18.3441 17.2209 18.4194 17.2209L21.4122 17.2564C20.595 18.9836 19.7778 20.7072 18.9606 22.4414C18.7097 23.0869 18.6344 23.6827 18.5663 24.5374C18.4588 26.261 18.362 27.9917 18.2616 29.7153C18.2294 29.9423 18.1541 30.0984 17.8746 30.0984C15.6882 30.0913 11.5054 30.0416 11.5054 30.0416C9.33333 30.1267 8 31.8858 8 33.2157L19.7133 33.1874C20.7491 33.1555 21.5412 32.8611 21.6344 31.7014L21.9892 25.0091C23.8781 28.772 25.7742 32.5277 27.6595 36.2906C28.129 37.1063 28.6882 38.0213 30.0251 37.9929L32.5842 38L25.6129 24.0693C25.4731 23.8068 25.6595 23.4699 25.7384 23.3174C26.4373 21.8456 27.1004 20.5511 27.8065 19.0297L30.3441 21.9981C30.7634 22.4131 30.8889 22.5159 31.4731 22.5265C31.4875 22.5265 31.5018 22.5265 31.5161 22.5265C31.5376 22.5265 31.5484 22.5265 31.5699 22.5265C31.6022 22.5265 31.6344 22.5265 31.6703 22.5265H36.6165C37.3835 22.5265 38 21.9165 38 21.1576C38 20.3986 37.3835 19.7886 36.6165 19.7886H34.2617C33.7133 19.7567 33.0932 19.7461 32.3835 19.7567C32 19.7567 31.9104 19.6787 31.7491 19.4872C30.5914 18.1395 29.2975 16.5968 28.1111 15.1498C27.6703 14.6852 27.5663 14.3979 26.6416 14.4192Z" fill="white"/>
<path d="M25 43H28.7412L32 40H28.2552L25 43Z" fill="white"/>
</svg>
