<svg width="60" height="60" viewBox="0 0 60 60" fill="none" xmlns="http://www.w3.org/2000/svg">
<path d="M38.4025 55.8125H52.24C53.197 55.8168 54.1184 55.4559 54.8104 54.8057C55.5023 54.1556 55.9108 53.2669 55.95 52.3266C56.0825 49.0226 56.25 43.7224 56.25 37.9896C56.25 33.6101 56.055 29.662 55.8437 26.6788C55.6087 23.3355 52.9738 20.7075 49.5725 20.4752C47.1695 20.3107 44.7623 20.2119 42.3537 20.179M29.27 55.8125L29.2775 55.6834C29.3313 54.3314 29.375 52.393 29.375 49.6667C29.375 46.9404 29.3313 45.002 29.2775 43.6499C29.2038 41.8209 28.165 40.2746 26.3212 40.0239C25.2614 39.8897 24.1936 39.8261 23.125 39.8333C22.0564 39.8261 20.9886 39.8897 19.9287 40.0239C18.085 40.2746 17.0463 41.8209 16.9725 43.6499C16.9188 45.002 16.875 46.9404 16.875 49.6667C16.869 51.7158 16.904 53.7648 16.98 55.8125M16.25 15.25V17.7083M16.25 28.7708V31.2292M30 15.25V17.7083M30 28.7708V31.2292" stroke="white" stroke-width="2" stroke-linecap="round" stroke-linejoin="round"/>
<path d="M35.7625 4.79225C37.3609 4.92716 38.8574 5.62057 39.9807 6.74685C41.1041 7.87314 41.7801 9.35782 41.8862 10.9319C42.185 15.0128 42.5 21.3626 42.5 30C42.5 40.577 42.2637 48.2359 42.095 52.3487C42.0555 53.2839 41.6486 54.1675 40.9598 54.8136C40.2711 55.4597 39.3543 55.8178 38.4025 55.8125H7.86C6.9053 55.8165 5.98624 55.4562 5.29618 54.8074C4.60611 54.1586 4.19883 53.272 4.16 52.334C3.99125 48.1253 3.75 40.3041 3.75 30C3.75 21.5704 4.0725 15.1492 4.375 10.9885C4.48069 9.40118 5.16046 7.90345 6.29141 6.7661C7.42235 5.62876 8.92983 4.92686 10.5412 4.78733C13.8725 4.48496 18.3612 4.1875 23.125 4.1875C27.9138 4.1875 32.425 4.48742 35.7625 4.79225Z" stroke="white" stroke-width="2" stroke-linecap="round" stroke-linejoin="round"/>
<path d="M29.27 55.8125L29.2775 55.6834C29.3313 54.3314 29.375 52.393 29.375 49.6667C29.375 46.9404 29.3313 45.002 29.2775 43.6499C29.2038 41.8209 28.165 40.2746 26.3212 40.0239C25.2614 39.8897 24.1936 39.8261 23.125 39.8333C22.0564 39.8261 20.9886 39.8897 19.9287 40.0239C18.085 40.2746 17.0463 41.8209 16.9725 43.6499C16.9188 45.002 16.875 46.9404 16.875 49.6667C16.869 51.7158 16.904 53.7648 16.98 55.8125M16.25 15.25V17.7083V15.25ZM16.25 28.7708V31.2292V28.7708ZM30 15.25V17.7083V15.25ZM30 28.7708V31.2292V28.7708Z" fill="#E749A2"/>
<path d="M16.98 55.8125C16.904 53.7648 16.869 51.7158 16.875 49.6667C16.875 46.9404 16.9188 45.002 16.9725 43.6499C17.0463 41.8209 18.085 40.2746 19.9287 40.0239C20.9886 39.8897 22.0564 39.8261 23.125 39.8333C24.1936 39.8261 25.2614 39.8897 26.3212 40.0239C28.165 40.2746 29.2038 41.8209 29.2775 43.6499C29.3313 45.002 29.375 46.9404 29.375 49.6667C29.375 52.393 29.3313 54.3314 29.2775 55.6834L29.27 55.8125L16.75 56M16.25 15.25V17.7083M16.25 28.7708V31.2292M30 15.25V17.7083M30 28.7708V31.2292" stroke="white" stroke-width="2" stroke-linecap="round" stroke-linejoin="round"/>
</svg>
