<svg width="77" height="76" viewBox="0 0 77 76" fill="none" xmlns="http://www.w3.org/2000/svg">
<rect width="77" height="76" rx="2" fill="#8B1943"/>
<g clip-path="url(#clip0_222_15774)">
<path d="M29.5472 48.9655L29.5286 51.2659C29.5286 51.2973 29.5251 51.3288 29.5176 51.3602C29.2523 52.4223 28.6017 53.2864 27.5693 53.9516C26.6667 54.5336 25.76 54.5225 24.5939 54.4835C24.0987 54.4667 23.6058 54.3205 23.1146 54.0406C21.7483 53.2656 21.0534 52.0959 21.033 50.5294C21.0184 49.3969 21.0034 48.7866 20.9905 48.7033C20.9794 48.6311 20.9312 48.5718 20.8643 48.5439C20.7381 48.4903 20.4807 48.2901 20.0932 47.9468C19.0493 47.0265 18.5227 45.8644 18.5099 44.4644C18.497 42.9072 18.497 41.1311 18.5081 39.1346C18.5227 36.6579 20.1211 34.528 22.2656 33.4212C22.5827 33.256 22.9849 33.0652 23.4743 32.8486C23.643 32.7746 23.7728 32.6333 23.8357 32.461C24.516 30.5774 25.0275 29.0982 25.3707 28.0232C25.8065 26.6587 26.2291 25.6985 26.6423 25.1427C27.5786 23.8804 28.9334 22.9681 30.4592 22.6049C30.7222 22.5402 31.1727 22.5083 31.8104 22.5083C38.5012 22.499 43.2597 22.4973 46.0907 22.5043C48.0686 22.5079 49.9669 23.8002 51.0515 25.5094C51.3093 25.9155 51.6206 26.6605 51.986 27.7487C52.4568 29.1557 53.0149 30.7333 53.658 32.485C53.7045 32.6112 53.8023 32.7091 53.9286 32.7556C56.1311 33.5546 57.9385 35.1583 58.6206 37.3807C58.8447 38.1093 58.9488 39.1806 58.9319 40.5917C58.9151 42.1082 58.908 43.3686 58.9098 44.3718C58.9133 46.0641 58.2277 47.3954 56.8521 48.3649C56.4982 48.6152 56.4274 48.7618 56.4349 49.2104C56.4517 50.393 56.4203 51.1144 56.3406 51.3717C55.8977 52.816 54.9964 53.7722 53.6358 54.2413C53.6283 54.243 53.5432 54.2692 53.382 54.3192C53.1079 54.4025 52.839 54.4565 52.5773 54.4769C52.0006 54.5269 51.0405 54.4826 50.5103 54.2749C48.977 53.6761 48.0465 52.297 48.0243 50.6339C48.0186 50.098 48.0261 49.6329 48.0505 49.2361C48.0615 49.0452 47.9096 48.884 47.7187 48.884H29.6305C29.5862 48.884 29.549 48.9212 29.5472 48.9655ZM38.7585 32.2927C46.7466 32.2945 50.8194 32.2963 50.9731 32.2945C51.0715 32.2945 51.1383 32.1962 51.1047 32.1054C50.4355 30.3148 49.9589 29.0078 49.679 28.1845C49.1657 26.6791 48.4907 25.6467 47.1301 25.0904C46.724 24.9252 46.0384 24.8384 45.0689 24.8309C44.4626 24.8251 42.3606 24.8216 38.7621 24.8216C35.1618 24.8198 33.0598 24.8216 32.4553 24.8251C31.4858 24.8326 30.798 24.9194 30.3918 25.0846C29.0313 25.6391 28.3563 26.6715 27.8412 28.1769C27.5613 28.9998 27.0847 30.3068 26.4138 32.0957C26.3783 32.1865 26.447 32.2848 26.5453 32.2848C26.699 32.2865 30.7701 32.2883 38.7581 32.2923M23.0571 46.4853H54.4454C55.6412 46.4853 56.609 45.5176 56.609 44.3218V39.6798C56.609 36.8918 54.1748 34.6317 51.172 34.6317H26.3309C23.3277 34.6317 20.8935 36.8913 20.8935 39.6798V44.3218C20.8935 45.5176 21.8612 46.4853 23.0571 46.4853ZM26.9129 48.8951H23.7205C23.5146 48.8951 23.348 49.0621 23.348 49.2676V50.5781C23.348 51.3846 24.0562 52.0387 24.9292 52.0387H25.7042C26.5772 52.0387 27.2854 51.3841 27.2854 50.5781V49.2676C27.2854 49.0616 27.1184 48.8951 26.9129 48.8951ZM53.8373 48.9062H50.6711C50.4988 48.9062 50.358 49.047 50.358 49.2193V50.5077C50.358 51.2991 51.0254 51.9426 51.8465 51.9426H52.6623C53.4835 51.9426 54.1509 51.2996 54.1509 50.5077V49.2193C54.1509 49.047 54.0101 48.9062 53.8378 48.9062H53.8373Z" fill="white"/>
<path d="M30.4947 40.7737C30.4947 42.7464 28.8968 44.3444 26.9241 44.3444C24.9515 44.3444 23.3535 42.7464 23.3535 40.7737C23.3535 38.8011 24.9515 37.2031 26.9241 37.2031C28.8968 37.2031 30.4947 38.8011 30.4947 40.7737ZM28.2032 40.8052C28.2032 40.1028 27.6323 39.5314 26.9294 39.5314C26.2266 39.5314 25.6557 40.1023 25.6557 40.8052C25.6557 41.5081 26.2266 42.0789 26.9294 42.0789C27.6323 42.0789 28.2032 41.5081 28.2032 40.8052Z" fill="white"/>
<path d="M54.1017 39.7011C54.6982 41.5594 53.6508 43.5596 51.7619 44.1654C49.8729 44.7722 47.8577 43.7562 47.2603 41.8978C46.6637 40.0394 47.7111 38.0393 49.6001 37.4334C51.489 36.8267 53.5042 37.8427 54.1017 39.7011ZM51.9527 40.807C51.9527 40.1081 51.3854 39.5407 50.6865 39.5407C49.9876 39.5407 49.4203 40.1081 49.4203 40.807C49.4203 41.5059 49.9876 42.0732 50.6865 42.0732C51.3854 42.0732 51.9527 41.5059 51.9527 40.807Z" fill="white"/>
</g>
<defs>
<clipPath id="clip0_222_15774">
<rect width="40.4336" height="32" fill="white" transform="translate(18.5 22.5)"/>
</clipPath>
</defs>
</svg>
