<svg width="44" height="44" viewBox="0 0 44 44" fill="none" xmlns="http://www.w3.org/2000/svg">
<path d="M12 0.5H32C38.3513 0.5 43.5 5.64873 43.5 12V32C43.5 38.3513 38.3513 43.5 32 43.5H12C5.64873 43.5 0.5 38.3513 0.5 32V12C0.5 5.64873 5.64873 0.500001 12 0.5Z" stroke="white"/>
<path d="M19.0605 7.50098C20.9333 7.53367 22.4366 9.03114 22.498 10.8818L22.499 11.0625C22.466 12.994 20.8732 14.5325 18.9395 14.499C17.0062 14.4653 15.4671 12.8703 15.501 10.9375C15.534 9.00601 17.1268 7.46748 19.0605 7.50098Z" fill="white" stroke="white"/>
<path d="M34.4619 13.501C35.2851 13.4932 35.8679 13.5462 36.2354 13.6426V13.6436C36.9612 13.8359 37.5645 14.1385 38.0557 14.5459L38.2588 14.7266C38.6991 15.1459 39.0386 15.657 39.2744 16.2666L39.3691 16.5332C39.4061 16.6478 39.4302 16.7787 39.4375 16.9277V16.9287C39.4452 17.0792 39.4709 17.2275 39.4834 17.3164C39.4904 17.366 39.4955 17.4093 39.498 17.4502V17.5703C39.3746 19.2658 38.3132 20.5539 36.6133 21.1162C36.6125 21.1165 36.6074 21.1181 36.5967 21.1211C36.5856 21.1242 36.5706 21.1281 36.5518 21.1328C36.5138 21.1424 36.4635 21.1545 36.4004 21.1689C36.274 21.1978 36.1019 21.2346 35.8838 21.2803C35.8107 21.2955 35.7373 21.304 35.6641 21.3047H35.6611C35.3562 21.3091 34.979 21.3113 34.5293 21.3125H32.9629C32.4938 21.3118 32.0804 21.4895 31.7432 21.7021C31.4905 21.8615 31.2622 22.0522 31.0664 22.2314L30.8818 22.4053C27.3654 25.7845 22.9691 30.0217 17.6934 35.1172L17.6924 35.1182C17.4673 35.3361 17.1319 35.5805 16.6699 35.8467H16.6689C16.2438 36.0924 15.821 36.265 15.3994 36.3672L15.2188 36.4062C14.8991 36.4684 14.3635 36.5029 13.5859 36.5H8.83691C8.56586 36.501 8.39646 36.4906 8.30859 36.4766H8.30957C8.17163 36.4542 8.00381 36.4407 7.89551 36.4287C7.77005 36.4149 7.66604 36.3988 7.57129 36.3701H7.57031C6.37595 36.0103 5.52229 35.343 4.96973 34.3711C4.70583 33.9067 4.5492 33.3646 4.50977 32.7334L4.5 32.458C4.4992 32.3042 4.51389 32.2112 4.52832 32.1631L4.5293 32.1621C4.57379 32.0121 4.58579 31.8681 4.59473 31.7793C4.60489 31.6784 4.61233 31.6261 4.62695 31.5781V31.5762C4.97891 30.4121 5.69953 29.5824 6.8125 29.0605L6.81348 29.0596C6.97703 28.9824 7.17922 28.9176 7.42383 28.8672L7.42285 28.8662C7.67254 28.816 7.8974 28.7722 8.11426 28.7529L8.33008 28.7432C10.3032 28.7422 11.4297 28.7375 11.6992 28.7324H11.7002C12.4118 28.7179 13.0614 28.5483 13.6396 28.2178L13.8838 28.0664C14.1716 27.8714 14.5314 27.5154 14.6689 27.3818C17.473 24.6789 21.6069 20.7094 27.0684 15.4746C27.898 14.6791 28.3954 14.194 29.2383 13.833H29.2393C29.742 13.6167 30.39 13.4932 30.9766 13.5029C31.3599 13.5094 31.8421 13.5121 32.4229 13.5117L34.4619 13.501Z" fill="white" stroke="white"/>
<path d="M18.5439 16.5205C19.0442 16.4699 19.5353 16.5122 20.0205 16.6475C20.4068 16.7552 20.8299 16.9854 21.291 17.3604L15.5029 22.8799C15.4996 21.5203 15.4997 20.4364 15.5049 19.6279C15.5123 18.5962 16.0898 17.6529 16.9814 17.0645L17.1641 16.9512C17.5635 16.7195 18.0214 16.5736 18.5439 16.5205Z" fill="white" stroke="white"/>
</svg>
