<svg width="46" height="46" viewBox="0 0 46 46" fill="none" xmlns="http://www.w3.org/2000/svg">
<path d="M13.25 19.8784H33.1149M17.9165 14.7703V12.5M28.4165 14.7703V12.5M29.1419 14.7703H17.223C16.1693 14.7703 15.1587 15.1889 14.4137 15.9339C13.6686 16.679 13.25 17.6895 13.25 18.7432V29.527C13.25 30.5807 13.6686 31.5913 14.4137 32.3363C15.1587 33.0814 16.1693 33.5 17.223 33.5H29.1419C30.1956 33.5 31.2061 33.0814 31.9512 32.3363C32.6963 31.5913 33.1149 30.5807 33.1149 29.527V18.7432C33.1149 17.6895 32.6963 16.679 31.9512 15.9339C31.2061 15.1889 30.1956 14.7703 29.1419 14.7703Z" stroke="#75787A" stroke-width="1.5" stroke-linecap="round" stroke-linejoin="round"/>
</svg>
