<svg width="56" height="56" viewBox="0 0 56 56" fill="none" xmlns="http://www.w3.org/2000/svg">
<path d="M38.3579 44.8038C37.4406 43.6896 36.1753 42.5012 34.5971 41.2715C32.8292 39.8651 31.5138 39.0926 30.4591 38.8407C30.1065 38.7546 29.7929 38.7129 29.5016 38.7129C28.9434 38.7129 28.4688 38.8681 28.0912 39.1745C27.6451 39.5362 27.3137 40.117 27.0156 41.0568C27.0145 41.0599 27.0137 41.0632 27.0126 41.0662C26.5714 42.4933 26.2142 43.1715 26.0055 43.4817C25.6552 43.3185 24.8796 42.8448 23.4533 41.482C21.8982 39.9959 19.9011 37.7741 17.5178 34.8783C15.2056 32.0693 13.4646 29.7531 12.3428 27.9941C11.3285 26.4038 11.0214 25.5787 10.9289 25.2087C11.28 25.0734 12.0337 24.8632 13.557 24.7053C13.56 24.7053 13.563 24.7046 13.5661 24.7042C14.5258 24.5982 15.1575 24.3858 15.6142 24.0155C16.1805 23.5561 16.4554 22.8162 16.4316 21.8166C16.4316 21.8068 16.4308 21.7971 16.4304 21.7873C16.3816 20.7065 15.8828 19.267 14.8613 17.2572C14.8602 17.255 14.8591 17.2527 14.8579 17.2505C13.9463 15.4809 13.0146 14.0132 12.0882 12.8877C11.3088 11.9411 10.4082 11.7422 9.78934 11.7422C8.93189 11.7422 8.06686 12.1057 7.14465 12.8538C4.96429 14.6223 3.45201 16.5756 2.64947 18.6629C1.66893 21.2302 1.80073 24.1505 3.04222 27.3441C4.62532 31.4031 7.32758 35.7693 11.074 40.3211C14.8208 44.873 18.5922 48.3723 22.2837 50.7211C22.2856 50.7223 22.2871 50.7234 22.289 50.7245C24.6853 52.2343 27.0239 52.9997 29.2395 52.9997C29.7682 52.9997 30.2977 52.9561 30.8132 52.87C30.8151 52.87 30.817 52.8693 30.8189 52.8689C33.0219 52.4914 35.2122 51.4302 37.3281 49.714C38.2159 48.9941 38.7548 48.2644 38.9756 47.4835C39.2377 46.5576 39.0184 45.6061 38.3587 44.8042L38.3579 44.8038Z" fill="#3D4247"/>
<path d="M52.7818 10.5338C52.0103 9.04663 50.9108 7.71505 49.5141 6.57595C46.6861 4.26956 42.9396 2.99963 38.9645 2.99963C34.9893 2.99963 31.2429 4.26956 28.4149 6.57595C27.0181 7.71505 25.9186 9.04663 25.1472 10.5338C24.3386 12.0925 23.9288 13.7504 23.9288 15.462C23.9288 18.1335 24.9601 20.7241 26.8537 22.8556L24.1867 26.0812C23.8826 26.4489 23.8436 26.9669 24.0897 27.3752C24.2973 27.7203 24.6703 27.9244 25.065 27.9244C25.1377 27.9244 25.2108 27.9177 25.2839 27.9034L32.1333 26.5696C34.2352 27.4568 36.5887 27.9244 38.9645 27.9244C42.9396 27.9244 46.6861 26.6545 49.5141 24.3481C50.9108 23.209 52.0103 21.8775 52.7818 20.3902C53.5904 18.8316 54.0002 17.1737 54.0002 15.462C54.0002 13.7504 53.5904 12.0925 52.7818 10.5338Z" fill="#F2C15C"/>
<path d="M47.5307 10.5753H30.3976C30.0146 10.5753 29.7041 10.8835 29.7041 11.2637V11.917C29.7041 12.2972 30.0146 12.6054 30.3976 12.6054H47.5307C47.9137 12.6054 48.2241 12.2972 48.2241 11.917V11.2637C48.2241 10.8835 47.9137 10.5753 47.5307 10.5753Z" fill="#F2F2F2"/>
<path d="M47.5307 14.6355H30.3976C30.0146 14.6355 29.7041 14.9437 29.7041 15.3238V15.9772C29.7041 16.3574 30.0146 16.6656 30.3976 16.6656H47.5307C47.9137 16.6656 48.2241 16.3574 48.2241 15.9772V15.3238C48.2241 14.9437 47.9137 14.6355 47.5307 14.6355Z" fill="#F2F2F2"/>
<path d="M41.6603 18.6956H30.3976C30.0146 18.6956 29.7041 19.0037 29.7041 19.3839V20.0373C29.7041 20.4174 30.0146 20.7256 30.3976 20.7256H41.6603C42.0433 20.7256 42.3538 20.4174 42.3538 20.0373V19.3839C42.3538 19.0037 42.0433 18.6956 41.6603 18.6956Z" fill="#F2F2F2"/>
</svg>
