<svg width="14" height="14" viewBox="0 0 14 14" fill="none" xmlns="http://www.w3.org/2000/svg">
<path d="M7 0C5.61553 0 4.26215 0.410543 3.11101 1.17971C1.95987 1.94888 1.06266 3.04213 0.532846 4.32122C0.00303299 5.6003 -0.13559 7.00776 0.134506 8.36563C0.404603 9.7235 1.07129 10.9708 2.05026 11.9497C3.02922 12.9287 4.2765 13.5954 5.63437 13.8655C6.99224 14.1356 8.3997 13.997 9.67879 13.4672C10.9579 12.9373 12.0511 12.0401 12.8203 10.889C13.5895 9.73785 14 8.38447 14 7C13.998 5.14409 13.2599 3.36475 11.9476 2.05242C10.6353 0.740087 8.85592 0.00195988 7 0ZM7 12.9231C5.82853 12.9231 4.68336 12.5757 3.70932 11.9249C2.73527 11.274 1.9761 10.349 1.52779 9.26666C1.07949 8.18436 0.962193 6.99343 1.19074 5.84446C1.41928 4.6955 1.9834 3.64011 2.81175 2.81175C3.64011 1.98339 4.6955 1.41928 5.84447 1.19073C6.99343 0.96219 8.18436 1.07949 9.26667 1.52779C10.349 1.97609 11.274 2.73527 11.9249 3.70931C12.5757 4.68336 12.9231 5.82853 12.9231 7C12.9213 8.57035 12.2967 10.0759 11.1863 11.1863C10.0759 12.2967 8.57035 12.9213 7 12.9231ZM6.46154 7.53846V3.76923C6.46154 3.62642 6.51827 3.48946 6.61925 3.38848C6.72023 3.2875 6.85719 3.23077 7 3.23077C7.14281 3.23077 7.27977 3.2875 7.38075 3.38848C7.48173 3.48946 7.53846 3.62642 7.53846 3.76923V7.53846C7.53846 7.68127 7.48173 7.81823 7.38075 7.91921C7.27977 8.02019 7.14281 8.07692 7 8.07692C6.85719 8.07692 6.72023 8.02019 6.61925 7.91921C6.51827 7.81823 6.46154 7.68127 6.46154 7.53846ZM7.80769 9.96154C7.80769 10.1213 7.76032 10.2774 7.67157 10.4103C7.58282 10.5431 7.45668 10.6466 7.30909 10.7077C7.16151 10.7689 6.99911 10.7849 6.84243 10.7537C6.68575 10.7225 6.54183 10.6456 6.42888 10.5327C6.31592 10.4197 6.23899 10.2758 6.20783 10.1191C6.17666 9.96243 6.19266 9.80003 6.25379 9.65245C6.31492 9.50486 6.41845 9.37872 6.55127 9.28997C6.6841 9.20122 6.84026 9.15384 7 9.15384C7.21422 9.15384 7.41965 9.23894 7.57113 9.39041C7.7226 9.54188 7.80769 9.74732 7.80769 9.96154Z" fill="#75777A"/>
</svg>
