<svg width="16" height="16" viewBox="0 0 16 16" fill="none" xmlns="http://www.w3.org/2000/svg">
<path d="M1.63654 10.7075C1.82406 10.895 2.07837 11.0003 2.34354 11.0003C2.6087 11.0003 2.86301 10.895 3.05054 10.7075L8.00054 5.75754L12.9505 10.7075C13.1391 10.8897 13.3917 10.9905 13.6539 10.9882C13.9161 10.9859 14.1669 10.8808 14.3524 10.6954C14.5378 10.5099 14.6429 10.2591 14.6452 9.99694C14.6475 9.73474 14.5467 9.48214 14.3645 9.29354L8.70754 3.63654C8.52001 3.44907 8.2657 3.34375 8.00054 3.34375C7.73537 3.34375 7.48106 3.44907 7.29354 3.63654L1.63654 9.29354C1.44907 9.48106 1.34375 9.73537 1.34375 10.0005C1.34375 10.2657 1.44907 10.52 1.63654 10.7075Z" fill="#4F609B"/>
</svg>
