<svg width="20" height="20" viewBox="0 0 20 20" fill="none" xmlns="http://www.w3.org/2000/svg">
<path fill-rule="evenodd" clip-rule="evenodd" d="M12.9565 14.4357C11.8888 15.1943 10.6113 15.6015 9.30155 15.6006C5.81469 15.6006 3 12.7865 3 9.30029C3 5.81413 5.81469 3 9.30155 3C12.7884 3 15.6031 5.81413 15.6031 9.30029C15.6031 10.6612 15.1718 11.9184 14.438 12.9545L16.6926 15.2086C16.79 15.306 16.8674 15.4217 16.9201 15.549C16.9729 15.6763 17 15.8128 17 15.9506C17 16.0884 16.9729 16.2249 16.9201 16.3522C16.8674 16.4795 16.79 16.5952 16.6926 16.6926C16.5951 16.7901 16.4794 16.8674 16.3521 16.9201C16.2247 16.9729 16.0882 17 15.9504 17C15.8126 17 15.6761 16.9729 15.5487 16.9201C15.4214 16.8674 15.3057 16.7901 15.2082 16.6926L12.9537 14.4385L12.9565 14.4357ZM14.207 9.29749C14.207 11.9996 12.0084 14.1977 9.30576 14.1977C6.60309 14.1977 4.40455 11.9996 4.40455 9.29749C4.40455 6.59537 6.60309 4.39727 9.30576 4.39727C12.0084 4.39727 14.207 6.59537 14.207 9.29749Z" fill="white"/>
</svg>
