<svg width="77" height="76" viewBox="0 0 77 76" fill="none" xmlns="http://www.w3.org/2000/svg">
<rect width="77" height="76" rx="2" fill="#8B1943"/>
<g clip-path="url(#clip0_222_15751)">
<path d="M18.6898 33.5528L18.5517 33.1947C18.5318 33.143 18.5219 33.0881 18.5199 33.0332L18.5 28.1059C18.5 28.0474 18.5068 27.9925 18.5215 27.9376C18.6997 27.2565 19.121 26.7918 19.7823 26.544C19.8089 26.5356 19.8356 26.5308 19.8638 26.5288L22.4017 26.5121C22.5381 26.5105 22.6463 26.394 22.6364 26.2575C22.4781 23.9663 23.304 22.1128 25.111 20.6956C26.6996 19.4516 28.32 19.4965 30.608 19.5013C34.3163 19.5097 39.9649 19.5144 47.5518 19.518C48.7207 19.518 49.7834 19.553 50.8508 20.0941C52.1179 20.735 53.0771 21.7026 53.73 22.9968C54.2913 24.1076 54.351 25.1917 54.2862 26.3988C54.283 26.4552 54.3279 26.5022 54.3829 26.5038C55.2673 26.5153 55.8199 26.5169 56.0383 26.507C56.7978 26.4751 57.3174 26.5336 57.5986 26.6852C58.0649 26.935 58.3828 27.3229 58.5527 27.8493C58.5578 27.8644 58.5594 27.8791 58.5594 27.8943L58.5793 33.0646C58.5809 33.2528 58.5093 33.4342 58.3796 33.5707C57.9284 34.0453 57.4339 34.1253 56.896 33.8106C56.5579 33.6125 56.3932 33.3077 56.4015 32.8948C56.4333 31.4092 56.4349 29.9921 56.4047 28.6434C56.4015 28.5435 56.3215 28.4652 56.2233 28.4652H54.4413C54.318 28.4652 54.2213 28.5686 54.2281 28.6915C54.2532 29.126 54.2647 29.4041 54.2647 29.5226C54.2615 35.6622 54.2647 41.6756 54.273 47.5621C54.2746 48.2798 54.2098 48.8177 54.0797 49.1774C53.6385 50.4011 52.6343 51.2955 51.4018 51.7252C51.3469 51.7435 51.3103 51.7952 51.3119 51.8533C51.3369 53.0874 51.475 54.0681 50.9272 54.9239C50.3161 55.8779 49.4384 56.3975 48.2942 56.4826C48.0862 56.4977 47.7432 56.5025 47.2686 56.4977C45.8379 56.4826 44.6941 55.7199 44.1662 54.3864C43.8797 53.6619 43.9613 52.5197 43.978 51.7837C43.9796 51.7387 43.943 51.7021 43.8996 51.7021H32.9708C32.9175 51.7021 32.8741 51.7486 32.8793 51.802C32.931 52.4198 32.9927 53.5939 32.8009 54.2515C32.571 55.0424 32.0665 55.6451 31.2887 56.0617C30.7743 56.3366 30.2663 56.4762 29.7682 56.4846C29.0071 56.4945 28.511 56.5363 27.9663 56.4114C26.9057 56.1667 26.1529 55.5437 25.705 54.5415C25.5999 54.3052 25.5466 53.9038 25.5435 53.3376C25.5419 52.6482 25.5403 52.1369 25.5383 51.8024C25.5383 51.749 25.5033 51.7041 25.4515 51.691C24.2278 51.3763 23.3267 50.4302 22.8703 49.3198C22.702 48.9084 22.6205 48.0224 22.6257 46.6606C22.6372 43.8347 22.6372 37.8117 22.6257 28.5877C22.6257 28.5193 22.5692 28.4644 22.5007 28.4644H20.8139C20.7271 28.4644 20.6591 28.5344 20.6575 28.6207C20.6476 29.8246 20.6492 31.235 20.6643 32.8538C20.6675 33.2401 20.601 33.4832 20.3014 33.6964C19.7902 34.0577 19.2806 34.0461 18.7693 33.6598C18.7327 33.6332 18.7061 33.595 18.6894 33.5532M38.4647 24.8635C45.9016 24.8635 50.4096 24.8651 51.9882 24.8667C52.0582 24.8667 52.1116 24.7982 52.0917 24.7286C51.6819 23.28 50.8062 22.2974 49.4639 21.783C49.0708 21.6314 48.5063 21.555 47.7719 21.5498C46.1666 21.5399 43.0642 21.5347 38.4647 21.5331C33.8652 21.5315 30.7628 21.5363 29.1595 21.5446C28.4235 21.5498 27.8589 21.6278 27.4658 21.7778C26.1235 22.2922 25.2479 23.2749 24.8381 24.7218C24.8182 24.7919 24.8699 24.8599 24.9415 24.8599C26.5186 24.8599 31.0262 24.8615 38.4651 24.8631M37.482 26.9732C37.482 26.9084 37.4287 26.8551 37.3638 26.8551H24.7748C24.71 26.8551 24.6567 26.9084 24.6567 26.9732V37.5842C24.6567 37.649 24.71 37.7023 24.7748 37.7023H37.3638C37.4287 37.7023 37.482 37.649 37.482 37.5842V26.9732ZM52.1844 26.9617C52.1844 26.9016 52.1362 26.8535 52.0761 26.8535H39.6367C39.5766 26.8535 39.5285 26.9016 39.5285 26.9617V37.5925C39.5285 37.6526 39.5766 37.7007 39.6367 37.7007H52.0761C52.1362 37.7007 52.1844 37.6526 52.1844 37.5925V26.9617ZM52.0348 39.8507H24.7911C24.708 39.8507 24.6395 39.9191 24.6395 40.0023V47.6158C24.6395 48.7397 25.5669 49.6524 26.7111 49.6524H50.1144C51.2586 49.6524 52.186 48.7397 52.186 47.6158V40.0023C52.186 39.9191 52.1175 39.8507 52.0344 39.8507M30.6979 51.6989L27.7372 51.7057C27.6556 51.7057 27.5908 51.7705 27.5908 51.8521L27.5924 53.2243C27.5939 53.8469 28.0853 54.3518 28.6896 54.3518L29.7519 54.3486C30.3582 54.3486 30.8475 53.8425 30.8459 53.2179L30.8443 51.8457C30.8443 51.7658 30.7779 51.6993 30.6979 51.6993M49.0871 51.689L46.1662 51.7089C46.0878 51.7089 46.0245 51.7737 46.0245 51.8537L46.0345 53.2493C46.0377 53.8704 46.5541 54.3716 47.1866 54.3669L48.1056 54.3601C48.7366 54.3549 49.2447 53.8489 49.2415 53.2262L49.2316 51.8306C49.2316 51.7522 49.1667 51.689 49.0867 51.689H49.0871Z" fill="white"/>
<path d="M32.3758 44.7291C32.4045 46.3292 31.1091 47.6497 29.4843 47.6775C27.8599 47.7061 26.5195 46.4322 26.4917 44.8317C26.463 43.2316 27.7584 41.9111 29.3832 41.8833C31.0076 41.8546 32.348 43.1285 32.3758 44.7291ZM30.3512 44.7486C30.3512 44.2342 29.933 43.816 29.4186 43.816C28.9042 43.816 28.4861 44.2342 28.4861 44.7486C28.4861 45.263 28.9042 45.6811 29.4186 45.6811C29.933 45.6811 30.3512 45.263 30.3512 44.7486Z" fill="white"/>
<path d="M50.5239 44.7785C50.5239 46.3839 49.2217 47.686 47.6164 47.686C46.0111 47.686 44.709 46.3839 44.709 44.7785C44.709 43.1732 46.0111 41.8711 47.6164 41.8711C49.2217 41.8711 50.5239 43.1732 50.5239 44.7785ZM48.5621 44.7356C48.5621 44.2327 48.1543 43.8245 47.651 43.8245C47.1478 43.8245 46.74 44.2323 46.74 44.7356C46.74 45.2389 47.1478 45.6466 47.651 45.6466C48.1543 45.6466 48.5621 45.2389 48.5621 44.7356Z" fill="white"/>
</g>
<defs>
<clipPath id="clip0_222_15751">
<rect width="40.0789" height="37" fill="white" transform="translate(18.5 19.5)"/>
</clipPath>
</defs>
</svg>
