<svg width="60" height="60" viewBox="0 0 60 60" fill="none" xmlns="http://www.w3.org/2000/svg">
<g clip-path="url(#clip0_59_691)">
<path d="M56.4816 37.14V49.38C56.4816 52.1978 51.4654 54.48 45.2779 54.48C39.0904 54.48 34.0742 52.1978 34.0742 49.38V37.14" stroke="white" stroke-width="2" stroke-linecap="round" stroke-linejoin="round"/>
<path d="M45.2779 42.24C51.4656 42.24 56.4816 39.9567 56.4816 37.14C56.4816 34.3234 51.4656 32.04 45.2779 32.04C39.0903 32.04 34.0742 34.3234 34.0742 37.14C34.0742 39.9567 39.0903 42.24 45.2779 42.24Z" fill="#E749A2" stroke="white" stroke-width="2" stroke-linecap="round" stroke-linejoin="round"/>
<path d="M34.0742 43.26C34.0742 46.0778 39.0904 48.36 45.2779 48.36C51.4654 48.36 56.4816 46.0778 56.4816 43.26" stroke="white" stroke-width="2" stroke-linecap="round" stroke-linejoin="round"/>
<path d="M25.926 27.96V46.32C25.926 49.1377 20.9098 51.42 14.7223 51.42C8.53476 51.42 3.51855 49.1377 3.51855 46.32V27.96" stroke="white" stroke-width="2" stroke-linecap="round" stroke-linejoin="round"/>
<path d="M14.7223 33.06C20.9099 33.06 25.926 30.7766 25.926 27.96C25.926 25.1433 20.9099 22.86 14.7223 22.86C8.53462 22.86 3.51855 25.1433 3.51855 27.96C3.51855 30.7766 8.53462 33.06 14.7223 33.06Z" fill="#E749A2" stroke="white" stroke-width="2" stroke-linecap="round" stroke-linejoin="round"/>
<path d="M3.51855 34.08C3.51855 36.8977 8.53476 39.18 14.7223 39.18C20.9098 39.18 25.926 36.8977 25.926 34.08" stroke="white" stroke-width="2" stroke-linecap="round" stroke-linejoin="round"/>
<path d="M3.51855 40.2C3.51855 43.0177 8.53476 45.3 14.7223 45.3C20.9098 45.3 25.926 43.0177 25.926 40.2" stroke="white" stroke-width="2" stroke-linecap="round" stroke-linejoin="round"/>
<path d="M34.0739 45.9733C32.811 46.1977 31.436 46.3201 29.9999 46.3201C28.5637 46.3201 27.1887 46.1977 25.9258 45.9733" stroke="white" stroke-width="2" stroke-linecap="round" stroke-linejoin="round"/>
<path d="M41.2036 10.62V32.3868" stroke="white" stroke-width="2" stroke-linecap="round" stroke-linejoin="round"/>
<path d="M30.0001 15.72C36.1877 15.72 41.2038 13.4367 41.2038 10.62C41.2038 7.80337 36.1877 5.52002 30.0001 5.52002C23.8125 5.52002 18.7964 7.80337 18.7964 10.62C18.7964 13.4367 23.8125 15.72 30.0001 15.72Z" fill="#E749A2" stroke="white" stroke-width="2" stroke-linecap="round" stroke-linejoin="round"/>
<path d="M18.7964 16.74C18.7964 19.5577 23.8126 21.84 30.0001 21.84C36.1876 21.84 41.2038 19.5577 41.2038 16.74" stroke="white" stroke-width="2" stroke-linecap="round" stroke-linejoin="round"/>
<path d="M25.8979 27.6081C27.1686 27.835 28.5512 27.96 30 27.96C36.1875 27.96 41.2037 25.6777 41.2037 22.86" stroke="white" stroke-width="2" stroke-linecap="round" stroke-linejoin="round"/>
<path d="M25.9258 33.7332C27.1887 33.9576 28.5637 34.08 29.9999 34.08C36.1874 34.08 41.2036 31.7977 41.2036 28.98" stroke="white" stroke-width="2" stroke-linecap="round" stroke-linejoin="round"/>
<path d="M25.9258 39.8533C27.1887 40.0777 28.5637 40.2001 29.9999 40.2001C31.436 40.2001 32.811 40.0777 34.0739 39.8533" stroke="white" stroke-width="2" stroke-linecap="round" stroke-linejoin="round"/>
<path d="M18.7964 10.62V23.2068" stroke="white" stroke-width="2" stroke-linecap="round" stroke-linejoin="round"/>
</g>
<defs>
<clipPath id="clip0_59_691">
<rect width="55" height="51" fill="white" transform="translate(2.5 4.5)"/>
</clipPath>
</defs>
</svg>
