<svg width="77" height="76" viewBox="0 0 77 76" fill="none" xmlns="http://www.w3.org/2000/svg">
<rect width="77" height="76" rx="2" fill="#8B1943"/>
<g clip-path="url(#clip0_222_15727)">
<path d="M49.7653 52.6337C49.6976 52.6371 49.6636 52.7193 49.7117 52.7674C51.3812 54.4727 52.3148 55.4152 52.5144 55.5952C52.9188 55.9588 53.1308 56.2563 53.1521 56.4862C53.2343 57.3789 52.6302 58.2111 51.6784 57.8918C51.2918 57.7616 50.8231 57.1452 50.3919 56.6944C50.2795 56.5752 50.1229 56.5075 49.959 56.5075H27.5447C27.477 56.5075 27.4127 56.5343 27.3646 56.5824C26.6856 57.2559 26.0854 58.2039 25.0161 57.9617C24.9573 57.9493 24.902 57.9242 24.8539 57.8884C23.5977 56.9689 24.3695 56.1691 25.2638 55.3122C26.039 54.571 26.8976 53.6996 27.8422 52.6984C27.8904 52.6469 27.8529 52.5648 27.7835 52.5648C25.4103 52.5933 23.5355 51.3801 22.7463 49.1243C22.5841 48.6612 22.5041 47.9554 22.5041 47.0095C22.5147 33.5436 22.513 26.0621 22.5003 24.5637C22.4879 23.0508 22.9153 21.752 23.7867 20.6635C24.8186 19.3715 26.1263 18.5231 27.7103 18.1187C28.0189 18.0404 28.3216 18.0012 28.6157 18.0012C36.5715 17.9978 43.2386 18.0012 48.6215 18.0136C49.664 18.0153 50.6831 18.3056 51.6826 18.8867C53.9154 20.1838 55.0324 22.19 55.0307 24.9072C55.0307 25.3989 55.0324 32.9128 55.0362 47.4488C55.0362 47.7962 54.9898 48.181 54.8953 48.605C54.808 48.9915 54.6799 49.355 54.5105 49.6956C53.5786 51.5682 51.998 52.5465 49.7657 52.6337M24.7581 25.925H52.7251C52.7856 25.925 52.8358 25.8752 52.8358 25.8144V24.7293C52.8358 22.2526 50.787 20.2446 48.2584 20.2446H29.2249C26.6967 20.2446 24.6474 22.2526 24.6474 24.7293V25.8144C24.6474 25.8748 24.6972 25.925 24.7581 25.925ZM37.6868 28.2055C37.6868 28.1412 37.6331 28.088 37.5693 28.088H24.7722C24.7079 28.088 24.6547 28.1416 24.6547 28.2055V38.2939C24.6547 38.3582 24.7083 38.4114 24.7722 38.4114H37.5688C37.6331 38.4114 37.6863 38.3578 37.6863 38.2939V28.2055M52.8196 28.2093C52.8196 28.145 52.7681 28.0935 52.7038 28.0935H40.0566C39.9923 28.0935 39.9408 28.145 39.9408 28.2093V38.3011C39.9408 38.3654 39.9923 38.4169 40.0566 38.4169H52.7038C52.7681 38.4169 52.8196 38.3654 52.8196 38.3011V28.2093ZM38.7416 50.2928C44.0317 50.2962 47.4117 50.2945 48.8799 50.2928C49.9969 50.2894 50.715 50.2218 51.0305 50.0881C51.7022 49.805 52.21 49.304 52.554 48.588C52.7392 48.2031 52.832 47.5846 52.8303 46.7349C52.8286 43.5989 52.8286 41.5964 52.8286 40.7284C52.8286 40.6786 52.7877 40.6378 52.7379 40.6378C46.997 40.6322 42.3323 40.6271 38.7455 40.6271C35.1586 40.6254 30.4939 40.6254 24.753 40.6271C24.7032 40.6271 24.6623 40.668 24.6623 40.7178C24.6623 41.5853 24.6589 43.5882 24.6551 46.7243C24.6534 47.5744 24.7458 48.1925 24.9314 48.5773C25.2736 49.2937 25.7815 49.7944 26.4532 50.0791C26.7687 50.2111 27.4847 50.2805 28.6038 50.2839C30.072 50.2873 33.452 50.2911 38.7421 50.2928M29.74 54.1947C29.6846 54.2462 29.7221 54.339 29.797 54.339H47.9766C48.0498 54.339 48.0889 54.2518 48.037 54.1981L46.4066 52.4698C46.3904 52.4519 46.3691 52.443 46.3462 52.443H31.6305C31.6092 52.443 31.5879 52.4519 31.5717 52.466L29.74 54.1943V54.1947Z" fill="white"/>
<path d="M45.0875 23.0836C45.0858 23.6714 44.6082 24.1486 44.0203 24.1474L33.5326 24.1291C32.9447 24.1274 32.4671 23.6502 32.4688 23.0619V22.9622C32.4705 22.3748 32.9481 21.8972 33.5364 21.8984L44.0241 21.9167C44.612 21.9184 45.0896 22.3956 45.0879 22.984V23.0836H45.0875Z" fill="white"/>
<path d="M32.2457 45.1041C32.4271 46.6954 31.2509 48.1368 29.6175 48.3232C27.985 48.5092 26.5151 47.3688 26.3329 45.778C26.1516 44.1868 27.3277 42.7454 28.9611 42.5589C30.5936 42.3729 32.0635 43.5133 32.2457 45.1041ZM30.2156 45.3962C30.2067 44.9224 29.7827 44.5465 29.2689 44.5554C28.7547 44.5644 28.343 44.956 28.3519 45.4285C28.3609 45.9023 28.7849 46.2782 29.2987 46.2693C29.8129 46.2603 30.2246 45.8687 30.2156 45.3962Z" fill="white"/>
<path d="M51.1386 45.4413C51.1386 47.0466 49.8376 48.3475 48.2324 48.3475C46.6271 48.3475 45.3262 47.0466 45.3262 45.4413C45.3262 43.8361 46.6271 42.5352 48.2324 42.5352C49.8376 42.5352 51.1386 43.8361 51.1386 45.4413ZM49.154 45.3136C49.0897 44.8479 48.6261 44.5257 48.1187 44.5959C47.6109 44.6645 47.2507 45.0995 47.3146 45.5656C47.3789 46.0314 47.8424 46.3536 48.3499 46.2834C48.8577 46.2148 49.2178 45.7798 49.154 45.3136Z" fill="white"/>
</g>
<defs>
<clipPath id="clip0_222_15727">
<rect width="32.5359" height="40" fill="white" transform="translate(22.5 18)"/>
</clipPath>
</defs>
</svg>
