<svg width="20" height="20" viewBox="0 0 20 20" fill="none" xmlns="http://www.w3.org/2000/svg">
<path d="M4.3657 9.22529C4.2079 9.07355 4.11924 8.86776 4.11924 8.65317C4.11924 8.43859 4.2079 8.23279 4.3657 8.08106C4.5235 7.92932 4.73753 7.84408 4.9607 7.84408C5.18387 7.84408 5.3979 7.92932 5.5557 8.08106L9.16 11.5481V3.80769C9.16 3.59348 9.2485 3.38804 9.40603 3.23657C9.56356 3.0851 9.77722 3 10 3C10.2228 3 10.4364 3.0851 10.594 3.23657C10.7515 3.38804 10.84 3.59348 10.84 3.80769V11.5481L14.4457 8.08039C14.6035 7.92865 14.8175 7.84341 15.0407 7.84341C15.2639 7.84341 15.4779 7.92865 15.6357 8.08039C15.7935 8.23212 15.8822 8.43792 15.8822 8.6525C15.8822 8.86709 15.7935 9.07288 15.6357 9.22462L10.5957 14.0708C10.5177 14.1461 10.4249 14.2058 10.3228 14.2466C10.2207 14.2873 10.1113 14.3083 10.0007 14.3083C9.89014 14.3083 9.78068 14.2873 9.67857 14.2466C9.57647 14.2058 9.48374 14.1461 9.4057 14.0708L4.3657 9.22529ZM16.16 15.3846H3.84C3.61722 15.3846 3.40356 15.4697 3.24603 15.6212C3.0885 15.7727 3 15.9781 3 16.1923C3 16.4065 3.0885 16.612 3.24603 16.7634C3.40356 16.9149 3.61722 17 3.84 17H16.16C16.3828 17 16.5964 16.9149 16.754 16.7634C16.9115 16.612 17 16.4065 17 16.1923C17 15.9781 16.9115 15.7727 16.754 15.6212C16.5964 15.4697 16.3828 15.3846 16.16 15.3846Z" fill="#9D1953"/>
</svg>
