<svg width="16" height="16" viewBox="0 0 16 16" fill="none" xmlns="http://www.w3.org/2000/svg">
<path d="M1.63654 10.707C1.82406 10.8945 2.07837 10.9998 2.34354 10.9998C2.6087 10.9998 2.86301 10.8945 3.05054 10.707L8.00054 5.75705L12.9505 10.707C13.1391 10.8892 13.3917 10.99 13.6539 10.9877C13.9161 10.9854 14.1669 10.8803 14.3524 10.6949C14.5378 10.5095 14.6429 10.2586 14.6452 9.99645C14.6475 9.73425 14.5467 9.48165 14.3645 9.29305L8.70754 3.63605C8.52001 3.44858 8.2657 3.34326 8.00054 3.34326C7.73537 3.34326 7.48106 3.44858 7.29354 3.63605L1.63654 9.29305C1.44907 9.48058 1.34375 9.73488 1.34375 10C1.34375 10.2652 1.44907 10.5195 1.63654 10.707Z" fill="#9D1953"/>
</svg>
