<svg width="44" height="44" viewBox="0 0 44 44" fill="none" xmlns="http://www.w3.org/2000/svg">
<path d="M12 0.5H32C38.3513 0.5 43.5 5.64873 43.5 12V32C43.5 38.3513 38.3513 43.5 32 43.5H12C5.64873 43.5 0.5 38.3513 0.5 32V12C0.5 5.64873 5.64873 0.500001 12 0.5Z" stroke="white"/>
<path d="M8.96351 29.1112L6.00098 32.0737L11.9271 37.9998L14.8896 35.0373L8.96351 29.1112Z" stroke="white" stroke-width="1.5" stroke-linecap="round" stroke-linejoin="round"/>
<path d="M12.868 27.5781L10.1479 30.2981" stroke="white" stroke-width="1.5" stroke-linecap="round" stroke-linejoin="round"/>
<path d="M15.9268 31.6387L13.7046 33.855" stroke="white" stroke-width="1.5" stroke-linecap="round" stroke-linejoin="round"/>
<path d="M35.0384 29.1115L29.1123 35.0376L32.0748 38.0001L38.001 32.074L35.0384 29.1115Z" stroke="white" stroke-width="1.5" stroke-linecap="round" stroke-linejoin="round"/>
<path d="M33.8523 30.2981L31.1323 27.5781" stroke="white" stroke-width="1.5" stroke-linecap="round" stroke-linejoin="round"/>
<path d="M30.2965 33.855L28.0742 31.6387" stroke="white" stroke-width="1.5" stroke-linecap="round" stroke-linejoin="round"/>
<path d="M22.0004 31.4822C24.9459 31.4822 27.3337 29.0943 27.3337 26.1488C27.3337 23.2033 24.9459 20.8154 22.0004 20.8154C19.0548 20.8154 16.667 23.2033 16.667 26.1488C16.667 29.0943 19.0548 31.4822 22.0004 31.4822Z" stroke="white" stroke-width="1.5" stroke-linecap="round" stroke-linejoin="round"/>
<path d="M19.9479 24.9645C19.7464 25.3126 19.6309 25.7186 19.6309 26.1497C19.6309 27.4593 20.6916 28.5201 22.0012 28.5201C23.3109 28.5201 24.3716 27.4593 24.3716 26.1497C24.3716 24.84 23.3109 23.7793 22.0012 23.7793" stroke="white" stroke-width="1.5" stroke-linecap="round" stroke-linejoin="round"/>
<path d="M13.218 14.2939C12.4283 14.2939 11.7439 14.8436 11.5839 15.6169C11.452 16.254 11.3335 17.0525 11.3335 17.8495C11.3335 18.6466 11.4535 19.4451 11.5839 20.0821C11.7439 20.8555 12.4268 21.4051 13.218 21.4051C13.535 21.4051 13.8461 21.3147 14.1143 21.1444L19.3365 17.8214C19.8876 17.4703 20.2224 16.8614 20.2224 16.208C20.2224 15.1517 19.3661 14.2954 18.3098 14.2954H13.218V14.2939Z" stroke="white" stroke-width="1.5" stroke-linecap="round" stroke-linejoin="round"/>
<path d="M35.3179 15.0193C34.9935 13.4445 33.5179 11.8845 32.0749 11.3334C30.2616 7.87557 27.0897 6 22.0008 6C17.7223 6 14.0096 7.93927 11.9267 11.3334C10.3267 11.8104 9.03332 13.3275 8.68369 15.0193C8.47628 16.0223 8.37109 16.9749 8.37109 17.8519C8.37109 18.729 8.47628 19.6816 8.68369 20.6845C8.98443 22.1379 9.9637 23.3186 11.2481 23.926C13.1282 29.409 17.2319 34.4446 22.0008 34.4446C26.7697 34.4446 30.8749 29.409 32.7535 23.926C34.0379 23.3186 35.0172 22.1379 35.3179 20.686C35.5253 19.6845 35.6305 18.7305 35.6305 17.8519C35.6305 16.9734 35.5253 16.0208 35.3179 15.0193Z" stroke="white" stroke-width="1.5" stroke-linecap="round" stroke-linejoin="round"/>
<path d="M30.7823 14.2939C31.572 14.2939 32.2564 14.8436 32.4164 15.6169C32.5483 16.254 32.6668 17.0525 32.6668 17.8495C32.6668 18.6466 32.5468 19.4451 32.4164 20.0821C32.2564 20.8555 31.5734 21.4051 30.7823 21.4051C30.4653 21.4051 30.1542 21.3147 29.886 21.1444L24.6638 17.8214C24.1126 17.4703 23.7778 16.8614 23.7778 16.208C23.7778 15.1517 24.6341 14.2954 25.6904 14.2954H30.7823V14.2939Z" stroke="white" stroke-width="1.5" stroke-linecap="round" stroke-linejoin="round"/>
<path d="M22.0005 23.7784V20.8154" stroke="white" stroke-width="1.5" stroke-linecap="round" stroke-linejoin="round"/>
<path d="M19.9478 27.3354L17.3818 28.8169" stroke="white" stroke-width="1.5" stroke-linecap="round" stroke-linejoin="round"/>
<path d="M24.0542 27.3354L26.6201 28.8169" stroke="white" stroke-width="1.5" stroke-linecap="round" stroke-linejoin="round"/>
<path d="M11.9263 11.3306H17.2596" stroke="white" stroke-width="1.5" stroke-linecap="round" stroke-linejoin="round"/>
<path d="M26.7412 11.3306H32.0746" stroke="white" stroke-width="1.5" stroke-linecap="round" stroke-linejoin="round"/>
</svg>
