<svg width="12" height="12" viewBox="0 0 12 12" fill="none" xmlns="http://www.w3.org/2000/svg">
<path d="M6.1124 9.11253C6.04409 9.18326 6.00629 9.27798 6.00714 9.37631C6.008 9.47463 6.04744 9.56868 6.11697 9.63821C6.18649 9.70774 6.28055 9.74718 6.37887 9.74803C6.4772 9.74889 6.57192 9.71109 6.64265 9.64278L10.3926 5.89278C10.4629 5.82246 10.5024 5.72709 10.5024 5.62766C10.5024 5.52822 10.4629 5.43285 10.3926 5.36253L6.64265 1.61253C6.57192 1.54422 6.4772 1.50642 6.37887 1.50728C6.28055 1.50813 6.18649 1.54757 6.11697 1.6171C6.04744 1.68663 6.008 1.78068 6.00715 1.879C6.00629 1.97733 6.04409 2.07205 6.1124 2.14278L9.2249 5.25528L1.8824 5.25528C1.78294 5.25528 1.68756 5.29479 1.61723 5.36511C1.54691 5.43544 1.5074 5.53082 1.5074 5.63028C1.5074 5.72974 1.54691 5.82512 1.61723 5.89544C1.68756 5.96577 1.78294 6.00528 1.8824 6.00528L9.2249 6.00528L6.1124 9.11778L6.1124 9.11253Z" fill="white"/>
</svg>
