<svg width="12" height="12" viewBox="0 0 12 12" fill="none" xmlns="http://www.w3.org/2000/svg">
<path d="M6.11252 9.11253C6.04421 9.18326 6.00641 9.27798 6.00727 9.37631C6.00812 9.47463 6.04756 9.56868 6.11709 9.63821C6.18662 9.70774 6.28067 9.74718 6.37899 9.74803C6.47732 9.74889 6.57204 9.71109 6.64277 9.64278L10.3928 5.89278C10.4631 5.82246 10.5026 5.72709 10.5026 5.62766C10.5026 5.52822 10.4631 5.43285 10.3928 5.36253L6.64277 1.61253C6.57204 1.54422 6.47732 1.50642 6.37899 1.50728C6.28067 1.50813 6.18662 1.54757 6.11709 1.6171C6.04756 1.68663 6.00812 1.78068 6.00727 1.879C6.00641 1.97733 6.04421 2.07205 6.11252 2.14278L9.22502 5.25528L1.88252 5.25528C1.78306 5.25528 1.68768 5.29479 1.61735 5.36511C1.54703 5.43544 1.50752 5.53082 1.50752 5.63028C1.50752 5.72974 1.54703 5.82512 1.61735 5.89544C1.68768 5.96577 1.78306 6.00528 1.88252 6.00528L9.22502 6.00528L6.11252 9.11778L6.11252 9.11253Z" fill="white"/>
</svg>
