<svg width="142" height="60" viewBox="0 0 142 60" fill="none" xmlns="http://www.w3.org/2000/svg">
<g clip-path="url(#clip0_59_614)">
<path d="M38.6568 27.2187V59.9447H33.2155L7.83658 36.632V59.9999H0V27.1772L8.48733 27.2187L30.8202 47.0944V27.2187H38.6568Z" fill="#231F20"/>
<path d="M42.7551 9.4548C38.2276 10.2277 34.7386 14.1891 34.7386 18.9234C34.7386 14.1891 31.2495 10.2277 26.7358 9.4548C31.2633 8.68185 34.7386 4.7205 34.7386 0C34.7386 4.7343 38.2276 8.68185 42.7551 9.4548Z" fill="#9E1954"/>
<path d="M58.2207 54.8239H47.9058V54.0786H52.5994V52.5879H49.3872V49.082H56.7946V49.8274H50.2595V51.8426H56.9192V52.5741H53.4994V54.0648H58.2069V54.8101L58.2207 54.8239ZM56.9331 57.8605C56.9331 59.0475 55.687 59.9723 53.0425 59.9723C50.398 59.9723 49.1934 59.0337 49.1934 57.8605C49.1934 56.6873 50.4533 55.7349 53.0425 55.7349C55.6316 55.7349 56.9331 56.6459 56.9331 57.8605ZM53.0425 56.425C51.2287 56.425 50.1487 57.0047 50.1487 57.8467C50.1487 58.6887 51.2287 59.2684 53.0425 59.2684C54.8562 59.2684 55.9639 58.7163 55.9639 57.8467C55.9639 56.9771 54.8701 56.425 53.0425 56.425Z" fill="#231F20"/>
<path d="M69.0062 55.0035H64.3125V56.3837H67.5801V59.8206H66.694V57.1153H59.9789V56.3837H63.3987V55.0035H58.7051V54.2719H69.02V55.0035H69.0062ZM60.2004 53.0435V48.8889H61.0865V50.2416H66.6386V48.8889H67.497V53.0435H60.2004ZM66.6247 50.9593H61.0727V52.312H66.6247V50.9593Z" fill="#231F20"/>
<path d="M75.8043 54.9207C74.7797 54.5204 73.3813 53.6647 72.8829 52.5881C72.3844 53.8579 71.1245 54.6309 69.9892 55.1968L69.4907 54.6171C70.9307 53.8993 72.426 52.9607 72.426 51.1388V49.1788H73.3536V51.125C73.3536 52.8917 74.8766 53.7199 76.2197 54.2444L75.8181 54.9207H75.8043ZM78.9888 59.586H71.6506V56.0387H72.5506V58.8407H78.9888V59.586ZM78.7396 56.5494H77.8534V51.8979H75.4443V51.1526H77.8534V48.8062H78.7396V56.5356V56.5494Z" fill="#231F20"/>
<path d="M85.8838 55.3072V57.2533H90.5913V57.9849H80.2764V57.2533H84.97V55.3072H85.8838ZM81.7301 54.5342V49.4272H89.1791V50.1588H82.6024V53.8027H89.3175V54.5342H81.7301Z" fill="#231F20"/>
<path d="M94.9251 49.303V52.2844C94.9251 54.1616 96.3927 55.5142 97.8742 56.2182L97.4173 56.9221C96.4619 56.3838 95.0774 55.4452 94.4543 53.9407C93.9005 55.4728 92.6683 56.4252 91.4222 57.1843L90.8545 56.5632C92.516 55.6384 94.0113 54.2168 94.0113 52.243V49.3168H94.9389L94.9251 49.303ZM100.2 59.7654H99.328V48.8062H100.2V59.7654Z" fill="#231F20"/>
<path d="M105.822 49.7722H108.258V50.4761H105.822V50.5037C105.822 52.2566 107.261 53.0848 108.618 53.6231L108.217 54.2718C107.206 53.8853 105.863 53.0296 105.365 51.953C104.88 53.209 103.675 53.9682 102.54 54.5479L102.028 53.982C103.454 53.278 104.922 52.3257 104.922 50.5175V50.4761H102.471V49.7722H104.922V48.4885H105.835V49.7722H105.822ZM111.36 59.8205H103.952V57.1428H110.169V55.8591H103.952V55.1552H111.083V57.8329H104.866V59.1303H111.346V59.8343L111.36 59.8205ZM111.111 54.5479H110.238V52.0496H108.051V51.3181H110.238V48.806H111.111V54.5479Z" fill="#231F20"/>
<path d="M118.269 55.3072V57.2533H122.976V57.9849H112.661V57.2533H117.355V55.3072H118.269ZM114.115 54.5342V49.4272H121.564V50.1588H114.987V53.8027H121.702V54.5342H114.115Z" fill="#231F20"/>
<path d="M126.424 60C125.192 58.2057 124.444 56.0111 124.444 54.1201C124.444 52.2292 125.192 50.0898 126.424 48.2954H127.075C125.939 50.1726 125.344 52.2015 125.344 54.1477C125.344 56.0939 125.939 58.1091 127.075 60H126.424Z" fill="#231F20"/>
<path d="M138.358 55.6384H133.651V59.7792H132.737V55.6384H128.043V54.9069H138.358V55.6384ZM128.846 53.0435C130.425 52.7122 132.696 51.5528 132.696 50.1726V50.0207H129.428V49.2754H136.932V50.0207H133.665V50.1726C133.665 51.5114 135.866 52.6708 137.514 53.0435L137.098 53.7336C135.562 53.3748 133.942 52.4086 133.166 51.3182C132.322 52.519 130.702 53.4162 129.248 53.7336L128.833 53.0435H128.846Z" fill="#231F20"/>
<path d="M139.369 60C140.504 58.1091 141.1 56.1491 141.1 54.1753C141.1 52.2016 140.504 50.1726 139.369 48.2954H140.034C141.252 50.0898 142 52.2706 142 54.1615C142 56.0525 141.252 58.2195 140.034 60.0138H139.369V60Z" fill="#231F20"/>
</g>
<defs>
<clipPath id="clip0_59_614">
<rect width="142" height="60" fill="white"/>
</clipPath>
</defs>
</svg>
