<svg width="16" height="16" viewBox="0 0 16 16" fill="none" xmlns="http://www.w3.org/2000/svg">
<path d="M1.63654 5.29246C1.82406 5.10499 2.07837 4.99968 2.34354 4.99968C2.6087 4.99968 2.86301 5.10499 3.05054 5.29246L8.00054 10.2425L12.9505 5.29246C13.1391 5.11031 13.3917 5.00951 13.6539 5.01179C13.9161 5.01407 14.1669 5.11924 14.3524 5.30465C14.5378 5.49005 14.6429 5.74087 14.6452 6.00306C14.6475 6.26526 14.5467 6.51786 14.3645 6.70646L8.70754 12.3635C8.52001 12.5509 8.2657 12.6562 8.00054 12.6562C7.73537 12.6562 7.48106 12.5509 7.29354 12.3635L1.63654 6.70646C1.44907 6.51894 1.34375 6.26463 1.34375 5.99946C1.34375 5.7343 1.44907 5.47999 1.63654 5.29246Z" fill="#4F609B"/>
</svg>
