<svg width="24" height="24" viewBox="0 0 24 24" fill="none" xmlns="http://www.w3.org/2000/svg">
<path d="M7.79922 14.3992C7.64009 14.3992 7.48748 14.336 7.37495 14.2235C7.26243 14.111 7.19922 13.9583 7.19922 13.7992C7.19922 13.6401 7.26243 13.4875 7.37495 13.375C7.48748 13.2624 7.64009 13.1992 7.79922 13.1992H16.1992C16.3583 13.1992 16.511 13.2624 16.6235 13.375C16.736 13.4875 16.7992 13.6401 16.7992 13.7992C16.7992 13.9583 16.736 14.111 16.6235 14.2235C16.511 14.336 16.3583 14.3992 16.1992 14.3992H7.79922ZM7.79922 17.9992C7.64009 17.9992 7.48748 17.936 7.37495 17.8235C7.26243 17.711 7.19922 17.5583 7.19922 17.3992C7.19922 17.2401 7.26243 17.0875 7.37495 16.975C7.48748 16.8624 7.64009 16.7992 7.79922 16.7992H16.1992C16.3583 16.7992 16.511 16.8624 16.6235 16.975C16.736 17.0875 16.7992 17.2401 16.7992 17.3992C16.7992 17.5583 16.736 17.711 16.6235 17.8235C16.511 17.936 16.3583 17.9992 16.1992 17.9992H7.79922Z" fill="#636466"/>
<path fill-rule="evenodd" clip-rule="evenodd" d="M13.4216 1.19922H5.39961C4.92222 1.19922 4.46438 1.38886 4.12682 1.72643C3.78925 2.06399 3.59961 2.52183 3.59961 2.99922V20.9992C3.59961 21.4766 3.78925 21.9344 4.12682 22.272C4.46438 22.6096 4.92222 22.7992 5.39961 22.7992H18.5996C19.077 22.7992 19.5348 22.6096 19.8724 22.272C20.21 21.9344 20.3996 21.4766 20.3996 20.9992V8.64162C20.3995 8.19099 20.2304 7.75679 19.9256 7.42482L14.7488 1.78242C14.5801 1.59851 14.375 1.4517 14.1465 1.3513C13.918 1.2509 13.6712 1.19911 13.4216 1.19922ZM4.79961 2.99922C4.79961 2.84009 4.86282 2.68748 4.97535 2.57495C5.08787 2.46243 5.24048 2.39922 5.39961 2.39922H13.4216C13.5049 2.39913 13.5872 2.41636 13.6635 2.44983C13.7397 2.4833 13.8081 2.53227 13.8644 2.59362L19.0412 8.23602C19.1429 8.34661 19.1995 8.49135 19.1996 8.64162V20.9992C19.1996 21.1583 19.1364 21.311 19.0239 21.4235C18.9114 21.536 18.7587 21.5992 18.5996 21.5992H5.39961C5.24048 21.5992 5.08787 21.536 4.97535 21.4235C4.86282 21.311 4.79961 21.1583 4.79961 20.9992V2.99922Z" fill="#636466"/>
<path d="M13.2 8.39922H19.8C19.9591 8.39922 20.1117 8.46243 20.2243 8.57495C20.3368 8.68748 20.4 8.84009 20.4 8.99922C20.4 9.15835 20.3368 9.31096 20.2243 9.42348C20.1117 9.536 19.9591 9.59922 19.8 9.59922H12.6C12.4409 9.59922 12.2883 9.536 12.1757 9.42348C12.0632 9.31096 12 9.15835 12 8.99922V1.79922C12 1.64009 12.0632 1.48748 12.1757 1.37495C12.2883 1.26243 12.4409 1.19922 12.6 1.19922C12.7591 1.19922 12.9117 1.26243 13.0243 1.37495C13.1368 1.48748 13.2 1.64009 13.2 1.79922V8.39922Z" fill="#636466"/>
</svg>
