<svg width="44" height="44" viewBox="0 0 44 44" fill="none" xmlns="http://www.w3.org/2000/svg">
<path d="M17.1831 6.57176C17.1651 6.55823 17.1403 6.57176 17.1403 6.5943C17.1707 8.07186 17.1831 9.63507 17.1798 11.2862C17.1775 12.0537 17.0321 12.4087 16.3829 12.6984C16.3457 12.7153 16.3052 12.7254 16.2646 12.7311C15.6346 12.8055 15.2131 12.5462 15.0001 11.9534C14.982 11.9038 14.973 11.852 14.973 11.799V6.61008C14.973 6.57739 14.9313 6.56274 14.911 6.58866C14.4827 7.12739 13.9902 7.63456 13.4335 8.11018C13.3794 8.15639 13.2227 8.21274 12.9635 8.28036C12.9207 8.29163 12.8756 8.29388 12.8305 8.28825C12.347 8.22626 11.9852 7.99522 11.7474 7.59512C11.6493 7.43057 11.5986 7.26715 11.593 7.10598C11.5772 6.63713 11.717 6.46807 12.0461 6.13446C13.6521 4.51152 14.7273 3.42166 15.2717 2.86378C15.2908 2.84462 15.3111 2.82884 15.3348 2.81531C15.8927 2.48509 16.4111 2.56736 16.8901 3.06439C17.2372 3.42505 18.3553 4.55209 20.2442 6.44666C20.7074 6.911 20.5778 7.61428 20.0729 8.00762C19.7539 8.25669 19.3719 8.32319 18.9278 8.20485C18.7734 8.16315 18.5762 8.02227 18.3384 7.78108C18.007 7.44409 17.6588 7.06991 17.2936 6.65629C17.2823 6.64389 17.2451 6.61571 17.1831 6.57176Z" fill="white"/>
<path d="M29.4149 9.07749C29.4149 9.10115 29.4431 9.1113 29.4588 9.09439C29.8454 8.66837 30.3019 8.19163 30.8259 7.6653C31.3342 7.15474 31.8504 6.84932 32.4759 7.30126C32.8591 7.57739 33.0226 7.92564 32.9662 8.34603C32.9324 8.60187 32.8017 8.83855 32.574 9.05607C32.3215 9.29726 31.2091 10.4018 29.2379 12.3696C28.9641 12.6435 28.6429 12.7979 28.2754 12.8317C28.1436 12.8441 27.9565 12.7877 27.7153 12.6604C27.6849 12.6435 27.6567 12.6232 27.633 12.5995C27.5305 12.4958 26.4755 11.4465 24.4705 9.45054C24.0411 9.02339 23.4855 8.59511 23.6748 7.91775C23.8078 7.44101 24.1437 7.16827 24.6813 7.10177C24.9608 7.06683 25.1986 7.14235 25.3947 7.32831C25.8996 7.80843 26.4631 8.37421 27.0864 9.02677C27.1112 9.05269 27.154 9.03466 27.154 8.99972V3.62709C27.154 3.61469 27.154 3.60342 27.1585 3.59102C27.3141 2.9858 27.6815 2.6815 28.2608 2.67586C28.6293 2.67248 28.9167 2.77392 29.123 2.97904C29.3225 3.1774 29.4216 3.4693 29.4228 3.85475C29.4262 5.46756 29.4228 7.20884 29.4149 9.07749Z" fill="white"/>
<rect x="8.75" y="17.3672" width="26.5" height="24.5" rx="2.25" stroke="white" stroke-width="1.5"/>
<path d="M29.9019 26.9082C29.9096 26.9082 29.9175 26.9089 29.9253 26.9111C30.9745 27.1771 31.3457 27.8933 31.3569 28.9414C31.3693 30.092 31.3697 31.2373 31.3618 32.3789C31.3549 33.2589 30.9033 33.7368 30.3071 34.2822C30.2713 34.3148 30.2506 34.3619 30.2505 34.4102C30.2482 36.1898 30.25 37.1155 30.2534 37.1865C30.2771 37.7038 30.2353 38.0546 30.1294 38.2383C29.9379 38.5683 29.6616 38.7843 29.3013 38.8857C29.2404 38.9026 29.1777 38.9105 29.1157 38.9082C28.8386 38.9003 28.605 38.8947 28.4146 38.8936C27.8817 38.8901 27.4929 38.6874 27.2495 38.2852C27.1391 38.1036 27.0843 37.6585 27.0854 36.9521C27.0866 36.0494 27.0873 35.2457 27.0884 34.5391C27.0895 34.0477 26.3884 33.7261 26.2114 33.2539C26.0966 32.9488 26.0374 32.7011 26.0317 32.5107C26.0261 32.3518 26.0214 31.1632 26.0181 28.9463C26.017 28.4462 26.0756 28.0736 26.1938 27.8291C26.4192 27.3592 26.803 27.0507 27.3472 26.9053C27.3572 26.9031 27.3665 26.9024 27.3765 26.9023L29.9019 26.9082ZM15.6069 26.9062C16.2704 26.9063 16.7052 26.9093 16.9126 26.916C16.9509 26.916 16.9905 26.9235 17.0288 26.9336C17.8549 27.1568 18.2767 27.7102 18.2925 28.5938C18.2981 28.9062 18.2974 29.9925 18.2896 31.8525C18.2873 32.4503 18.2721 32.8146 18.2417 32.9424C18.1031 33.5271 17.7639 33.7757 17.355 34.1699C17.2863 34.2364 17.2468 34.3289 17.2456 34.4258C17.24 35.2418 17.2373 36.0426 17.2407 36.8281C17.243 37.5165 17.2292 37.9043 17.1987 37.9922C17.0691 38.3673 16.8078 38.6433 16.4136 38.8213C16.2987 38.8731 16.0282 38.8994 15.6001 38.8994C15.1718 38.8994 14.9006 38.8733 14.7856 38.8203C14.3913 38.6422 14.1299 38.3645 14.0015 37.9893C13.9711 37.9005 13.9581 37.5127 13.9614 36.8252C13.9659 36.0409 13.964 35.2397 13.9595 34.4238C13.9583 34.328 13.9188 34.2356 13.8501 34.168C13.4411 33.7736 13.103 33.5243 12.9644 32.9395C12.9351 32.8121 12.9197 32.448 12.9175 31.8496C12.913 29.9889 12.9127 28.902 12.9194 28.5898C12.9364 27.7064 13.358 27.1538 14.1851 26.9307C14.2234 26.9205 14.2619 26.9152 14.3013 26.9141C14.5075 26.9084 14.9431 26.9051 15.6069 26.9062ZM22.6987 26.8984C23.2564 26.8951 23.643 26.9489 23.856 27.0615C24.1917 27.2384 24.4452 27.4967 24.6177 27.8369C24.7315 28.0623 24.7876 28.4053 24.7876 28.8662C24.7876 30.9453 24.7841 32.2932 24.7808 32.9121C24.7796 32.9809 24.7643 33.0503 24.7339 33.1123C24.6923 33.1967 24.666 33.277 24.6548 33.3535C24.648 33.3995 24.6294 33.4426 24.5991 33.4785L23.9146 34.3008C23.8988 34.3188 23.8911 34.3426 23.8911 34.3662C23.8877 34.8564 23.8859 35.9733 23.8882 37.7178C23.8882 38.2745 23.6102 38.6467 23.0513 38.835C22.8811 38.8924 22.4878 38.9087 21.8726 38.8828C21.3621 38.8614 20.9973 38.655 20.7798 38.2617C20.6536 38.0341 20.5958 37.6256 20.606 37.0361C20.6195 36.1807 20.6187 35.2675 20.604 34.2949C20.6028 34.2759 20.596 34.2595 20.5825 34.2461L19.9097 33.5732C19.8996 33.5631 19.8913 33.5513 19.8823 33.54C19.6716 33.2538 19.565 32.8167 19.5649 32.2285C19.5661 31.1535 19.5655 30.0826 19.561 29.0166C19.5588 28.4745 19.6195 28.078 19.7446 27.8301C19.9554 27.41 20.2876 27.1121 20.7427 26.9375C20.7921 26.9184 20.8442 26.9094 20.897 26.9082C20.9849 26.9071 21.5863 26.9041 22.6987 26.8984ZM21.8579 21.835C23.0379 21.6377 24.1515 22.4149 24.3442 23.5713C24.5367 24.7264 23.738 25.8243 22.5581 26.0215C21.3781 26.2187 20.2645 25.4415 20.0718 24.2852C19.8792 23.1301 20.6781 22.0323 21.8579 21.835ZM15.8169 21.8154C17.0048 21.9135 17.8904 22.94 17.7935 24.1064C17.6963 25.2727 16.656 26.1389 15.4683 26.042C14.2805 25.9438 13.3948 24.9183 13.4917 23.752C13.5887 22.5855 14.629 21.7185 15.8169 21.8154ZM28.8208 21.8164C29.9963 21.9145 30.8699 22.9357 30.7729 24.0977C30.6758 25.2583 29.6436 26.1195 28.4683 26.0215C27.2929 25.9234 26.4194 24.9021 26.5161 23.7402C26.613 22.5795 27.6454 21.7185 28.8208 21.8164Z" fill="white"/>
</svg>
