<svg width="48" height="80" viewBox="0 0 48 80" fill="none" xmlns="http://www.w3.org/2000/svg">
<path d="M42.6694 30.1225V66.3802H36.6726L8.65443 40.5552V66.4197H0V30.083L9.37561 30.1225L34.0249 52.134V30.1225H42.6694Z" fill="#231F20"/>
<path d="M47.1941 10.4722C42.1951 11.3318 38.3421 15.7182 38.3421 20.9642C38.3421 15.7182 34.499 11.3318 29.5 10.4722C34.4891 9.6226 38.3421 5.23612 38.3421 0C38.3421 5.23612 42.1852 9.6226 47.1941 10.4722Z" fill="#9E1954"/>
<path d="M5.78026 77.0995H0.78125V76.7339H3.05352V76.0127H1.49257V74.3135H5.08868V74.679H1.91738V75.6571H5.14796V76.0127H3.48822V76.7339H5.77037V77.0995H5.78026ZM5.16774 78.5715C5.16774 79.1445 4.56509 79.599 3.28075 79.599C1.99642 79.599 1.41352 79.1445 1.41352 78.5715C1.41352 77.9985 2.02606 77.5342 3.28075 77.5342C4.53545 77.5342 5.16774 77.9788 5.16774 78.5715ZM3.28075 77.8701C2.40148 77.8701 1.87786 78.1566 1.87786 78.5617C1.87786 78.9667 2.40148 79.2532 3.28075 79.2532C4.16003 79.2532 4.69351 78.9865 4.69351 78.5617C4.69351 78.1368 4.16003 77.8701 3.28075 77.8701Z" fill="#231F20"/>
<path d="M11.0167 77.1886H8.74444V77.8604H10.3252V79.5399H9.89047V78.2259H6.63022V77.8703H8.29V77.1984H6.00781V76.8428H11.0167V77.1984V77.1886ZM6.74877 76.2303V74.2148H7.17361V74.8669H9.86083V74.2148H10.2758V76.2303H6.73891H6.74877ZM9.86083 75.2226H7.17361V75.8746H9.86083V75.2226Z" fill="#231F20"/>
<path d="M14.3165 77.1496C13.8225 76.952 13.1409 76.5371 12.8939 76.0135C12.6568 76.626 12.0443 77.0113 11.491 77.2879L11.2539 77.0014C11.9553 76.6556 12.6765 76.1913 12.6765 75.312V74.3537H13.1211V75.3021C13.1211 76.1617 13.8522 76.5568 14.5141 76.8236L14.3165 77.1496ZM15.8676 79.412H12.311V77.6831H12.7457V79.0465H15.8676V79.412ZM15.7392 77.9301H15.3144V75.6677H14.1486V75.3021H15.3144V74.166H15.7392V77.9301Z" fill="#231F20"/>
<path d="M19.2072 77.3367V78.2852H21.4894V78.6408H16.4805V78.2852H18.7626V77.3367H19.2072ZM17.1918 76.9514V74.4717H20.8077V74.8273H17.6265V76.5958H20.8768V76.9514H17.1918Z" fill="#231F20"/>
<path d="M23.5932 74.413V75.8653C23.5932 76.7841 24.3045 77.4361 25.0159 77.7819L24.7985 78.1178C24.3342 77.8609 23.6624 77.3966 23.3561 76.6655C23.0894 77.4164 22.4867 77.8708 21.884 78.2462L21.6074 77.94C22.4175 77.4954 23.1388 76.8038 23.1388 75.8455V74.4229H23.5932V74.413ZM26.152 79.5009H25.7272V74.166H26.152V79.5009Z" fill="#231F20"/>
<path d="M28.8787 74.6401H30.0642V74.9859H28.8787C28.8787 75.8454 29.5801 76.2504 30.2322 76.5172L30.0346 76.8333C29.5505 76.6456 28.8985 76.2307 28.6515 75.7071C28.4144 76.3196 27.8315 76.695 27.2782 76.9618L27.0312 76.6852C27.7327 76.3394 28.4341 75.875 28.4341 74.9958V74.976H27.2387V74.6302H28.4341V74.0078H28.8787V74.6302V74.6401ZM31.556 79.5304H27.9599V78.2264H30.9731V77.6039H27.9599V77.2582H31.4177V78.5622H28.4045V79.1945H31.556V79.5304ZM31.4375 76.9618H31.0127V75.7466H29.9556V75.3909H31.0127V74.1758H31.4375V76.9717V76.9618Z" fill="#231F20"/>
<path d="M34.9044 77.3367V78.2852H37.1866V78.6408H32.1777V78.2852H34.45V77.3367H34.8946H34.9044ZM32.8989 76.9514V74.4717H36.5049V74.8273H33.3238V76.5958H36.5741V76.9514H32.8989Z" fill="#231F20"/>
<path d="M38.8567 79.6095C38.2541 78.7401 37.8984 77.6731 37.8984 76.7543C37.8984 75.8356 38.2639 74.7982 38.8567 73.9189H39.1729C38.6196 74.8377 38.3331 75.8158 38.3331 76.7642C38.3331 77.7127 38.6196 78.6907 39.1729 79.6095H38.8567Z" fill="#231F20"/>
<path d="M44.6456 77.4849H42.3635V79.5003H41.9189V77.4849H39.6367V77.1292H44.6357V77.4849H44.6456ZM40.0418 76.2302C40.8025 76.0721 41.909 75.509 41.909 74.8372V74.7581H40.3184V74.3926H43.954V74.7581H42.3734V74.8372C42.3734 75.4892 43.4403 76.0523 44.2406 76.2302L44.043 76.5661C43.302 76.3882 42.5116 75.9239 42.1362 75.3904C41.7312 75.9733 40.9408 76.408 40.2295 76.5661L40.0319 76.2302H40.0418Z" fill="#231F20"/>
<path d="M45.1406 79.6087C45.6939 78.6899 45.9804 77.7316 45.9804 76.7733C45.9804 75.8149 45.6939 74.827 45.1406 73.9082H45.4666C46.0594 74.7875 46.4249 75.8446 46.4249 76.7634C46.4249 77.6822 46.0594 78.7393 45.4666 79.6087H45.1406Z" fill="#231F20"/>
</svg>
